<svg width="2514" height="1490" viewBox="0 0 2514 1490" fill="none" xmlns="http://www.w3.org/2000/svg">
<path d="M367.576 277.282C418.974 277.282 464.661 288.705 504.638 311.553C544.614 333.88 577.063 365.036 601.983 405.018V0H827.045V1146.51H611.328V1028.9C579.659 1079.27 543.576 1115.88 503.08 1138.72C462.585 1161.57 412.225 1173 352 1173C252.838 1173 169.251 1133.01 101.239 1053.05C33.7464 972.563 0 869.491 0 743.832C0 598.96 33.2272 484.983 99.6816 401.903C166.655 318.822 255.953 277.282 367.576 277.282ZM415.859 986.064C478.679 986.064 526.443 962.697 559.151 915.964C591.859 869.232 608.213 808.738 608.213 734.485C608.213 630.634 581.995 556.381 529.558 511.725C497.369 484.724 459.989 471.223 417.417 471.223C352.52 471.223 304.756 495.888 274.124 545.217C244.012 594.027 228.956 654.78 228.956 727.475C228.956 805.883 244.272 868.712 274.903 915.964C306.054 962.697 353.039 986.064 415.859 986.064Z" fill="#2E2D31"/>
<path d="M1417.81 733.706C1403.8 742.534 1389.52 749.803 1374.98 755.515C1360.96 760.707 1341.5 765.64 1316.58 770.314L1266.73 779.66C1220.01 787.968 1186.52 798.094 1166.27 810.037C1132.01 830.287 1114.88 861.702 1114.88 904.281C1114.88 942.187 1125.26 969.707 1146.03 986.843C1167.31 1003.46 1193.01 1011.77 1223.12 1011.77C1270.89 1011.77 1314.76 997.747 1354.73 969.707C1395.23 941.668 1416.26 890.521 1417.81 816.268V733.706ZM1283.09 630.115C1324.1 624.922 1353.44 618.432 1371.09 610.643C1402.76 597.142 1418.59 576.113 1418.59 547.554C1418.59 512.764 1406.39 488.878 1381.99 475.896C1358.11 462.396 1322.81 455.646 1276.08 455.646C1223.64 455.646 1186.52 468.627 1164.72 494.59C1149.14 513.802 1138.76 539.765 1133.57 572.478H919.407C924.079 498.224 944.846 437.212 981.708 389.441C1040.37 314.668 1141.09 277.282 1283.87 277.282C1376.8 277.282 1459.35 295.715 1531.51 332.582C1603.68 369.449 1639.76 439.029 1639.76 541.323V930.763C1639.76 957.764 1640.28 990.477 1641.32 1028.9C1642.88 1057.98 1647.29 1077.71 1654.56 1088.1C1661.83 1098.48 1672.73 1107.05 1687.27 1113.8V1146.51H1445.85C1439.1 1129.38 1434.43 1113.28 1431.83 1098.22C1429.24 1083.16 1427.16 1066.03 1425.6 1046.82C1394.97 1080.05 1359.67 1108.35 1319.69 1131.71C1271.93 1159.24 1217.93 1173 1157.71 1173C1080.87 1173 1017.27 1151.19 966.911 1107.57C917.07 1063.43 892.15 1001.12 892.15 920.638C892.15 816.268 932.386 740.716 1012.86 693.983C1056.99 668.54 1121.88 650.366 1207.55 639.462L1283.09 630.115Z" fill="#2E2D31"/>
<path d="M1792.09 1309.3L1820.12 1310.86C1841.93 1311.9 1862.7 1311.12 1882.42 1308.52C1902.15 1305.92 1918.77 1299.95 1932.26 1290.61C1945.24 1281.78 1957.19 1263.35 1968.09 1235.31C1979.51 1207.27 1984.18 1190.13 1982.11 1183.9L1670.6 297.533H1917.47L2102.81 923.753L2278.04 297.533H2514L2222.74 1132.49C2166.67 1293.46 2122.28 1393.16 2089.57 1431.58C2056.87 1470.53 1991.45 1490 1893.33 1490C1873.6 1490 1857.76 1489.74 1845.82 1489.22C1833.88 1489.22 1815.97 1488.44 1792.09 1486.88V1309.3Z" fill="#2E2D31"/>
</svg>
