<svg width="372" height="56" viewBox="0 0 372 56" fill="none" xmlns="http://www.w3.org/2000/svg">
<path d="M6.92 51.3C3.64 51.3 1.66 49.42 1.66 45.54V37H3.48V45.3C3.48 48.38 4.66 49.78 6.92 49.78C9.18 49.78 10.38 48.42 10.38 45.3V37H12.2V45.54C12.2 49.42 10.2 51.3 6.92 51.3ZM16.3305 51H14.6105V41.36H16.3105V42.02V42.66C16.8305 41.82 17.9905 41.04 19.2905 41.04C21.5105 41.04 22.8505 42.44 22.8505 44.92V51H21.1305V45.14C21.1305 43.32 20.5305 42.4 19.0105 42.4C17.3305 42.4 16.3305 43.68 16.3305 45.2V51ZM28.4647 51.3C25.8647 51.3 24.3647 49.88 24.3247 47.82H26.0047C26.0647 49.12 26.9447 49.96 28.4847 49.96C29.8047 49.96 30.7047 49.36 30.7047 48.38C30.7047 47.62 30.1847 47.12 29.0247 46.9L27.5647 46.62C25.7647 46.28 24.6247 45.36 24.6247 43.88C24.6247 42.24 26.1847 41.04 28.3647 41.04C30.6847 41.04 32.0847 42.18 32.2047 44.14H30.5047C30.3647 42.98 29.5447 42.4 28.2447 42.4C27.0847 42.4 26.3447 42.96 26.3447 43.78C26.3447 44.56 26.9047 44.94 27.9847 45.14L29.4847 45.42C31.2247 45.74 32.4047 46.6 32.4047 48.2C32.4047 49.92 30.9247 51.3 28.4647 51.3ZM38.2127 51.3C35.3327 51.3 33.5327 49.48 33.5327 46.14C33.5327 43.18 35.4727 41.04 38.1127 41.04C40.9927 41.04 42.5727 43.06 42.5727 46.16V46.5H35.2527C35.2927 48.7 36.5727 49.96 38.2327 49.96C39.4127 49.96 40.5327 49.5 40.7727 48.02H42.4727C42.2727 49.72 40.9527 51.3 38.2127 51.3ZM35.3127 45.28H40.7327C40.7327 43.56 39.7927 42.4 38.1127 42.4C36.4927 42.4 35.4327 43.66 35.3127 45.28ZM46.0539 51H44.3339V41.36H46.0339V42.02V42.66C46.5539 41.82 47.7139 41.04 49.0139 41.04C51.2339 41.04 52.5739 42.44 52.5739 44.92V51H50.8539V45.14C50.8539 43.32 50.2539 42.4 48.7339 42.4C47.0539 42.4 46.0539 43.68 46.0539 45.2V51ZM58.1305 51.16C56.6905 51.16 55.3905 50.46 55.3905 48.32V42.78H53.5905V41.36H55.3905V38.18H57.1105V41.36H59.1105V42.78H57.1105V48.14C57.1105 49.26 57.6705 49.62 58.5305 49.62C58.7705 49.62 58.9705 49.6 59.2505 49.56V51.04C58.8905 51.12 58.5305 51.16 58.1305 51.16Z" fill="black" style="fill:black;fill-opacity:1;"/>
<path d="M164.62 51H162.8V37H168.26C170.7 37 173.06 37.9 173.06 40.98C173.06 44.04 170.8 44.94 168.26 44.94H164.62V51ZM164.62 38.52V43.42H168.24C170.38 43.42 171.2 42.46 171.2 40.98C171.2 39.48 170.38 38.52 168.24 38.52H164.62ZM178.088 51.3C175.208 51.3 173.408 49.48 173.408 46.14C173.408 43.18 175.348 41.04 177.988 41.04C180.868 41.04 182.448 43.06 182.448 46.16V46.5H175.128C175.168 48.7 176.448 49.96 178.108 49.96C179.288 49.96 180.408 49.5 180.648 48.02H182.348C182.148 49.72 180.828 51.3 178.088 51.3ZM175.188 45.28H180.608C180.608 43.56 179.668 42.4 177.988 42.4C176.368 42.4 175.308 43.66 175.188 45.28ZM185.93 51H184.21V41.36H185.91V42.02V42.66C186.43 41.82 187.59 41.04 188.89 41.04C191.11 41.04 192.45 42.44 192.45 44.92V51H190.73V45.14C190.73 43.32 190.13 42.4 188.61 42.4C186.93 42.4 185.93 43.68 185.93 45.2V51ZM198.504 51.3C195.984 51.3 194.064 49.46 194.064 46.18C194.064 43.26 195.804 41.04 198.544 41.04C200.144 41.04 201.204 41.92 201.644 42.66V41.88V37H203.364V51H201.644V50.44V49.66C201.124 50.56 199.944 51.3 198.504 51.3ZM198.804 49.96C200.524 49.96 201.764 48.48 201.764 46.16C201.764 43.86 200.544 42.4 198.804 42.4C197.064 42.4 195.844 43.92 195.844 46.18C195.844 48.44 197.044 49.96 198.804 49.96ZM205.565 39.54V37.48H207.565V39.54H205.565ZM205.725 41.36H207.445V51H205.725V41.36ZM211.532 51H209.812V41.36H211.512V42.02V42.66C212.032 41.82 213.192 41.04 214.492 41.04C216.712 41.04 218.052 42.44 218.052 44.92V51H216.332V45.14C216.332 43.32 215.732 42.4 214.212 42.4C212.532 42.4 211.532 43.68 211.532 45.2V51ZM224.306 55.46C221.766 55.46 220.106 54.04 220.106 51.92H221.806C221.806 53.22 222.766 54.12 224.326 54.12C226.126 54.12 227.226 53.18 227.226 51.12V49.94V49.3C226.726 50.28 225.486 50.9 224.066 50.9C221.406 50.9 219.686 48.98 219.686 46C219.686 43.04 221.586 41.04 224.126 41.04C225.726 41.04 226.726 41.86 227.226 42.66V41.88V41.36H228.946V50.52C228.946 53.82 227.386 55.46 224.306 55.46ZM224.406 49.56C226.126 49.56 227.346 48.14 227.346 46C227.346 43.9 226.126 42.4 224.406 42.4C222.666 42.4 221.466 43.86 221.466 46C221.466 48.16 222.666 49.56 224.406 49.56Z" fill="black" style="fill:black;fill-opacity:1;"/>
<path d="M338.42 51.3C335.02 51.3 332.8 49.46 332.76 46.5H334.62C334.74 48.52 336.22 49.78 338.44 49.78C340.74 49.78 342 48.76 342 47.24C342 45.9 340.88 45.3 339.22 44.92L337.14 44.44C335 43.94 333.24 42.72 333.24 40.58C333.24 38.32 335.4 36.68 338.36 36.68C341.38 36.68 343.4 38.32 343.56 40.92H341.7C341.58 39.26 340.28 38.22 338.32 38.22C336.5 38.22 335.16 39.14 335.16 40.42C335.16 41.62 335.96 42.34 337.6 42.72L340.08 43.28C342.3 43.8 343.92 45 343.92 47.12C343.92 49.42 341.86 51.3 338.42 51.3ZM349.674 51.3C346.794 51.3 344.994 49.48 344.994 46.14C344.994 43.18 346.934 41.04 349.574 41.04C352.454 41.04 354.034 43.06 354.034 46.16V46.5H346.714C346.754 48.7 348.034 49.96 349.694 49.96C350.874 49.96 351.994 49.5 352.234 48.02H353.934C353.734 49.72 352.414 51.3 349.674 51.3ZM346.774 45.28H352.194C352.194 43.56 351.254 42.4 349.574 42.4C347.954 42.4 346.894 43.66 346.774 45.28ZM357.516 51H355.796V41.36H357.496V42.02V42.66C358.016 41.82 359.176 41.04 360.476 41.04C362.696 41.04 364.036 42.44 364.036 44.92V51H362.316V45.14C362.316 43.32 361.716 42.4 360.196 42.4C358.516 42.4 357.516 43.68 357.516 45.2V51ZM369.592 51.16C368.152 51.16 366.852 50.46 366.852 48.32V42.78H365.052V41.36H366.852V38.18H368.572V41.36H370.572V42.78H368.572V48.14C368.572 49.26 369.132 49.62 369.992 49.62C370.232 49.62 370.432 49.6 370.712 49.56V51.04C370.352 51.12 369.992 51.16 369.592 51.16Z" fill="black" style="fill:black;fill-opacity:1;"/>
<path d="M30 12H196" stroke="#E5E5E5" style="stroke:#E5E5E5;stroke:color(display-p3 0.8993 0.8993 0.8993);stroke-opacity:1;" stroke-width="2" stroke-linecap="round"/>
<path d="M196 12H352" stroke="#E5E5E5" style="stroke:#E5E5E5;stroke:color(display-p3 0.8993 0.8993 0.8993);stroke-opacity:1;" stroke-width="2" stroke-linecap="round"/>
<circle cx="29.5" cy="12.5" r="12.5" fill="#EDEDED" style="fill:#EDEDED;fill:color(display-p3 0.9294 0.9294 0.9294);fill-opacity:1;"/>
<circle cx="195.5" cy="12.5" r="12.5" fill="#FFF29D" style="fill:#FFF29D;fill:color(display-p3 1.0000 0.9487 0.6156);fill-opacity:1;"/>
<circle cx="351.5" cy="12.5" r="12.5" fill="#42D32E" style="fill:#42D32E;fill:color(display-p3 0.2578 0.8292 0.1823);fill-opacity:1;"/>
</svg>
