<svg width="512" height="273" viewBox="0 0 512 273" fill="none" xmlns="http://www.w3.org/2000/svg">
<rect x="0.5" y="0.5" width="511" height="272" rx="5.5" fill="white" style="fill:white;fill-opacity:1;"/>
<rect x="0.5" y="0.5" width="511" height="272" rx="5.5" stroke="#E5E5E5" style="stroke:#E5E5E5;stroke:color(display-p3 0.8993 0.8993 0.8993);stroke-opacity:1;"/>
<path d="M30.39 45.324C27.168 45.324 25.26 43.47 25.26 40.194V32.4H27.636V39.834C27.636 42.174 28.59 43.326 30.39 43.326C32.172 43.326 33.144 42.138 33.144 39.834V32.4H35.502V40.194C35.502 43.47 33.594 45.324 30.39 45.324ZM39.9331 48.672H37.7371V36.216H39.9331V36.612C39.9331 36.882 39.9151 37.116 39.8611 37.476C40.4191 36.54 41.3551 35.928 42.7411 35.928C45.0631 35.928 46.5931 37.872 46.5931 40.662C46.5931 43.506 44.8831 45.324 42.6511 45.324C41.1751 45.324 40.4191 44.694 39.8611 43.794C39.9151 44.154 39.9331 44.388 39.9331 44.64V48.672ZM42.1111 43.596C43.4611 43.596 44.3611 42.39 44.3611 40.626C44.3611 38.898 43.5151 37.674 42.1111 37.674C40.7971 37.674 39.8431 38.808 39.8431 40.626C39.8431 42.39 40.7791 43.596 42.1111 43.596ZM51.8471 45.324C49.5251 45.324 47.8331 43.74 47.8331 40.644C47.8331 37.494 49.8311 35.928 51.8831 35.928C53.2511 35.928 54.0971 36.63 54.6011 37.476C54.5291 37.152 54.5291 36.882 54.5291 36.612V32.4H56.7251V45H54.5291V44.64C54.5291 44.334 54.5291 44.1 54.6011 43.794C54.2591 44.442 53.4671 45.324 51.8471 45.324ZM52.3691 43.596C53.6831 43.596 54.6551 42.39 54.6551 40.626C54.6551 38.826 53.6831 37.674 52.3691 37.674C51.0551 37.674 50.0651 38.88 50.0651 40.626C50.0651 42.444 51.0551 43.596 52.3691 43.596ZM61.5279 45.324C59.9979 45.324 58.5039 44.316 58.5039 42.588C58.5039 40.608 60.0339 39.924 61.9239 39.672L63.1839 39.51C63.9039 39.42 64.1559 39.15 64.1559 38.718C64.1559 38.106 63.6519 37.566 62.7159 37.566C61.6899 37.566 61.0419 38.142 60.9519 39.06H58.6839C58.8279 37.224 60.3219 35.928 62.5899 35.928C65.2719 35.928 66.3519 37.368 66.3519 39.834V45H64.3179V44.64C64.3179 44.352 64.3539 44.082 64.4079 43.794C63.9399 44.658 63.0399 45.324 61.5279 45.324ZM62.1219 43.704C63.2919 43.704 64.2279 42.84 64.2279 41.598V40.644C64.0299 40.824 63.7239 40.914 63.1839 41.022L62.4639 41.166C61.4379 41.364 60.7359 41.706 60.7359 42.498C60.7359 43.272 61.3479 43.704 62.1219 43.704ZM72.2638 45.162C70.3918 45.162 69.4018 44.226 69.4018 42.264V37.962H67.4038V36.216H69.4018V33.048H71.5978V36.216H73.7578V37.962H71.5978V41.94C71.5978 42.858 71.9578 43.398 72.8938 43.398C73.1098 43.398 73.3438 43.38 73.5598 43.344V45C73.3438 45.072 72.8218 45.162 72.2638 45.162ZM79.1038 45.324C76.4758 45.324 74.6218 43.632 74.6218 40.59C74.6218 37.818 76.4758 35.928 79.0318 35.928C81.7138 35.928 83.2618 37.8 83.2618 40.662V41.148H76.8718C76.8898 42.534 77.7718 43.596 79.1038 43.596C80.0578 43.596 80.8318 43.056 80.9758 42.138H83.2078C83.0278 43.938 81.4798 45.324 79.1038 45.324ZM76.8538 39.564H81.0118C80.9758 38.376 80.2018 37.566 79.0138 37.566C77.8258 37.566 76.9798 38.412 76.8538 39.564ZM92.3115 45.324C89.8275 45.324 88.2975 44.028 88.1535 41.976H90.3855C90.4395 43.02 91.0875 43.686 92.2575 43.686C93.2475 43.686 93.8775 43.218 93.8775 42.552C93.8775 41.958 93.3735 41.688 92.4375 41.508L91.3755 41.292C89.5395 40.932 88.4955 40.068 88.4955 38.61C88.4955 37.08 89.9355 35.928 92.0955 35.928C94.4535 35.928 95.9295 37.152 95.9835 38.988H93.7875C93.7155 38.124 93.0855 37.566 92.0955 37.566C91.2855 37.566 90.6555 37.89 90.6555 38.52C90.6555 39.042 90.9975 39.312 92.1135 39.528L93.1755 39.744C94.9035 40.086 96.0375 40.878 96.0375 42.426C96.0375 44.1 94.5795 45.324 92.3115 45.324ZM101.531 45.162C99.6593 45.162 98.6693 44.226 98.6693 42.264V37.962H96.6713V36.216H98.6693V33.048H100.865V36.216H103.025V37.962H100.865V41.94C100.865 42.858 101.225 43.398 102.161 43.398C102.377 43.398 102.611 43.38 102.827 43.344V45C102.611 45.072 102.089 45.162 101.531 45.162ZM107.073 45.324C105.543 45.324 104.049 44.316 104.049 42.588C104.049 40.608 105.579 39.924 107.469 39.672L108.729 39.51C109.449 39.42 109.701 39.15 109.701 38.718C109.701 38.106 109.197 37.566 108.261 37.566C107.235 37.566 106.587 38.142 106.497 39.06H104.229C104.373 37.224 105.867 35.928 108.135 35.928C110.817 35.928 111.897 37.368 111.897 39.834V45H109.863V44.64C109.863 44.352 109.899 44.082 109.953 43.794C109.485 44.658 108.585 45.324 107.073 45.324ZM107.667 43.704C108.837 43.704 109.773 42.84 109.773 41.598V40.644C109.575 40.824 109.269 40.914 108.729 41.022L108.009 41.166C106.983 41.364 106.281 41.706 106.281 42.498C106.281 43.272 106.893 43.704 107.667 43.704ZM117.809 45.162C115.937 45.162 114.947 44.226 114.947 42.264V37.962H112.949V36.216H114.947V33.048H117.143V36.216H119.303V37.962H117.143V41.94C117.143 42.858 117.503 43.398 118.439 43.398C118.655 43.398 118.889 43.38 119.105 43.344V45C118.889 45.072 118.367 45.162 117.809 45.162ZM123.836 45.324C122.072 45.324 120.686 44.118 120.686 41.796V36.216H122.9V41.454C122.9 42.678 123.44 43.56 124.502 43.56C125.618 43.56 126.41 42.732 126.41 41.436V36.216H128.606V45H126.428V44.64C126.428 44.37 126.464 44.064 126.518 43.794C126.068 44.64 125.294 45.324 123.836 45.324ZM134.341 45.324C131.857 45.324 130.327 44.028 130.183 41.976H132.415C132.469 43.02 133.117 43.686 134.287 43.686C135.277 43.686 135.907 43.218 135.907 42.552C135.907 41.958 135.403 41.688 134.467 41.508L133.405 41.292C131.569 40.932 130.525 40.068 130.525 38.61C130.525 37.08 131.965 35.928 134.125 35.928C136.483 35.928 137.959 37.152 138.013 38.988H135.817C135.745 38.124 135.115 37.566 134.125 37.566C133.315 37.566 132.685 37.89 132.685 38.52C132.685 39.042 133.027 39.312 134.143 39.528L135.205 39.744C136.933 40.086 138.067 40.878 138.067 42.426C138.067 44.1 136.609 45.324 134.341 45.324ZM146.688 37.962V45H144.492V37.962H142.746V36.216H144.492V35.208C144.492 33.12 145.626 32.076 147.318 32.076C147.876 32.076 148.272 32.166 148.488 32.238V33.966C148.344 33.912 148.128 33.876 147.876 33.876C147.21 33.876 146.688 34.254 146.688 35.028V36.216H148.524V37.962H146.688ZM153.688 45.324C151.042 45.324 149.188 43.56 149.188 40.644C149.188 37.764 151.06 35.928 153.688 35.928C156.334 35.928 158.206 37.764 158.206 40.644C158.206 43.56 156.334 45.324 153.688 45.324ZM153.688 43.596C155.056 43.596 155.974 42.516 155.974 40.644C155.974 38.736 155.038 37.674 153.688 37.674C152.356 37.674 151.42 38.736 151.42 40.644C151.42 42.516 152.32 43.596 153.688 43.596ZM162.136 45H159.94V36.216H162.136V36.882C162.136 37.206 162.118 37.476 162.064 37.8C162.532 36.81 163.324 35.928 164.638 35.928C164.818 35.928 164.962 35.946 165.106 35.982V38.106C164.962 38.07 164.764 38.034 164.476 38.034C163.126 38.034 162.136 38.718 162.136 40.644V45ZM172.231 32.4H174.193V45H171.943V36.216C171.943 35.91 171.961 35.622 172.015 35.334C171.439 36.324 170.467 36.936 169.117 36.99V34.848C170.755 34.614 171.907 33.804 172.231 32.4ZM180.85 45.324C177.97 45.324 176.242 43.614 176.224 41.382H178.51C178.564 42.498 179.392 43.398 180.778 43.398C182.164 43.398 183.244 42.444 183.244 40.842C183.244 39.546 182.452 38.394 180.922 38.394C179.86 38.394 179.05 38.898 178.69 39.708H176.404L177.394 32.4H184.828V34.56H179.068L178.672 37.278C178.636 37.566 178.582 37.782 178.492 38.034C179.104 37.224 180.058 36.486 181.516 36.486C183.91 36.486 185.512 38.376 185.512 40.842C185.512 43.722 183.442 45.324 180.85 45.324ZM194.96 45.324C192.17 45.324 190.514 43.524 190.514 40.608C190.514 37.674 192.512 35.928 195.068 35.928C197.624 35.928 199.01 37.476 199.226 39.528H196.994C196.922 38.538 196.31 37.674 195.068 37.674C193.79 37.674 192.746 38.718 192.746 40.626C192.746 42.372 193.664 43.596 195.014 43.596C196.346 43.596 196.976 42.696 197.084 41.652H199.316C199.01 43.884 197.57 45.324 194.96 45.324ZM203.975 45.324C202.211 45.324 200.825 44.118 200.825 41.796V36.216H203.039V41.454C203.039 42.678 203.579 43.56 204.641 43.56C205.757 43.56 206.549 42.732 206.549 41.436V36.216H208.745V45H206.567V44.64C206.567 44.37 206.603 44.064 206.657 43.794C206.207 44.64 205.433 45.324 203.975 45.324ZM214.48 45.324C211.996 45.324 210.466 44.028 210.322 41.976H212.554C212.608 43.02 213.256 43.686 214.426 43.686C215.416 43.686 216.046 43.218 216.046 42.552C216.046 41.958 215.542 41.688 214.606 41.508L213.544 41.292C211.708 40.932 210.664 40.068 210.664 38.61C210.664 37.08 212.104 35.928 214.264 35.928C216.622 35.928 218.098 37.152 218.152 38.988H215.956C215.884 38.124 215.254 37.566 214.264 37.566C213.454 37.566 212.824 37.89 212.824 38.52C212.824 39.042 213.166 39.312 214.282 39.528L215.344 39.744C217.072 40.086 218.206 40.878 218.206 42.426C218.206 44.1 216.748 45.324 214.48 45.324ZM223.699 45.162C221.827 45.162 220.837 44.226 220.837 42.264V37.962H218.839V36.216H220.837V33.048H223.033V36.216H225.193V37.962H223.033V41.94C223.033 42.858 223.393 43.398 224.329 43.398C224.545 43.398 224.779 43.38 224.995 43.344V45C224.779 45.072 224.257 45.162 223.699 45.162ZM230.557 45.324C227.911 45.324 226.057 43.56 226.057 40.644C226.057 37.764 227.929 35.928 230.557 35.928C233.203 35.928 235.075 37.764 235.075 40.644C235.075 43.56 233.203 45.324 230.557 45.324ZM230.557 43.596C231.925 43.596 232.843 42.516 232.843 40.644C232.843 38.736 231.907 37.674 230.557 37.674C229.225 37.674 228.289 38.736 228.289 40.644C228.289 42.516 229.189 43.596 230.557 43.596ZM239.005 45H236.809V36.216H239.005V36.612C239.005 36.882 238.987 37.188 238.933 37.476C239.365 36.702 240.175 35.928 241.471 35.928C242.569 35.928 243.451 36.774 243.775 37.566C244.279 36.72 245.341 35.928 246.619 35.928C248.401 35.928 249.643 37.332 249.643 39.474V45H247.447V39.798C247.447 38.52 246.943 37.674 245.989 37.674C245.035 37.674 244.315 38.556 244.315 39.888V45H242.119V39.798C242.119 38.52 241.651 37.674 240.661 37.674C239.707 37.674 239.005 38.52 239.005 39.888V45ZM255.782 45.324C253.154 45.324 251.3 43.632 251.3 40.59C251.3 37.818 253.154 35.928 255.71 35.928C258.392 35.928 259.939 37.8 259.939 40.662V41.148H253.55C253.568 42.534 254.45 43.596 255.782 43.596C256.736 43.596 257.51 43.056 257.654 42.138H259.886C259.706 43.938 258.158 45.324 255.782 45.324ZM253.532 39.564H257.69C257.654 38.376 256.88 37.566 255.692 37.566C254.504 37.566 253.658 38.412 253.532 39.564ZM263.896 45H261.7V36.216H263.896V36.882C263.896 37.206 263.878 37.476 263.824 37.8C264.292 36.81 265.084 35.928 266.398 35.928C266.578 35.928 266.722 35.946 266.866 35.982V38.106C266.722 38.07 266.524 38.034 266.236 38.034C264.886 38.034 263.896 38.718 263.896 40.644V45ZM272.091 47.322H270.093C268.941 45.648 267.789 42.93 267.789 39.528C267.789 36.324 268.977 33.408 270.093 31.86H272.109C270.867 33.66 269.859 36.306 269.859 39.492C269.859 42.876 270.885 45.432 272.091 47.322ZM277.04 45.324C274.556 45.324 273.026 44.028 272.882 41.976H275.114C275.168 43.02 275.816 43.686 276.986 43.686C277.976 43.686 278.606 43.218 278.606 42.552C278.606 41.958 278.102 41.688 277.166 41.508L276.104 41.292C274.268 40.932 273.224 40.068 273.224 38.61C273.224 37.08 274.664 35.928 276.824 35.928C279.182 35.928 280.658 37.152 280.712 38.988H278.516C278.444 38.124 277.814 37.566 276.824 37.566C276.014 37.566 275.384 37.89 275.384 38.52C275.384 39.042 275.726 39.312 276.842 39.528L277.904 39.744C279.632 40.086 280.766 40.878 280.766 42.426C280.766 44.1 279.308 45.324 277.04 45.324ZM281.263 31.86H283.261C284.413 33.534 285.565 36.252 285.565 39.654C285.565 42.858 284.377 45.774 283.261 47.322H281.245C282.487 45.522 283.495 42.876 283.495 39.69C283.495 36.306 282.469 33.75 281.263 31.86Z" fill="#0F172A" style="fill:#0F172A;fill:color(display-p3 0.0588 0.0902 0.1647);fill-opacity:1;"/>
<path d="M28.788 76H27.514V67.264H24.126V66.2H32.162V67.264H28.788V76ZM34.5388 76H33.3348V66.2H34.5388V69.588V70.162C34.9028 69.518 35.7008 69.028 36.6108 69.028C38.1648 69.028 39.1028 70.008 39.1028 71.744V76H37.8988V71.898C37.8988 70.624 37.4648 69.98 36.3728 69.98C35.2248 69.98 34.5388 70.876 34.5388 71.94V76ZM43.9288 76.21C41.9128 76.21 40.6528 74.936 40.6528 72.598C40.6528 70.526 42.0108 69.028 43.8588 69.028C45.8748 69.028 46.9808 70.442 46.9808 72.612V72.85H41.8568C41.8848 74.39 42.7808 75.272 43.9428 75.272C44.7688 75.272 45.5528 74.95 45.7208 73.914H46.9108C46.7708 75.104 45.8468 76.21 43.9288 76.21ZM41.8988 71.996H45.6928C45.6928 70.792 45.0348 69.98 43.8588 69.98C42.7248 69.98 41.9828 70.862 41.8988 71.996ZM50.9997 76.21C49.1797 76.21 48.1297 75.216 48.1017 73.774H49.2777C49.3197 74.684 49.9357 75.272 51.0137 75.272C51.9377 75.272 52.5677 74.852 52.5677 74.166C52.5677 73.634 52.2037 73.284 51.3917 73.13L50.3697 72.934C49.1097 72.696 48.3117 72.052 48.3117 71.016C48.3117 69.868 49.4037 69.028 50.9297 69.028C52.5537 69.028 53.5337 69.826 53.6177 71.198H52.4277C52.3297 70.386 51.7557 69.98 50.8457 69.98C50.0337 69.98 49.5157 70.372 49.5157 70.946C49.5157 71.492 49.9077 71.758 50.6637 71.898L51.7137 72.094C52.9317 72.318 53.7577 72.92 53.7577 74.04C53.7577 75.244 52.7217 76.21 50.9997 76.21ZM58.2432 76.21C56.2272 76.21 54.9672 74.936 54.9672 72.598C54.9672 70.526 56.3252 69.028 58.1732 69.028C60.1892 69.028 61.2952 70.442 61.2952 72.612V72.85H56.1712C56.1992 74.39 57.0952 75.272 58.2572 75.272C59.0832 75.272 59.8672 74.95 60.0352 73.914H61.2252C61.0852 75.104 60.1612 76.21 58.2432 76.21ZM56.2132 71.996H60.0072C60.0072 70.792 59.3492 69.98 58.1732 69.98C57.0392 69.98 56.2972 70.862 56.2132 71.996ZM69.1544 76.21C67.2084 76.21 65.8364 74.768 65.8364 72.612C65.8364 70.512 67.2084 69.028 69.1544 69.028C71.0864 69.028 72.4724 70.512 72.4724 72.612C72.4724 74.768 71.0864 76.21 69.1544 76.21ZM69.1544 75.272C70.4424 75.272 71.2264 74.194 71.2264 72.612C71.2264 71.03 70.4144 69.98 69.1544 69.98C67.8944 69.98 67.0824 71.03 67.0824 72.612C67.0824 74.194 67.8664 75.272 69.1544 75.272ZM75.3084 76H74.1044V69.252H75.3084V69.546V70.372C75.6444 69.602 76.3864 69.028 77.4224 69.028C77.5064 69.028 77.6184 69.028 77.7304 69.042V70.232C77.6324 70.218 77.5204 70.204 77.3524 70.204C76.0504 70.204 75.3084 70.932 75.3084 72.43V76ZM81.4815 76.21C79.7175 76.21 78.3735 74.922 78.3735 72.626C78.3735 70.582 79.5915 69.028 81.5095 69.028C82.6295 69.028 83.3715 69.644 83.6795 70.162V69.616V66.2H84.8835V76H83.6795V75.608V75.062C83.3155 75.692 82.4895 76.21 81.4815 76.21ZM81.6915 75.272C82.8955 75.272 83.7635 74.236 83.7635 72.612C83.7635 71.002 82.9095 69.98 81.6915 69.98C80.4735 69.98 79.6195 71.044 79.6195 72.626C79.6195 74.208 80.4595 75.272 81.6915 75.272ZM89.7979 76.21C87.7819 76.21 86.5219 74.936 86.5219 72.598C86.5219 70.526 87.8799 69.028 89.7279 69.028C91.7439 69.028 92.8499 70.442 92.8499 72.612V72.85H87.7259C87.7539 74.39 88.6499 75.272 89.8119 75.272C90.6379 75.272 91.4219 74.95 91.5899 73.914H92.7799C92.6399 75.104 91.7159 76.21 89.7979 76.21ZM87.7679 71.996H91.5619C91.5619 70.792 90.9039 69.98 89.7279 69.98C88.5939 69.98 87.8519 70.862 87.7679 71.996ZM95.7068 76H94.5028V69.252H95.7068V69.546V70.372C96.0428 69.602 96.7848 69.028 97.8208 69.028C97.9048 69.028 98.0168 69.028 98.1288 69.042V70.232C98.0308 70.218 97.9188 70.204 97.7508 70.204C96.4488 70.204 95.7068 70.932 95.7068 72.43V76ZM101.654 76.21C99.834 76.21 98.784 75.216 98.756 73.774H99.932C99.974 74.684 100.59 75.272 101.668 75.272C102.592 75.272 103.222 74.852 103.222 74.166C103.222 73.634 102.858 73.284 102.046 73.13L101.024 72.934C99.764 72.696 98.966 72.052 98.966 71.016C98.966 69.868 100.058 69.028 101.584 69.028C103.208 69.028 104.188 69.826 104.272 71.198H103.082C102.984 70.386 102.41 69.98 101.5 69.98C100.688 69.98 100.17 70.372 100.17 70.946C100.17 71.492 100.562 71.758 101.318 71.898L102.368 72.094C103.586 72.318 104.412 72.92 104.412 74.04C104.412 75.244 103.376 76.21 101.654 76.21ZM110.582 76H109.378V66.2H110.582V69.588V70.162C110.946 69.518 111.744 69.028 112.654 69.028C114.208 69.028 115.146 70.008 115.146 71.744V76H113.942V71.898C113.942 70.624 113.508 69.98 112.416 69.98C111.268 69.98 110.582 70.876 110.582 71.94V76ZM119.048 76.21C117.76 76.21 116.724 75.426 116.724 74.152C116.724 72.85 117.76 72.234 118.964 72.052L120.406 71.828C120.924 71.744 121.092 71.562 121.092 71.156C121.092 70.414 120.518 69.98 119.734 69.98C118.698 69.98 118.166 70.526 118.138 71.366H116.934C116.976 70.134 117.942 69.028 119.636 69.028C121.316 69.028 122.268 70.022 122.268 71.576V76H121.12V75.664V75.09C120.784 75.79 120.056 76.21 119.048 76.21ZM119.216 75.272C120.294 75.272 121.092 74.544 121.092 73.452V72.458C121.008 72.584 120.756 72.682 120.35 72.752L119.37 72.934C118.572 73.088 117.97 73.438 117.97 74.152C117.97 74.852 118.53 75.272 119.216 75.272ZM127.181 76H125.907L123.317 69.252H124.633L126.355 74.138C126.453 74.418 126.509 74.614 126.579 74.796C126.649 74.614 126.705 74.418 126.803 74.138L128.483 69.252H129.743L127.181 76ZM133.685 76.21C131.669 76.21 130.409 74.936 130.409 72.598C130.409 70.526 131.767 69.028 133.615 69.028C135.631 69.028 136.737 70.442 136.737 72.612V72.85H131.613C131.641 74.39 132.537 75.272 133.699 75.272C134.525 75.272 135.309 74.95 135.477 73.914H136.667C136.527 75.104 135.603 76.21 133.685 76.21ZM131.655 71.996H135.449C135.449 70.792 134.791 69.98 133.615 69.98C132.481 69.98 131.739 70.862 131.655 71.996ZM145.114 76.21C144.176 76.21 143.336 75.748 142.916 75.062V75.636V76H141.712V66.2H142.916V69.616V70.162C143.35 69.56 144.12 69.028 145.142 69.028C147.102 69.028 148.25 70.568 148.25 72.626C148.25 74.74 147.018 76.21 145.114 76.21ZM144.918 75.272C146.164 75.272 146.99 74.194 146.99 72.626C146.99 71.072 146.178 69.98 144.918 69.98C143.7 69.98 142.846 70.974 142.846 72.612C142.846 74.194 143.7 75.272 144.918 75.272ZM152.716 76.21C150.7 76.21 149.44 74.936 149.44 72.598C149.44 70.526 150.798 69.028 152.646 69.028C154.662 69.028 155.768 70.442 155.768 72.612V72.85H150.644C150.672 74.39 151.568 75.272 152.73 75.272C153.556 75.272 154.34 74.95 154.508 73.914H155.698C155.558 75.104 154.634 76.21 152.716 76.21ZM150.686 71.996H154.48C154.48 70.792 153.822 69.98 152.646 69.98C151.512 69.98 150.77 70.862 150.686 71.996ZM160.263 76.21C158.247 76.21 156.987 74.936 156.987 72.598C156.987 70.526 158.345 69.028 160.193 69.028C162.209 69.028 163.315 70.442 163.315 72.612V72.85H158.191C158.219 74.39 159.115 75.272 160.277 75.272C161.103 75.272 161.887 74.95 162.055 73.914H163.245C163.105 75.104 162.181 76.21 160.263 76.21ZM158.233 71.996H162.027C162.027 70.792 161.369 69.98 160.193 69.98C159.059 69.98 158.317 70.862 158.233 71.996ZM166.172 76H164.968V69.252H166.158V69.714V70.162C166.522 69.574 167.334 69.028 168.244 69.028C169.798 69.028 170.736 70.008 170.736 71.744V76H169.532V71.898C169.532 70.624 169.112 69.98 168.048 69.98C166.872 69.98 166.172 70.876 166.172 71.94V76ZM177.246 76H176.042V69.252H177.246V69.784V70.162C177.652 69.504 178.338 69.028 179.22 69.028C180.102 69.028 180.858 69.462 181.25 70.358C181.712 69.574 182.482 69.028 183.448 69.028C184.806 69.028 185.814 69.882 185.814 71.73V76H184.61V71.968C184.61 70.694 184.232 69.98 183.196 69.98C182.132 69.98 181.53 70.904 181.53 71.982V76H180.326V72.01C180.326 70.722 179.934 69.98 178.94 69.98C177.89 69.98 177.246 70.918 177.246 72.038V76ZM189.718 76.21C188.43 76.21 187.394 75.426 187.394 74.152C187.394 72.85 188.43 72.234 189.634 72.052L191.076 71.828C191.594 71.744 191.762 71.562 191.762 71.156C191.762 70.414 191.188 69.98 190.404 69.98C189.368 69.98 188.836 70.526 188.808 71.366H187.604C187.646 70.134 188.612 69.028 190.306 69.028C191.986 69.028 192.938 70.022 192.938 71.576V76H191.79V75.664V75.09C191.454 75.79 190.726 76.21 189.718 76.21ZM189.886 75.272C190.964 75.272 191.762 74.544 191.762 73.452V72.458C191.678 72.584 191.426 72.682 191.02 72.752L190.04 72.934C189.242 73.088 188.64 73.438 188.64 74.152C188.64 74.852 189.2 75.272 189.886 75.272ZM196.127 76H194.923V69.252H196.127V69.546V70.372C196.463 69.602 197.205 69.028 198.241 69.028C198.325 69.028 198.437 69.028 198.549 69.042V70.232C198.451 70.218 198.339 70.204 198.171 70.204C196.869 70.204 196.127 70.932 196.127 72.43V76ZM202.38 72.122L205.712 76H204.074L201.554 72.934L200.98 73.494V76H199.776V66.2H200.98V72.122C201.148 71.94 201.33 71.758 201.512 71.59L203.808 69.252H205.32L202.38 72.122ZM209.167 76.21C207.151 76.21 205.891 74.936 205.891 72.598C205.891 70.526 207.249 69.028 209.097 69.028C211.113 69.028 212.219 70.442 212.219 72.612V72.85H207.095C207.123 74.39 208.019 75.272 209.181 75.272C210.007 75.272 210.791 74.95 210.959 73.914H212.149C212.009 75.104 211.085 76.21 209.167 76.21ZM207.137 71.996H210.931C210.931 70.792 210.273 69.98 209.097 69.98C207.963 69.98 207.221 70.862 207.137 71.996ZM216.546 76.21C214.782 76.21 213.438 74.922 213.438 72.626C213.438 70.582 214.656 69.028 216.574 69.028C217.694 69.028 218.436 69.644 218.744 70.162V69.616V66.2H219.948V76H218.744V75.608V75.062C218.38 75.692 217.554 76.21 216.546 76.21ZM216.756 75.272C217.96 75.272 218.828 74.236 218.828 72.612C218.828 71.002 217.974 69.98 216.756 69.98C215.538 69.98 214.684 71.044 214.684 72.626C214.684 74.208 215.524 75.272 216.756 75.272ZM227.261 76.21C225.973 76.21 224.937 75.426 224.937 74.152C224.937 72.85 225.973 72.234 227.177 72.052L228.619 71.828C229.137 71.744 229.305 71.562 229.305 71.156C229.305 70.414 228.731 69.98 227.947 69.98C226.911 69.98 226.379 70.526 226.351 71.366H225.147C225.189 70.134 226.155 69.028 227.849 69.028C229.529 69.028 230.481 70.022 230.481 71.576V76H229.333V75.664V75.09C228.997 75.79 228.269 76.21 227.261 76.21ZM227.429 75.272C228.507 75.272 229.305 74.544 229.305 73.452V72.458C229.221 72.584 228.969 72.682 228.563 72.752L227.583 72.934C226.785 73.088 226.183 73.438 226.183 74.152C226.183 74.852 226.743 75.272 227.429 75.272ZM234.832 76.21C233.012 76.21 231.962 75.216 231.934 73.774H233.11C233.152 74.684 233.768 75.272 234.846 75.272C235.77 75.272 236.4 74.852 236.4 74.166C236.4 73.634 236.036 73.284 235.224 73.13L234.202 72.934C232.942 72.696 232.144 72.052 232.144 71.016C232.144 69.868 233.236 69.028 234.762 69.028C236.386 69.028 237.366 69.826 237.45 71.198H236.26C236.162 70.386 235.588 69.98 234.678 69.98C233.866 69.98 233.348 70.372 233.348 70.946C233.348 71.492 233.74 71.758 234.496 71.898L235.546 72.094C236.764 72.318 237.59 72.92 237.59 74.04C237.59 75.244 236.554 76.21 234.832 76.21ZM244.768 76.252C243.396 76.252 242.318 75.314 242.318 73.508V69.168H244.04V73.242C244.04 74.194 244.46 74.88 245.286 74.88C246.154 74.88 246.77 74.236 246.77 73.228V69.168H248.478V76H246.784V75.72C246.784 75.51 246.812 75.272 246.854 75.062C246.504 75.72 245.902 76.252 244.768 76.252ZM251.916 76H250.208V69.168H251.916V69.476C251.916 69.672 251.902 69.882 251.86 70.148C252.238 69.462 252.882 68.944 253.96 68.944C255.472 68.944 256.368 70.008 256.368 71.688V76H254.66V71.94C254.66 70.932 254.17 70.302 253.372 70.302C252.532 70.302 251.916 71.044 251.916 71.996V76ZM260.772 76.252C258.84 76.252 257.65 75.244 257.538 73.648H259.274C259.316 74.46 259.82 74.978 260.73 74.978C261.5 74.978 261.99 74.614 261.99 74.096C261.99 73.634 261.598 73.424 260.87 73.284L260.044 73.116C258.616 72.836 257.804 72.164 257.804 71.03C257.804 69.84 258.924 68.944 260.604 68.944C262.438 68.944 263.586 69.896 263.628 71.324H261.92C261.864 70.652 261.374 70.218 260.604 70.218C259.974 70.218 259.484 70.47 259.484 70.96C259.484 71.366 259.75 71.576 260.618 71.744L261.444 71.912C262.788 72.178 263.67 72.794 263.67 73.998C263.67 75.3 262.536 76.252 260.772 76.252ZM268.136 76.252C266.092 76.252 264.65 74.936 264.65 72.57C264.65 70.414 266.092 68.944 268.08 68.944C270.166 68.944 271.37 70.4 271.37 72.626V73.004H266.4C266.414 74.082 267.1 74.908 268.136 74.908C268.878 74.908 269.48 74.488 269.592 73.774H271.328C271.188 75.174 269.984 76.252 268.136 76.252ZM266.386 71.772H269.62C269.592 70.848 268.99 70.218 268.066 70.218C267.142 70.218 266.484 70.876 266.386 71.772ZM274.447 76H272.739V69.168H274.447V69.476C274.447 69.672 274.433 69.882 274.391 70.148C274.769 69.462 275.413 68.944 276.491 68.944C278.003 68.944 278.899 70.008 278.899 71.688V76H277.191V71.94C277.191 70.932 276.701 70.302 275.903 70.302C275.063 70.302 274.447 71.044 274.447 71.996V76ZM283.529 76.126C282.073 76.126 281.303 75.398 281.303 73.872V70.526H279.749V69.168H281.303V66.704H283.011V69.168H284.691V70.526H283.011V73.62C283.011 74.334 283.291 74.754 284.019 74.754C284.187 74.754 284.369 74.74 284.537 74.712V76C284.369 76.056 283.963 76.126 283.529 76.126ZM287.461 76H285.865V74.376H287.461V76ZM296.647 76.21C293.847 76.21 291.957 74.25 291.957 71.044C291.957 67.992 293.973 65.976 296.675 65.976C299.041 65.976 300.665 67.446 300.847 69.364H299.447C299.195 67.922 298.215 67.054 296.619 67.054C294.631 67.054 293.301 68.566 293.301 71.044C293.301 73.522 294.673 75.132 296.619 75.132C298.229 75.132 299.265 74.222 299.531 72.836H300.861C300.595 74.922 298.971 76.21 296.647 76.21ZM303.629 76H302.425V66.2H303.629V69.588V70.162C303.993 69.518 304.791 69.028 305.701 69.028C307.255 69.028 308.193 70.008 308.193 71.744V76H306.989V71.898C306.989 70.624 306.555 69.98 305.463 69.98C304.315 69.98 303.629 70.876 303.629 71.94V76ZM312.095 76.21C310.807 76.21 309.771 75.426 309.771 74.152C309.771 72.85 310.807 72.234 312.011 72.052L313.453 71.828C313.971 71.744 314.139 71.562 314.139 71.156C314.139 70.414 313.565 69.98 312.781 69.98C311.745 69.98 311.213 70.526 311.185 71.366H309.981C310.023 70.134 310.989 69.028 312.683 69.028C314.363 69.028 315.315 70.022 315.315 71.576V76H314.167V75.664V75.09C313.831 75.79 313.103 76.21 312.095 76.21ZM312.263 75.272C313.341 75.272 314.139 74.544 314.139 73.452V72.458C314.055 72.584 313.803 72.682 313.397 72.752L312.417 72.934C311.619 73.088 311.017 73.438 311.017 74.152C311.017 74.852 311.577 75.272 312.263 75.272ZM318.504 76H317.3V69.252H318.49V69.714V70.162C318.854 69.574 319.666 69.028 320.576 69.028C322.13 69.028 323.068 70.008 323.068 71.744V76H321.864V71.898C321.864 70.624 321.444 69.98 320.38 69.98C319.204 69.98 318.504 70.876 318.504 71.94V76ZM327.866 79.122C326.088 79.122 324.926 78.128 324.926 76.644H326.116C326.116 77.554 326.788 78.184 327.88 78.184C329.14 78.184 329.91 77.526 329.91 76.084V75.258V74.81C329.56 75.496 328.692 75.93 327.698 75.93C325.836 75.93 324.632 74.586 324.632 72.5C324.632 70.428 325.962 69.028 327.74 69.028C328.86 69.028 329.56 69.602 329.91 70.162V69.616V69.252H331.114V75.664C331.114 77.974 330.022 79.122 327.866 79.122ZM327.936 74.992C329.14 74.992 329.994 73.998 329.994 72.5C329.994 71.03 329.14 69.98 327.936 69.98C326.718 69.98 325.878 71.002 325.878 72.5C325.878 74.012 326.718 74.992 327.936 74.992ZM333.074 67.978V66.536H334.474V67.978H333.074ZM333.186 69.252H334.39V76H333.186V69.252ZM337.672 76H336.468V69.252H337.658V69.714V70.162C338.022 69.574 338.834 69.028 339.744 69.028C341.298 69.028 342.236 70.008 342.236 71.744V76H341.032V71.898C341.032 70.624 340.612 69.98 339.548 69.98C338.372 69.98 337.672 70.876 337.672 71.94V76ZM347.034 79.122C345.256 79.122 344.094 78.128 344.094 76.644H345.284C345.284 77.554 345.956 78.184 347.048 78.184C348.308 78.184 349.078 77.526 349.078 76.084V75.258V74.81C348.728 75.496 347.86 75.93 346.866 75.93C345.004 75.93 343.8 74.586 343.8 72.5C343.8 70.428 345.13 69.028 346.908 69.028C348.028 69.028 348.728 69.602 349.078 70.162V69.616V69.252H350.282V75.664C350.282 77.974 349.19 79.122 347.034 79.122ZM347.104 74.992C348.308 74.992 349.162 73.998 349.162 72.5C349.162 71.03 348.308 69.98 347.104 69.98C345.886 69.98 345.046 71.002 345.046 72.5C345.046 74.012 345.886 74.992 347.104 74.992ZM357.866 76.112C356.858 76.112 355.948 75.622 355.948 74.124V70.246H354.688V69.252H355.948V67.026H357.152V69.252H358.552V70.246H357.152V73.998C357.152 74.782 357.544 75.034 358.146 75.034C358.314 75.034 358.454 75.02 358.65 74.992V76.028C358.398 76.084 358.146 76.112 357.866 76.112ZM361.297 76H360.093V66.2H361.297V69.588V70.162C361.661 69.518 362.459 69.028 363.369 69.028C364.923 69.028 365.861 70.008 365.861 71.744V76H364.657V71.898C364.657 70.624 364.223 69.98 363.131 69.98C361.983 69.98 361.297 70.876 361.297 71.94V76ZM370.687 76.21C368.671 76.21 367.411 74.936 367.411 72.598C367.411 70.526 368.769 69.028 370.617 69.028C372.633 69.028 373.739 70.442 373.739 72.612V72.85H368.615C368.643 74.39 369.539 75.272 370.701 75.272C371.527 75.272 372.311 74.95 372.479 73.914H373.669C373.529 75.104 372.605 76.21 370.687 76.21ZM368.657 71.996H372.451C372.451 70.792 371.793 69.98 370.617 69.98C369.483 69.98 368.741 70.862 368.657 71.996ZM381.08 76.21C379.26 76.21 378.21 75.216 378.182 73.774H379.358C379.4 74.684 380.016 75.272 381.094 75.272C382.018 75.272 382.648 74.852 382.648 74.166C382.648 73.634 382.284 73.284 381.472 73.13L380.45 72.934C379.19 72.696 378.392 72.052 378.392 71.016C378.392 69.868 379.484 69.028 381.01 69.028C382.634 69.028 383.614 69.826 383.698 71.198H382.508C382.41 70.386 381.836 69.98 380.926 69.98C380.114 69.98 379.596 70.372 379.596 70.946C379.596 71.492 379.988 71.758 380.744 71.898L381.794 72.094C383.012 72.318 383.838 72.92 383.838 74.04C383.838 75.244 382.802 76.21 381.08 76.21ZM387.793 76.112C386.785 76.112 385.875 75.622 385.875 74.124V70.246H384.615V69.252H385.875V67.026H387.079V69.252H388.479V70.246H387.079V73.998C387.079 74.782 387.471 75.034 388.073 75.034C388.241 75.034 388.381 75.02 388.577 74.992V76.028C388.325 76.084 388.073 76.112 387.793 76.112ZM391.938 76.21C390.65 76.21 389.614 75.426 389.614 74.152C389.614 72.85 390.65 72.234 391.854 72.052L393.296 71.828C393.814 71.744 393.982 71.562 393.982 71.156C393.982 70.414 393.408 69.98 392.624 69.98C391.588 69.98 391.056 70.526 391.028 71.366H389.824C389.866 70.134 390.832 69.028 392.526 69.028C394.206 69.028 395.158 70.022 395.158 71.576V76H394.01V75.664V75.09C393.674 75.79 392.946 76.21 391.938 76.21ZM392.106 75.272C393.184 75.272 393.982 74.544 393.982 73.452V72.458C393.898 72.584 393.646 72.682 393.24 72.752L392.26 72.934C391.462 73.088 390.86 73.438 390.86 74.152C390.86 74.852 391.42 75.272 392.106 75.272ZM399.469 76.112C398.461 76.112 397.551 75.622 397.551 74.124V70.246H396.291V69.252H397.551V67.026H398.755V69.252H400.155V70.246H398.755V73.998C398.755 74.782 399.147 75.034 399.749 75.034C399.917 75.034 400.057 75.02 400.253 74.992V76.028C400.001 76.084 399.749 76.112 399.469 76.112ZM404.048 76.21C402.466 76.21 401.612 75.258 401.612 73.55V69.252H402.816V73.298C402.816 74.586 403.25 75.272 404.356 75.272C405.462 75.272 406.078 74.432 406.078 72.976V69.252H407.268V76H406.092V75.594V75.062C405.77 75.79 404.944 76.21 404.048 76.21ZM411.705 76.21C409.885 76.21 408.835 75.216 408.807 73.774H409.983C410.025 74.684 410.641 75.272 411.719 75.272C412.643 75.272 413.273 74.852 413.273 74.166C413.273 73.634 412.909 73.284 412.097 73.13L411.075 72.934C409.815 72.696 409.017 72.052 409.017 71.016C409.017 69.868 410.109 69.028 411.635 69.028C413.259 69.028 414.239 69.826 414.323 71.198H413.133C413.035 70.386 412.461 69.98 411.551 69.98C410.739 69.98 410.221 70.372 410.221 70.946C410.221 71.492 410.613 71.758 411.369 71.898L412.419 72.094C413.637 72.318 414.463 72.92 414.463 74.04C414.463 75.244 413.427 76.21 411.705 76.21ZM421.968 76H420.582L418.384 69.252H419.686L421.156 74.25C421.212 74.418 421.268 74.586 421.296 74.712C421.352 74.558 421.408 74.404 421.45 74.25L422.934 69.252H424.432L426 74.25C426.042 74.39 426.084 74.544 426.126 74.656C426.168 74.544 426.21 74.39 426.266 74.222L427.722 69.252H428.94L426.77 76H425.37L423.83 70.904L423.676 70.414C423.62 70.582 423.578 70.736 423.522 70.904L421.968 76ZM430.076 67.978V66.536H431.476V67.978H430.076ZM430.188 69.252H431.392V76H430.188V69.252ZM433.47 66.2H434.674V76H433.47V66.2ZM436.751 66.2H437.955V76H436.751V66.2ZM444.558 76H443.354V69.252H444.558V69.784V70.162C444.964 69.504 445.65 69.028 446.532 69.028C447.414 69.028 448.17 69.462 448.562 70.358C449.024 69.574 449.794 69.028 450.76 69.028C452.118 69.028 453.126 69.882 453.126 71.73V76H451.922V71.968C451.922 70.694 451.544 69.98 450.508 69.98C449.444 69.98 448.842 70.904 448.842 71.982V76H447.638V72.01C447.638 70.722 447.246 69.98 446.252 69.98C445.202 69.98 444.558 70.918 444.558 72.038V76ZM457.03 76.21C455.742 76.21 454.706 75.426 454.706 74.152C454.706 72.85 455.742 72.234 456.946 72.052L458.388 71.828C458.906 71.744 459.074 71.562 459.074 71.156C459.074 70.414 458.5 69.98 457.716 69.98C456.68 69.98 456.148 70.526 456.12 71.366H454.916C454.958 70.134 455.924 69.028 457.618 69.028C459.298 69.028 460.25 70.022 460.25 71.576V76H459.102V75.664V75.09C458.766 75.79 458.038 76.21 457.03 76.21ZM457.198 75.272C458.276 75.272 459.074 74.544 459.074 73.452V72.458C458.99 72.584 458.738 72.682 458.332 72.752L457.352 72.934C456.554 73.088 455.952 73.438 455.952 74.152C455.952 74.852 456.512 75.272 457.198 75.272ZM463.439 76H462.235V69.252H463.439V69.546V70.372C463.775 69.602 464.517 69.028 465.553 69.028C465.637 69.028 465.749 69.028 465.861 69.042V70.232C465.763 70.218 465.651 70.204 465.483 70.204C464.181 70.204 463.439 70.932 463.439 72.43V76ZM469.693 72.122L473.025 76H471.387L468.867 72.934L468.293 73.494V76H467.089V66.2H468.293V72.122C468.461 71.94 468.643 71.758 468.825 71.59L471.121 69.252H472.633L469.693 72.122ZM27.43 96.112C26.422 96.112 25.512 95.622 25.512 94.124V90.246H24.252V89.252H25.512V87.026H26.716V89.252H28.116V90.246H26.716V93.998C26.716 94.782 27.108 95.034 27.71 95.034C27.878 95.034 28.018 95.02 28.214 94.992V96.028C27.962 96.084 27.71 96.112 27.43 96.112ZM30.8611 96H29.6571V86.2H30.8611V89.588V90.162C31.2251 89.518 32.0231 89.028 32.9331 89.028C34.4871 89.028 35.4251 90.008 35.4251 91.744V96H34.2211V91.898C34.2211 90.624 33.7871 89.98 32.6951 89.98C31.5471 89.98 30.8611 90.876 30.8611 91.94V96ZM40.251 96.21C38.235 96.21 36.975 94.936 36.975 92.598C36.975 90.526 38.333 89.028 40.181 89.028C42.197 89.028 43.303 90.442 43.303 92.612V92.85H38.179C38.207 94.39 39.103 95.272 40.265 95.272C41.091 95.272 41.875 94.95 42.043 93.914H43.233C43.093 95.104 42.169 96.21 40.251 96.21ZM38.221 91.996H42.015C42.015 90.792 41.357 89.98 40.181 89.98C39.047 89.98 38.305 90.862 38.221 91.996ZM46.1599 96H44.9559V89.252H46.1599V89.784V90.162C46.5659 89.504 47.2519 89.028 48.1339 89.028C49.0159 89.028 49.7719 89.462 50.1639 90.358C50.6259 89.574 51.3959 89.028 52.3619 89.028C53.7199 89.028 54.7279 89.882 54.7279 91.73V96H53.5239V91.968C53.5239 90.694 53.1459 89.98 52.1099 89.98C51.0459 89.98 50.4439 90.904 50.4439 91.982V96H49.2399V92.01C49.2399 90.722 48.8479 89.98 47.8539 89.98C46.8039 89.98 46.1599 90.918 46.1599 92.038V96ZM61.954 96.21C60.666 96.21 59.63 95.426 59.63 94.152C59.63 92.85 60.666 92.234 61.87 92.052L63.312 91.828C63.83 91.744 63.998 91.562 63.998 91.156C63.998 90.414 63.424 89.98 62.64 89.98C61.604 89.98 61.072 90.526 61.044 91.366H59.84C59.882 90.134 60.848 89.028 62.542 89.028C64.222 89.028 65.174 90.022 65.174 91.576V96H64.026V95.664V95.09C63.69 95.79 62.962 96.21 61.954 96.21ZM62.122 95.272C63.2 95.272 63.998 94.544 63.998 93.452V92.458C63.914 92.584 63.662 92.682 63.256 92.752L62.276 92.934C61.478 93.088 60.876 93.438 60.876 94.152C60.876 94.852 61.436 95.272 62.122 95.272ZM69.525 96.21C67.705 96.21 66.655 95.216 66.627 93.774H67.803C67.845 94.684 68.461 95.272 69.539 95.272C70.463 95.272 71.093 94.852 71.093 94.166C71.093 93.634 70.729 93.284 69.917 93.13L68.895 92.934C67.635 92.696 66.837 92.052 66.837 91.016C66.837 89.868 67.929 89.028 69.455 89.028C71.079 89.028 72.059 89.826 72.143 91.198H70.953C70.855 90.386 70.281 89.98 69.371 89.98C68.559 89.98 68.041 90.372 68.041 90.946C68.041 91.492 68.433 91.758 69.189 91.898L70.239 92.094C71.457 92.318 72.283 92.92 72.283 94.04C72.283 95.244 71.247 96.21 69.525 96.21ZM78.7889 98.856H77.0809V89.168H78.7889V89.476C78.7889 89.686 78.7749 89.868 78.7329 90.148C79.1669 89.42 79.8949 88.944 80.9729 88.944C82.7789 88.944 83.9689 90.456 83.9689 92.626C83.9689 94.838 82.6389 96.252 80.9029 96.252C79.7549 96.252 79.1669 95.762 78.7329 95.062C78.7749 95.342 78.7889 95.524 78.7889 95.72V98.856ZM80.4829 94.908C81.5329 94.908 82.2329 93.97 82.2329 92.598C82.2329 91.254 81.5749 90.302 80.4829 90.302C79.4609 90.302 78.7189 91.184 78.7189 92.598C78.7189 93.97 79.4469 94.908 80.4829 94.908ZM88.4054 96.252C86.3614 96.252 84.9194 94.936 84.9194 92.57C84.9194 90.414 86.3614 88.944 88.3494 88.944C90.4354 88.944 91.6394 90.4 91.6394 92.626V93.004H86.6694C86.6834 94.082 87.3694 94.908 88.4054 94.908C89.1474 94.908 89.7494 94.488 89.8614 93.774H91.5974C91.4574 95.174 90.2534 96.252 88.4054 96.252ZM86.6554 91.772H89.8894C89.8614 90.848 89.2594 90.218 88.3354 90.218C87.4114 90.218 86.7534 90.876 86.6554 91.772ZM94.7166 96H93.0086V89.168H94.7166V89.476C94.7166 89.672 94.7026 89.882 94.6606 90.148C95.0386 89.462 95.6826 88.944 96.7606 88.944C98.2726 88.944 99.1686 90.008 99.1686 91.688V96H97.4606V91.94C97.4606 90.932 96.9706 90.302 96.1726 90.302C95.3326 90.302 94.7166 91.044 94.7166 91.996V96ZM103.587 96.252C101.781 96.252 100.465 95.02 100.465 92.612C100.465 90.162 102.019 88.944 103.615 88.944C104.679 88.944 105.337 89.49 105.729 90.148C105.673 89.896 105.673 89.686 105.673 89.476V86.2H107.381V96H105.673V95.72C105.673 95.482 105.673 95.3 105.729 95.062C105.463 95.566 104.847 96.252 103.587 96.252ZM103.993 94.908C105.015 94.908 105.771 93.97 105.771 92.598C105.771 91.198 105.015 90.302 103.993 90.302C102.971 90.302 102.201 91.24 102.201 92.598C102.201 94.012 102.971 94.908 103.993 94.908ZM109.086 88.132V86.34H110.864V88.132H109.086ZM109.114 89.168H110.822V96H109.114V89.168ZM114.267 96H112.559V89.168H114.267V89.476C114.267 89.672 114.253 89.882 114.211 90.148C114.589 89.462 115.233 88.944 116.311 88.944C117.823 88.944 118.719 90.008 118.719 91.688V96H117.011V91.94C117.011 90.932 116.521 90.302 115.723 90.302C114.883 90.302 114.267 91.044 114.267 91.996V96ZM123.473 99.108C121.457 99.108 120.309 98.03 120.309 96.476H122.045C122.073 97.288 122.591 97.764 123.515 97.764C124.411 97.764 125.167 97.232 125.167 96.21V95.468C125.167 95.16 125.181 94.88 125.223 94.614C124.817 95.23 124.159 95.748 123.095 95.748C121.317 95.748 120.029 94.502 120.029 92.346C120.029 90.218 121.513 88.944 123.011 88.944C124.215 88.944 124.817 89.434 125.223 90.148C125.181 89.91 125.167 89.728 125.167 89.476V89.168H126.875V95.79C126.875 98.03 125.489 99.108 123.473 99.108ZM123.529 94.39C124.537 94.39 125.265 93.536 125.265 92.346C125.265 91.156 124.537 90.302 123.529 90.302C122.493 90.302 121.765 91.156 121.765 92.346C121.765 93.536 122.493 94.39 123.529 94.39ZM138.064 92.752H131.96V91.73H138.064V92.752ZM144.529 98.912H143.325V89.252H144.529V89.742V90.176C144.907 89.574 145.747 89.028 146.755 89.028C148.701 89.028 149.863 90.554 149.863 92.612C149.863 94.754 148.589 96.21 146.727 96.21C145.761 96.21 144.963 95.748 144.529 95.062V95.622V98.912ZM146.545 95.272C147.791 95.272 148.603 94.18 148.603 92.612C148.603 91.058 147.791 89.98 146.545 89.98C145.327 89.98 144.459 91.002 144.459 92.612C144.459 94.194 145.313 95.272 146.545 95.272ZM152.705 96H151.501V89.252H152.705V89.546V90.372C153.041 89.602 153.783 89.028 154.819 89.028C154.903 89.028 155.015 89.028 155.127 89.042V90.232C155.029 90.218 154.917 90.204 154.749 90.204C153.447 90.204 152.705 90.932 152.705 92.43V96ZM159.032 96.21C157.016 96.21 155.756 94.936 155.756 92.598C155.756 90.526 157.114 89.028 158.962 89.028C160.978 89.028 162.084 90.442 162.084 92.612V92.85H156.96C156.988 94.39 157.884 95.272 159.046 95.272C159.872 95.272 160.656 94.95 160.824 93.914H162.014C161.874 95.104 160.95 96.21 159.032 96.21ZM157.002 91.996H160.796C160.796 90.792 160.138 89.98 158.962 89.98C157.828 89.98 157.086 90.862 157.002 91.996ZM166.103 96.21C164.283 96.21 163.233 95.216 163.205 93.774H164.381C164.423 94.684 165.039 95.272 166.117 95.272C167.041 95.272 167.671 94.852 167.671 94.166C167.671 93.634 167.307 93.284 166.495 93.13L165.473 92.934C164.213 92.696 163.415 92.052 163.415 91.016C163.415 89.868 164.507 89.028 166.033 89.028C167.657 89.028 168.637 89.826 168.721 91.198H167.531C167.433 90.386 166.859 89.98 165.949 89.98C165.137 89.98 164.619 90.372 164.619 90.946C164.619 91.492 165.011 91.758 165.767 91.898L166.817 92.094C168.035 92.318 168.861 92.92 168.861 94.04C168.861 95.244 167.825 96.21 166.103 96.21ZM172.871 96.21C171.051 96.21 170.001 95.216 169.973 93.774H171.149C171.191 94.684 171.807 95.272 172.885 95.272C173.809 95.272 174.439 94.852 174.439 94.166C174.439 93.634 174.075 93.284 173.263 93.13L172.241 92.934C170.981 92.696 170.183 92.052 170.183 91.016C170.183 89.868 171.275 89.028 172.801 89.028C174.425 89.028 175.405 89.826 175.489 91.198H174.299C174.201 90.386 173.627 89.98 172.717 89.98C171.905 89.98 171.387 90.372 171.387 90.946C171.387 91.492 171.779 91.758 172.535 91.898L173.585 92.094C174.803 92.318 175.629 92.92 175.629 94.04C175.629 95.244 174.593 96.21 172.871 96.21ZM177.16 87.978V86.536H178.56V87.978H177.16ZM177.272 89.252H178.476V96H177.272V89.252ZM181.758 96H180.554V89.252H181.744V89.714V90.162C182.108 89.574 182.92 89.028 183.83 89.028C185.384 89.028 186.322 90.008 186.322 91.744V96H185.118V91.898C185.118 90.624 184.698 89.98 183.634 89.98C182.458 89.98 181.758 90.876 181.758 91.94V96ZM191.12 99.122C189.342 99.122 188.18 98.128 188.18 96.644H189.37C189.37 97.554 190.042 98.184 191.134 98.184C192.394 98.184 193.164 97.526 193.164 96.084V95.258V94.81C192.814 95.496 191.946 95.93 190.952 95.93C189.09 95.93 187.886 94.586 187.886 92.5C187.886 90.428 189.216 89.028 190.994 89.028C192.114 89.028 192.814 89.602 193.164 90.162V89.616V89.252H194.368V95.664C194.368 97.974 193.276 99.122 191.12 99.122ZM191.19 94.992C192.394 94.992 193.248 93.998 193.248 92.5C193.248 91.03 192.394 89.98 191.19 89.98C189.972 89.98 189.132 91.002 189.132 92.5C189.132 94.012 189.972 94.992 191.19 94.992ZM202.675 96.21C200.841 96.21 199.329 95.006 199.329 92.612C199.329 90.484 200.813 89.028 202.731 89.028C204.327 89.028 205.531 89.994 205.671 91.52H204.425C204.313 90.638 203.711 89.98 202.703 89.98C201.415 89.98 200.575 91.114 200.575 92.612C200.575 94.222 201.429 95.272 202.731 95.272C203.725 95.272 204.397 94.698 204.523 93.732H205.713C205.587 95.202 204.523 96.21 202.675 96.21ZM210.139 96.21C208.193 96.21 206.821 94.768 206.821 92.612C206.821 90.512 208.193 89.028 210.139 89.028C212.071 89.028 213.457 90.512 213.457 92.612C213.457 94.768 212.071 96.21 210.139 96.21ZM210.139 95.272C211.427 95.272 212.211 94.194 212.211 92.612C212.211 91.03 211.399 89.98 210.139 89.98C208.879 89.98 208.067 91.03 208.067 92.612C208.067 94.194 208.851 95.272 210.139 95.272ZM216.293 96H215.089V89.252H216.279V89.714V90.162C216.643 89.574 217.455 89.028 218.365 89.028C219.919 89.028 220.857 90.008 220.857 91.744V96H219.653V91.898C219.653 90.624 219.233 89.98 218.169 89.98C216.993 89.98 216.293 90.876 216.293 91.94V96ZM228.344 89.252V96H227.14V90.246H224.494V96H223.29V90.246H222.016V89.252H223.29V88.006C223.29 86.69 224.186 85.976 225.222 85.976C225.516 85.976 225.782 86.046 225.908 86.102V87.124C225.782 87.11 225.628 87.082 225.474 87.082C224.844 87.082 224.494 87.446 224.494 88.09V89.252H228.344ZM227.028 87.978V86.536H228.428V87.978H227.028ZM231.619 96H230.415V89.252H231.619V89.546V90.372C231.955 89.602 232.697 89.028 233.733 89.028C233.817 89.028 233.929 89.028 234.041 89.042V90.232C233.943 90.218 233.831 90.204 233.663 90.204C232.361 90.204 231.619 90.932 231.619 92.43V96ZM236.472 96H235.268V89.252H236.472V89.784V90.162C236.878 89.504 237.564 89.028 238.446 89.028C239.328 89.028 240.084 89.462 240.476 90.358C240.938 89.574 241.708 89.028 242.674 89.028C244.032 89.028 245.04 89.882 245.04 91.73V96H243.836V91.968C243.836 90.694 243.458 89.98 242.422 89.98C241.358 89.98 240.756 90.904 240.756 91.982V96H239.552V92.01C239.552 90.722 239.16 89.98 238.166 89.98C237.116 89.98 236.472 90.918 236.472 92.038V96ZM252.887 96H251.501L249.303 89.252H250.605L252.075 94.25C252.131 94.418 252.187 94.586 252.215 94.712C252.271 94.558 252.327 94.404 252.369 94.25L253.853 89.252H255.351L256.919 94.25C256.961 94.39 257.003 94.544 257.045 94.656C257.087 94.544 257.129 94.39 257.185 94.222L258.641 89.252H259.859L257.689 96H256.289L254.749 90.904L254.595 90.414C254.539 90.582 254.497 90.736 254.441 90.904L252.887 96ZM260.996 87.978V86.536H262.396V87.978H260.996ZM261.108 89.252H262.312V96H261.108V89.252ZM264.39 86.2H265.594V96H264.39V86.2ZM267.671 86.2H268.875V96H267.671V86.2ZM276.64 96.21C274.82 96.21 273.77 95.216 273.742 93.774H274.918C274.96 94.684 275.576 95.272 276.654 95.272C277.578 95.272 278.208 94.852 278.208 94.166C278.208 93.634 277.844 93.284 277.032 93.13L276.01 92.934C274.75 92.696 273.952 92.052 273.952 91.016C273.952 89.868 275.044 89.028 276.57 89.028C278.194 89.028 279.174 89.826 279.258 91.198H278.068C277.97 90.386 277.396 89.98 276.486 89.98C275.674 89.98 275.156 90.372 275.156 90.946C275.156 91.492 275.548 91.758 276.304 91.898L277.354 92.094C278.572 92.318 279.398 92.92 279.398 94.04C279.398 95.244 278.362 96.21 276.64 96.21ZM283.884 96.21C281.868 96.21 280.608 94.936 280.608 92.598C280.608 90.526 281.966 89.028 283.814 89.028C285.83 89.028 286.936 90.442 286.936 92.612V92.85H281.812C281.84 94.39 282.736 95.272 283.898 95.272C284.724 95.272 285.508 94.95 285.676 93.914H286.866C286.726 95.104 285.802 96.21 283.884 96.21ZM281.854 91.996H285.648C285.648 90.792 284.99 89.98 283.814 89.98C282.68 89.98 281.938 90.862 281.854 91.996ZM289.793 96H288.589V89.252H289.779V89.714V90.162C290.143 89.574 290.955 89.028 291.865 89.028C293.419 89.028 294.357 90.008 294.357 91.744V96H293.153V91.898C293.153 90.624 292.733 89.98 291.669 89.98C290.493 89.98 289.793 90.876 289.793 91.94V96ZM299.015 96.21C297.251 96.21 295.907 94.922 295.907 92.626C295.907 90.582 297.125 89.028 299.043 89.028C300.163 89.028 300.905 89.644 301.213 90.162V89.616V86.2H302.417V96H301.213V95.608V95.062C300.849 95.692 300.023 96.21 299.015 96.21ZM299.225 95.272C300.429 95.272 301.297 94.236 301.297 92.612C301.297 91.002 300.443 89.98 299.225 89.98C298.007 89.98 297.153 91.044 297.153 92.626C297.153 94.208 297.993 95.272 299.225 95.272ZM310 96.112C308.992 96.112 308.082 95.622 308.082 94.124V90.246H306.822V89.252H308.082V87.026H309.286V89.252H310.686V90.246H309.286V93.998C309.286 94.782 309.678 95.034 310.28 95.034C310.448 95.034 310.588 95.02 310.784 94.992V96.028C310.532 96.084 310.28 96.112 310 96.112ZM313.431 96H312.227V86.2H313.431V89.588V90.162C313.795 89.518 314.593 89.028 315.503 89.028C317.057 89.028 317.995 90.008 317.995 91.744V96H316.791V91.898C316.791 90.624 316.357 89.98 315.265 89.98C314.117 89.98 313.431 90.876 313.431 91.94V96ZM322.821 96.21C320.805 96.21 319.545 94.936 319.545 92.598C319.545 90.526 320.903 89.028 322.751 89.028C324.767 89.028 325.873 90.442 325.873 92.612V92.85H320.749C320.777 94.39 321.673 95.272 322.835 95.272C323.661 95.272 324.445 94.95 324.613 93.914H325.803C325.663 95.104 324.739 96.21 322.821 96.21ZM320.791 91.996H324.585C324.585 90.792 323.927 89.98 322.751 89.98C321.617 89.98 320.875 90.862 320.791 91.996ZM328.73 96H327.526V89.252H328.73V89.784V90.162C329.136 89.504 329.822 89.028 330.704 89.028C331.586 89.028 332.342 89.462 332.734 90.358C333.196 89.574 333.966 89.028 334.932 89.028C336.29 89.028 337.298 89.882 337.298 91.73V96H336.094V91.968C336.094 90.694 335.716 89.98 334.68 89.98C333.616 89.98 333.014 90.904 333.014 91.982V96H331.81V92.01C331.81 90.722 331.418 89.98 330.424 89.98C329.374 89.98 328.73 90.918 328.73 92.038V96ZM344.524 96.21C343.236 96.21 342.2 95.426 342.2 94.152C342.2 92.85 343.236 92.234 344.44 92.052L345.882 91.828C346.4 91.744 346.568 91.562 346.568 91.156C346.568 90.414 345.994 89.98 345.21 89.98C344.174 89.98 343.642 90.526 343.614 91.366H342.41C342.452 90.134 343.418 89.028 345.112 89.028C346.792 89.028 347.744 90.022 347.744 91.576V96H346.596V95.664V95.09C346.26 95.79 345.532 96.21 344.524 96.21ZM344.692 95.272C345.77 95.272 346.568 94.544 346.568 93.452V92.458C346.484 92.584 346.232 92.682 345.826 92.752L344.846 92.934C344.048 93.088 343.446 93.438 343.446 94.152C343.446 94.852 344.006 95.272 344.692 95.272ZM350.933 96H349.729V89.252H350.919V89.714V90.162C351.283 89.574 352.095 89.028 353.005 89.028C354.559 89.028 355.497 90.008 355.497 91.744V96H354.293V91.898C354.293 90.624 353.873 89.98 352.809 89.98C351.633 89.98 350.933 90.876 350.933 91.94V96ZM362.722 96.21C361.434 96.21 360.398 95.426 360.398 94.152C360.398 92.85 361.434 92.234 362.638 92.052L364.08 91.828C364.598 91.744 364.766 91.562 364.766 91.156C364.766 90.414 364.192 89.98 363.408 89.98C362.372 89.98 361.84 90.526 361.812 91.366H360.608C360.65 90.134 361.616 89.028 363.31 89.028C364.99 89.028 365.942 90.022 365.942 91.576V96H364.794V95.664V95.09C364.458 95.79 363.73 96.21 362.722 96.21ZM362.89 95.272C363.968 95.272 364.766 94.544 364.766 93.452V92.458C364.682 92.584 364.43 92.682 364.024 92.752L363.044 92.934C362.246 93.088 361.644 93.438 361.644 94.152C361.644 94.852 362.204 95.272 362.89 95.272ZM370.279 96.21C368.697 96.21 367.843 95.258 367.843 93.55V89.252H369.047V93.298C369.047 94.586 369.481 95.272 370.587 95.272C371.693 95.272 372.309 94.432 372.309 92.976V89.252H373.499V96H372.323V95.594V95.062C372.001 95.79 371.175 96.21 370.279 96.21ZM377.963 96.112C376.955 96.112 376.045 95.622 376.045 94.124V90.246H374.785V89.252H376.045V87.026H377.249V89.252H378.649V90.246H377.249V93.998C377.249 94.782 377.641 95.034 378.243 95.034C378.411 95.034 378.551 95.02 378.747 94.992V96.028C378.495 96.084 378.243 96.112 377.963 96.112ZM382.992 96.21C381.046 96.21 379.674 94.768 379.674 92.612C379.674 90.512 381.046 89.028 382.992 89.028C384.924 89.028 386.31 90.512 386.31 92.612C386.31 94.768 384.924 96.21 382.992 96.21ZM382.992 95.272C384.28 95.272 385.064 94.194 385.064 92.612C385.064 91.03 384.252 89.98 382.992 89.98C381.732 89.98 380.92 91.03 380.92 92.612C380.92 94.194 381.704 95.272 382.992 95.272ZM389.146 96H387.942V89.252H389.146V89.784V90.162C389.552 89.504 390.238 89.028 391.12 89.028C392.002 89.028 392.758 89.462 393.15 90.358C393.612 89.574 394.382 89.028 395.348 89.028C396.706 89.028 397.714 89.882 397.714 91.73V96H396.51V91.968C396.51 90.694 396.132 89.98 395.096 89.98C394.032 89.98 393.43 90.904 393.43 91.982V96H392.226V92.01C392.226 90.722 391.834 89.98 390.84 89.98C389.79 89.98 389.146 90.918 389.146 92.038V96ZM401.618 96.21C400.33 96.21 399.294 95.426 399.294 94.152C399.294 92.85 400.33 92.234 401.534 92.052L402.976 91.828C403.494 91.744 403.662 91.562 403.662 91.156C403.662 90.414 403.088 89.98 402.304 89.98C401.268 89.98 400.736 90.526 400.708 91.366H399.504C399.546 90.134 400.512 89.028 402.206 89.028C403.886 89.028 404.838 90.022 404.838 91.576V96H403.69V95.664V95.09C403.354 95.79 402.626 96.21 401.618 96.21ZM401.786 95.272C402.864 95.272 403.662 94.544 403.662 93.452V92.458C403.578 92.584 403.326 92.682 402.92 92.752L401.94 92.934C401.142 93.088 400.54 93.438 400.54 94.152C400.54 94.852 401.1 95.272 401.786 95.272ZM409.149 96.112C408.141 96.112 407.231 95.622 407.231 94.124V90.246H405.971V89.252H407.231V87.026H408.435V89.252H409.835V90.246H408.435V93.998C408.435 94.782 408.827 95.034 409.429 95.034C409.597 95.034 409.737 95.02 409.933 94.992V96.028C409.681 96.084 409.429 96.112 409.149 96.112ZM414.136 96.21C412.12 96.21 410.86 94.936 410.86 92.598C410.86 90.526 412.218 89.028 414.066 89.028C416.082 89.028 417.188 90.442 417.188 92.612V92.85H412.064C412.092 94.39 412.988 95.272 414.15 95.272C414.976 95.272 415.76 94.95 415.928 93.914H417.118C416.978 95.104 416.054 96.21 414.136 96.21ZM412.106 91.996H415.9C415.9 90.792 415.242 89.98 414.066 89.98C412.932 89.98 412.19 90.862 412.106 91.996ZM421.515 96.21C419.751 96.21 418.407 94.922 418.407 92.626C418.407 90.582 419.625 89.028 421.543 89.028C422.663 89.028 423.405 89.644 423.713 90.162V89.616V86.2H424.917V96H423.713V95.608V95.062C423.349 95.692 422.523 96.21 421.515 96.21ZM421.725 95.272C422.929 95.272 423.797 94.236 423.797 92.612C423.797 91.002 422.943 89.98 421.725 89.98C420.507 89.98 419.653 91.044 419.653 92.626C419.653 94.208 420.493 95.272 421.725 95.272ZM433.153 96.21C431.137 96.21 429.877 94.936 429.877 92.598C429.877 90.526 431.235 89.028 433.083 89.028C435.099 89.028 436.205 90.442 436.205 92.612V92.85H431.081C431.109 94.39 432.005 95.272 433.167 95.272C433.993 95.272 434.777 94.95 434.945 93.914H436.135C435.995 95.104 435.071 96.21 433.153 96.21ZM431.123 91.996H434.917C434.917 90.792 434.259 89.98 433.083 89.98C431.949 89.98 431.207 90.862 431.123 91.996ZM439.062 96H437.858V89.252H439.062V89.784V90.162C439.468 89.504 440.154 89.028 441.036 89.028C441.918 89.028 442.674 89.462 443.066 90.358C443.528 89.574 444.298 89.028 445.264 89.028C446.622 89.028 447.63 89.882 447.63 91.73V96H446.426V91.968C446.426 90.694 446.048 89.98 445.012 89.98C443.948 89.98 443.346 90.904 443.346 91.982V96H442.142V92.01C442.142 90.722 441.75 89.98 440.756 89.98C439.706 89.98 439.062 90.918 439.062 92.038V96ZM451.534 96.21C450.246 96.21 449.21 95.426 449.21 94.152C449.21 92.85 450.246 92.234 451.45 92.052L452.892 91.828C453.41 91.744 453.578 91.562 453.578 91.156C453.578 90.414 453.004 89.98 452.22 89.98C451.184 89.98 450.652 90.526 450.624 91.366H449.42C449.462 90.134 450.428 89.028 452.122 89.028C453.802 89.028 454.754 90.022 454.754 91.576V96H453.606V95.664V95.09C453.27 95.79 452.542 96.21 451.534 96.21ZM451.702 95.272C452.78 95.272 453.578 94.544 453.578 93.452V92.458C453.494 92.584 453.242 92.682 452.836 92.752L451.856 92.934C451.058 93.088 450.456 93.438 450.456 94.152C450.456 94.852 451.016 95.272 451.702 95.272ZM456.627 87.978V86.536H458.027V87.978H456.627ZM456.739 89.252H457.943V96H456.739V89.252ZM460.02 86.2H461.224V96H460.02V86.2ZM26.24 116H25.036V109.252H26.24V109.784V110.162C26.646 109.504 27.332 109.028 28.214 109.028C29.096 109.028 29.852 109.462 30.244 110.358C30.706 109.574 31.476 109.028 32.442 109.028C33.8 109.028 34.808 109.882 34.808 111.73V116H33.604V111.968C33.604 110.694 33.226 109.98 32.19 109.98C31.126 109.98 30.524 110.904 30.524 111.982V116H29.32V112.01C29.32 110.722 28.928 109.98 27.934 109.98C26.884 109.98 26.24 110.918 26.24 112.038V116ZM39.6358 116.21C37.6198 116.21 36.3598 114.936 36.3598 112.598C36.3598 110.526 37.7178 109.028 39.5658 109.028C41.5818 109.028 42.6878 110.442 42.6878 112.612V112.85H37.5638C37.5918 114.39 38.4878 115.272 39.6498 115.272C40.4758 115.272 41.2598 114.95 41.4278 113.914H42.6178C42.4778 115.104 41.5538 116.21 39.6358 116.21ZM37.6058 111.996H41.3998C41.3998 110.792 40.7418 109.98 39.5658 109.98C38.4318 109.98 37.6898 110.862 37.6058 111.996ZM46.7067 116.21C44.8867 116.21 43.8367 115.216 43.8087 113.774H44.9847C45.0267 114.684 45.6427 115.272 46.7207 115.272C47.6447 115.272 48.2747 114.852 48.2747 114.166C48.2747 113.634 47.9107 113.284 47.0987 113.13L46.0767 112.934C44.8167 112.696 44.0187 112.052 44.0187 111.016C44.0187 109.868 45.1107 109.028 46.6367 109.028C48.2607 109.028 49.2407 109.826 49.3247 111.198H48.1347C48.0367 110.386 47.4627 109.98 46.5527 109.98C45.7407 109.98 45.2227 110.372 45.2227 110.946C45.2227 111.492 45.6147 111.758 46.3707 111.898L47.4207 112.094C48.6387 112.318 49.4647 112.92 49.4647 114.04C49.4647 115.244 48.4287 116.21 46.7067 116.21ZM53.4743 116.21C51.6543 116.21 50.6043 115.216 50.5763 113.774H51.7523C51.7943 114.684 52.4103 115.272 53.4883 115.272C54.4123 115.272 55.0423 114.852 55.0423 114.166C55.0423 113.634 54.6783 113.284 53.8663 113.13L52.8443 112.934C51.5843 112.696 50.7863 112.052 50.7863 111.016C50.7863 109.868 51.8783 109.028 53.4043 109.028C55.0283 109.028 56.0083 109.826 56.0923 111.198H54.9023C54.8043 110.386 54.2303 109.98 53.3203 109.98C52.5083 109.98 51.9903 110.372 51.9903 110.946C51.9903 111.492 52.3823 111.758 53.1383 111.898L54.1883 112.094C55.4063 112.318 56.2323 112.92 56.2323 114.04C56.2323 115.244 55.1963 116.21 53.4743 116.21ZM59.7938 116.21C58.5058 116.21 57.4698 115.426 57.4698 114.152C57.4698 112.85 58.5058 112.234 59.7098 112.052L61.1518 111.828C61.6698 111.744 61.8378 111.562 61.8378 111.156C61.8378 110.414 61.2638 109.98 60.4798 109.98C59.4438 109.98 58.9118 110.526 58.8838 111.366H57.6798C57.7218 110.134 58.6878 109.028 60.3818 109.028C62.0618 109.028 63.0138 110.022 63.0138 111.576V116H61.8658V115.664V115.09C61.5298 115.79 60.8018 116.21 59.7938 116.21ZM59.9618 115.272C61.0398 115.272 61.8378 114.544 61.8378 113.452V112.458C61.7538 112.584 61.5018 112.682 61.0958 112.752L60.1158 112.934C59.3178 113.088 58.7158 113.438 58.7158 114.152C58.7158 114.852 59.2758 115.272 59.9618 115.272ZM67.8129 119.122C66.0349 119.122 64.8729 118.128 64.8729 116.644H66.0629C66.0629 117.554 66.7349 118.184 67.8269 118.184C69.0869 118.184 69.8569 117.526 69.8569 116.084V115.258V114.81C69.5069 115.496 68.6389 115.93 67.6449 115.93C65.7829 115.93 64.5789 114.586 64.5789 112.5C64.5789 110.428 65.9089 109.028 67.6869 109.028C68.8069 109.028 69.5069 109.602 69.8569 110.162V109.616V109.252H71.0609V115.664C71.0609 117.974 69.9689 119.122 67.8129 119.122ZM67.8829 114.992C69.0869 114.992 69.9409 113.998 69.9409 112.5C69.9409 111.03 69.0869 109.98 67.8829 109.98C66.6649 109.98 65.8249 111.002 65.8249 112.5C65.8249 114.012 66.6649 114.992 67.8829 114.992ZM75.9757 116.21C73.9597 116.21 72.6997 114.936 72.6997 112.598C72.6997 110.526 74.0577 109.028 75.9057 109.028C77.9217 109.028 79.0277 110.442 79.0277 112.612V112.85H73.9037C73.9317 114.39 74.8277 115.272 75.9897 115.272C76.8157 115.272 77.5997 114.95 77.7677 113.914H78.9577C78.8177 115.104 77.8937 116.21 75.9757 116.21ZM73.9457 111.996H77.7397C77.7397 110.792 77.0817 109.98 75.9057 109.98C74.7717 109.98 74.0297 110.862 73.9457 111.996ZM82.1365 116H80.5405V114.376H82.1365V116Z" fill="#737373" style="fill:#737373;fill:color(display-p3 0.4510 0.4510 0.4510);fill-opacity:1;"/>
<rect x="23.5" y="144.5" width="465" height="41" rx="6.5" fill="white" style="fill:white;fill-opacity:1;"/>
<rect x="23.5" y="144.5" width="465" height="41" rx="6.5" stroke="#CDCDCD" style="stroke:#CDCDCD;stroke:color(display-p3 0.8057 0.8057 0.8057);stroke-opacity:1;"/>
<path d="M40.788 170H39.514V161.264H36.126V160.2H44.162V161.264H40.788V170ZM46.0357 172.912H44.7617L45.9937 169.762L43.2917 163.252H44.6217L46.3017 167.564L46.6237 168.39C46.7217 168.11 46.8197 167.83 46.9177 167.564L48.4017 163.252H49.6617L46.0357 172.912ZM52.0759 172.912H50.8719V163.252H52.0759V163.742V164.176C52.4539 163.574 53.2939 163.028 54.3019 163.028C56.2479 163.028 57.4099 164.554 57.4099 166.612C57.4099 168.754 56.1359 170.21 54.2739 170.21C53.3079 170.21 52.5099 169.748 52.0759 169.062V169.622V172.912ZM54.0919 169.272C55.3379 169.272 56.1499 168.18 56.1499 166.612C56.1499 165.058 55.3379 163.98 54.0919 163.98C52.8739 163.98 52.0059 165.002 52.0059 166.612C52.0059 168.194 52.8599 169.272 54.0919 169.272ZM61.8897 170.21C59.8737 170.21 58.6137 168.936 58.6137 166.598C58.6137 164.526 59.9717 163.028 61.8197 163.028C63.8357 163.028 64.9417 164.442 64.9417 166.612V166.85H59.8177C59.8457 168.39 60.7417 169.272 61.9037 169.272C62.7297 169.272 63.5137 168.95 63.6817 167.914H64.8717C64.7317 169.104 63.8077 170.21 61.8897 170.21ZM59.8597 165.996H63.6537C63.6537 164.792 62.9957 163.98 61.8197 163.98C60.6857 163.98 59.9437 164.862 59.8597 165.996ZM70.795 160.144V160.844C70.431 160.97 70.095 161.278 70.095 162.048V162.23H70.753V163.77H69.283V162.104C69.283 160.802 69.997 160.214 70.795 160.144ZM73.8826 172.912H72.6786V163.252H73.8826V163.742V164.176C74.2606 163.574 75.1006 163.028 76.1086 163.028C78.0546 163.028 79.2166 164.554 79.2166 166.612C79.2166 168.754 77.9426 170.21 76.0806 170.21C75.1146 170.21 74.3166 169.748 73.8826 169.062V169.622V172.912ZM75.8986 169.272C77.1446 169.272 77.9566 168.18 77.9566 166.612C77.9566 165.058 77.1446 163.98 75.8986 163.98C74.6806 163.98 73.8126 165.002 73.8126 166.612C73.8126 168.194 74.6666 169.272 75.8986 169.272ZM83.2064 170.21C81.6244 170.21 80.7704 169.258 80.7704 167.55V163.252H81.9744V167.298C81.9744 168.586 82.4084 169.272 83.5144 169.272C84.6204 169.272 85.2364 168.432 85.2364 166.976V163.252H86.4264V170H85.2504V169.594V169.062C84.9284 169.79 84.1024 170.21 83.2064 170.21ZM90.8629 170.21C89.0429 170.21 87.9929 169.216 87.9649 167.774H89.1409C89.1829 168.684 89.7989 169.272 90.8769 169.272C91.8009 169.272 92.4309 168.852 92.4309 168.166C92.4309 167.634 92.0669 167.284 91.2549 167.13L90.2329 166.934C88.9729 166.696 88.1749 166.052 88.1749 165.016C88.1749 163.868 89.2669 163.028 90.7929 163.028C92.4169 163.028 93.3969 163.826 93.4809 165.198H92.2909C92.1929 164.386 91.6189 163.98 90.7089 163.98C89.8969 163.98 89.3789 164.372 89.3789 164.946C89.3789 165.492 89.7709 165.758 90.5269 165.898L91.5769 166.094C92.7949 166.318 93.6209 166.92 93.6209 168.04C93.6209 169.244 92.5849 170.21 90.8629 170.21ZM96.4685 170H95.2645V160.2H96.4685V163.588V164.162C96.8325 163.518 97.6305 163.028 98.5405 163.028C100.095 163.028 101.033 164.008 101.033 165.744V170H99.8285V165.898C99.8285 164.624 99.3945 163.98 98.3025 163.98C97.1545 163.98 96.4685 164.876 96.4685 165.94V170ZM107.543 170H106.339V163.252H107.529V163.714V164.162C107.893 163.574 108.705 163.028 109.615 163.028C111.169 163.028 112.107 164.008 112.107 165.744V170H110.903V165.898C110.903 164.624 110.483 163.98 109.419 163.98C108.243 163.98 107.543 164.876 107.543 165.94V170ZM116.933 170.21C114.917 170.21 113.657 168.936 113.657 166.598C113.657 164.526 115.015 163.028 116.863 163.028C118.879 163.028 119.985 164.442 119.985 166.612V166.85H114.861C114.889 168.39 115.785 169.272 116.947 169.272C117.773 169.272 118.557 168.95 118.725 167.914H119.915C119.775 169.104 118.851 170.21 116.933 170.21ZM114.903 165.996H118.697C118.697 164.792 118.039 163.98 116.863 163.98C115.729 163.98 114.987 164.862 114.903 165.996ZM124.313 170H122.927L120.729 163.252H122.031L123.501 168.25C123.557 168.418 123.613 168.586 123.641 168.712C123.697 168.558 123.753 168.404 123.795 168.25L125.279 163.252H126.777L128.345 168.25C128.387 168.39 128.429 168.544 128.471 168.656C128.513 168.544 128.555 168.39 128.611 168.222L130.067 163.252H131.285L129.115 170H127.715L126.175 164.904L126.021 164.414C125.965 164.582 125.923 164.736 125.867 164.904L124.313 170ZM138.017 170.21C136.197 170.21 135.147 169.216 135.119 167.774H136.295C136.337 168.684 136.953 169.272 138.031 169.272C138.955 169.272 139.585 168.852 139.585 168.166C139.585 167.634 139.221 167.284 138.409 167.13L137.387 166.934C136.127 166.696 135.329 166.052 135.329 165.016C135.329 163.868 136.421 163.028 137.947 163.028C139.571 163.028 140.551 163.826 140.635 165.198H139.445C139.347 164.386 138.773 163.98 137.863 163.98C137.051 163.98 136.533 164.372 136.533 164.946C136.533 165.492 136.925 165.758 137.681 165.898L138.731 166.094C139.949 166.318 140.775 166.92 140.775 168.04C140.775 169.244 139.739 170.21 138.017 170.21ZM144.731 170.112C143.723 170.112 142.813 169.622 142.813 168.124V164.246H141.553V163.252H142.813V161.026H144.017V163.252H145.417V164.246H144.017V167.998C144.017 168.782 144.409 169.034 145.011 169.034C145.179 169.034 145.319 169.02 145.515 168.992V170.028C145.263 170.084 145.011 170.112 144.731 170.112ZM148.876 170.21C147.588 170.21 146.552 169.426 146.552 168.152C146.552 166.85 147.588 166.234 148.792 166.052L150.234 165.828C150.752 165.744 150.92 165.562 150.92 165.156C150.92 164.414 150.346 163.98 149.562 163.98C148.526 163.98 147.994 164.526 147.966 165.366H146.762C146.804 164.134 147.77 163.028 149.464 163.028C151.144 163.028 152.096 164.022 152.096 165.576V170H150.948V169.664V169.09C150.612 169.79 149.884 170.21 148.876 170.21ZM149.044 169.272C150.122 169.272 150.92 168.544 150.92 167.452V166.458C150.836 166.584 150.584 166.682 150.178 166.752L149.198 166.934C148.4 167.088 147.798 167.438 147.798 168.152C147.798 168.852 148.358 169.272 149.044 169.272ZM156.407 170.112C155.399 170.112 154.489 169.622 154.489 168.124V164.246H153.229V163.252H154.489V161.026H155.693V163.252H157.093V164.246H155.693V167.998C155.693 168.782 156.085 169.034 156.687 169.034C156.855 169.034 156.995 169.02 157.191 168.992V170.028C156.939 170.084 156.687 170.112 156.407 170.112ZM160.986 170.21C159.404 170.21 158.55 169.258 158.55 167.55V163.252H159.754V167.298C159.754 168.586 160.188 169.272 161.294 169.272C162.4 169.272 163.016 168.432 163.016 166.976V163.252H164.206V170H163.03V169.594V169.062C162.708 169.79 161.882 170.21 160.986 170.21ZM168.642 170.21C166.822 170.21 165.772 169.216 165.744 167.774H166.92C166.962 168.684 167.578 169.272 168.656 169.272C169.58 169.272 170.21 168.852 170.21 168.166C170.21 167.634 169.846 167.284 169.034 167.13L168.012 166.934C166.752 166.696 165.954 166.052 165.954 165.016C165.954 163.868 167.046 163.028 168.572 163.028C170.196 163.028 171.176 163.826 171.26 165.198H170.07C169.972 164.386 169.398 163.98 168.488 163.98C167.676 163.98 167.158 164.372 167.158 164.946C167.158 165.492 167.55 165.758 168.306 165.898L169.356 166.094C170.574 166.318 171.4 166.92 171.4 168.04C171.4 169.244 170.364 170.21 168.642 170.21ZM172.575 163.826V163.126C172.939 163 173.275 162.692 173.275 161.922V161.74H172.617V160.2H174.087V161.866C174.087 163.168 173.373 163.756 172.575 163.826ZM180.92 170.112C179.912 170.112 179.002 169.622 179.002 168.124V164.246H177.742V163.252H179.002V161.026H180.206V163.252H181.606V164.246H180.206V167.998C180.206 168.782 180.598 169.034 181.2 169.034C181.368 169.034 181.508 169.02 181.704 168.992V170.028C181.452 170.084 181.2 170.112 180.92 170.112ZM185.949 170.21C184.003 170.21 182.631 168.768 182.631 166.612C182.631 164.512 184.003 163.028 185.949 163.028C187.881 163.028 189.267 164.512 189.267 166.612C189.267 168.768 187.881 170.21 185.949 170.21ZM185.949 169.272C187.237 169.272 188.021 168.194 188.021 166.612C188.021 165.03 187.209 163.98 185.949 163.98C184.689 163.98 183.877 165.03 183.877 166.612C183.877 168.194 184.661 169.272 185.949 169.272ZM197.134 170.21C195.3 170.21 193.788 169.006 193.788 166.612C193.788 164.484 195.272 163.028 197.19 163.028C198.786 163.028 199.99 163.994 200.13 165.52H198.884C198.772 164.638 198.17 163.98 197.162 163.98C195.874 163.98 195.034 165.114 195.034 166.612C195.034 168.222 195.888 169.272 197.19 169.272C198.184 169.272 198.856 168.698 198.982 167.732H200.172C200.046 169.202 198.982 170.21 197.134 170.21ZM204.598 170.21C202.652 170.21 201.28 168.768 201.28 166.612C201.28 164.512 202.652 163.028 204.598 163.028C206.53 163.028 207.916 164.512 207.916 166.612C207.916 168.768 206.53 170.21 204.598 170.21ZM204.598 169.272C205.886 169.272 206.67 168.194 206.67 166.612C206.67 165.03 205.858 163.98 204.598 163.98C203.338 163.98 202.526 165.03 202.526 166.612C202.526 168.194 203.31 169.272 204.598 169.272ZM210.752 170H209.548V163.252H210.738V163.714V164.162C211.102 163.574 211.914 163.028 212.824 163.028C214.378 163.028 215.316 164.008 215.316 165.744V170H214.112V165.898C214.112 164.624 213.692 163.98 212.628 163.98C211.452 163.98 210.752 164.876 210.752 165.94V170ZM222.803 163.252V170H221.599V164.246H218.953V170H217.749V164.246H216.475V163.252H217.749V162.006C217.749 160.69 218.645 159.976 219.681 159.976C219.975 159.976 220.241 160.046 220.367 160.102V161.124C220.241 161.11 220.087 161.082 219.933 161.082C219.303 161.082 218.953 161.446 218.953 162.09V163.252H222.803ZM221.487 161.978V160.536H222.887V161.978H221.487ZM226.078 170H224.874V163.252H226.078V163.546V164.372C226.414 163.602 227.156 163.028 228.192 163.028C228.276 163.028 228.388 163.028 228.5 163.042V164.232C228.402 164.218 228.29 164.204 228.122 164.204C226.82 164.204 226.078 164.932 226.078 166.43V170ZM230.931 170H229.727V163.252H230.931V163.784V164.162C231.337 163.504 232.023 163.028 232.905 163.028C233.787 163.028 234.543 163.462 234.935 164.358C235.397 163.574 236.167 163.028 237.133 163.028C238.491 163.028 239.499 163.882 239.499 165.73V170H238.295V165.968C238.295 164.694 237.917 163.98 236.881 163.98C235.817 163.98 235.215 164.904 235.215 165.982V170H234.011V166.01C234.011 164.722 233.619 163.98 232.625 163.98C231.575 163.98 230.931 164.918 230.931 166.038V170Z" fill="#737373" style="fill:#737373;fill:color(display-p3 0.4510 0.4510 0.4510);fill-opacity:1;"/>
<rect x="321.5" y="209.5" width="75" height="39" rx="5.5" fill="white" style="fill:white;fill-opacity:1;"/>
<rect x="321.5" y="209.5" width="75" height="39" rx="5.5" stroke="#E5E5E5" style="stroke:#E5E5E5;stroke:color(display-p3 0.8993 0.8993 0.8993);stroke-opacity:1;"/>
<path d="M342.334 235.238C339.478 235.238 337.602 233.306 337.602 230.03C337.602 226.936 339.66 224.962 342.39 224.962C344.77 224.962 346.45 226.376 346.66 228.504H345.008C344.798 227.146 343.888 226.278 342.362 226.278C340.5 226.278 339.212 227.692 339.212 230.03C339.212 232.41 340.514 233.908 342.348 233.908C343.874 233.908 344.882 232.984 345.106 231.64H346.688C346.436 233.824 344.812 235.238 342.334 235.238ZM350.057 235.238C348.825 235.238 347.719 234.44 347.719 233.138C347.719 231.71 348.839 231.136 350.169 230.954L351.387 230.772C351.919 230.702 352.101 230.506 352.101 230.128C352.101 229.526 351.625 229.092 350.869 229.092C349.945 229.092 349.427 229.596 349.385 230.366H347.901C347.971 229.036 349.035 227.986 350.771 227.986C352.647 227.986 353.543 229.036 353.543 230.772V235H352.185V234.692C352.185 234.482 352.199 234.286 352.213 234.076C351.863 234.762 351.149 235.238 350.057 235.238ZM350.379 234.132C351.373 234.132 352.129 233.432 352.129 232.396V231.528C352.017 231.668 351.765 231.752 351.359 231.822L350.589 231.976C349.791 232.13 349.217 232.438 349.217 233.096C349.217 233.754 349.735 234.132 350.379 234.132ZM356.812 235H355.356V228.21H356.812V228.588C356.812 228.77 356.798 228.938 356.784 229.148C357.148 228.518 357.876 227.986 358.87 227.986C360.41 227.986 361.32 229.008 361.32 230.716V235H359.864V230.912C359.864 229.778 359.416 229.134 358.478 229.134C357.47 229.134 356.812 229.96 356.812 230.968V235ZM366.145 235.238C364.143 235.238 362.743 233.922 362.743 231.598C362.743 229.386 364.255 227.986 366.215 227.986C368.007 227.986 369.141 229.064 369.295 230.632H367.811C367.727 229.806 367.181 229.134 366.201 229.134C365.053 229.134 364.227 230.114 364.227 231.598C364.227 233.082 365.011 234.09 366.187 234.09C367.209 234.09 367.783 233.446 367.895 232.564H369.351C369.169 234.16 368.077 235.238 366.145 235.238ZM373.719 235.238C371.689 235.238 370.345 233.936 370.345 231.584C370.345 229.47 371.745 227.986 373.663 227.986C375.707 227.986 376.869 229.414 376.869 231.612V231.92H371.815C371.843 233.236 372.627 234.09 373.733 234.09C374.517 234.09 375.203 233.712 375.343 232.844H376.813C376.673 234.132 375.609 235.238 373.719 235.238ZM371.829 230.884H375.343C375.329 229.82 374.699 229.092 373.649 229.092C372.627 229.092 371.927 229.862 371.829 230.884ZM378.38 225.2H379.836V235H378.38V225.2Z" fill="#0F172A" style="fill:#0F172A;fill:color(display-p3 0.0588 0.0902 0.1647);fill-opacity:1;"/>
<rect x="405" y="209" width="83" height="40" rx="6" fill="#838383" style="fill:#838383;fill:color(display-p3 0.5147 0.5147 0.5147);fill-opacity:1;"/>
<path d="M426.334 235.238C423.478 235.238 421.602 233.306 421.602 230.03C421.602 226.936 423.66 224.962 426.39 224.962C428.77 224.962 430.45 226.376 430.66 228.504H429.008C428.798 227.146 427.888 226.278 426.362 226.278C424.5 226.278 423.212 227.692 423.212 230.03C423.212 232.41 424.514 233.908 426.348 233.908C427.874 233.908 428.882 232.984 429.106 231.64H430.688C430.436 233.824 428.812 235.238 426.334 235.238ZM435.093 235.238C433.091 235.238 431.691 233.824 431.691 231.612C431.691 229.442 433.105 227.986 435.093 227.986C437.095 227.986 438.509 229.442 438.509 231.612C438.509 233.824 437.095 235.238 435.093 235.238ZM435.093 234.09C436.269 234.09 437.025 233.124 437.025 231.612C437.025 230.072 436.255 229.134 435.093 229.134C433.945 229.134 433.175 230.072 433.175 231.612C433.175 233.124 433.917 234.09 435.093 234.09ZM441.469 235H440.013V228.21H441.469V228.588C441.469 228.77 441.455 228.938 441.441 229.148C441.805 228.518 442.533 227.986 443.527 227.986C445.067 227.986 445.977 229.008 445.977 230.716V235H444.521V230.912C444.521 229.778 444.073 229.134 443.135 229.134C442.127 229.134 441.469 229.96 441.469 230.968V235ZM453.827 228.21V235H452.371V229.386H449.809V235H448.353V229.386H447.037V228.21H448.353V227.188C448.353 225.718 449.235 224.962 450.411 224.962C450.775 224.962 451.069 225.032 451.209 225.088V226.264C451.097 226.236 450.929 226.208 450.761 226.208C450.187 226.208 449.809 226.544 449.809 227.16V228.21H453.827ZM452.301 227.048V225.438H453.897V227.048H452.301ZM457.191 235H455.735V228.21H457.191V228.616C457.191 228.882 457.191 229.134 457.163 229.386C457.513 228.616 458.199 227.986 459.221 227.986C459.333 227.986 459.445 227.986 459.557 228.014V229.428C459.459 229.414 459.319 229.386 459.123 229.386C457.947 229.386 457.191 230.016 457.191 231.514V235ZM462.168 235H460.712V228.21H462.168V228.63C462.168 228.798 462.168 228.98 462.14 229.148C462.518 228.518 463.176 227.986 464.114 227.986C464.982 227.986 465.71 228.532 466.032 229.288C466.452 228.56 467.25 227.986 468.23 227.986C469.602 227.986 470.596 228.952 470.596 230.716V235H469.14V230.954C469.14 229.82 468.748 229.134 467.866 229.134C466.956 229.134 466.382 229.946 466.382 230.996V235H464.926V230.982C464.926 229.834 464.548 229.134 463.666 229.134C462.77 229.134 462.168 229.932 462.168 231.024V235Z" fill="white" style="fill:white;fill-opacity:1;"/>
</svg>
