<svg width="512" height="252" viewBox="0 0 512 252" fill="none" xmlns="http://www.w3.org/2000/svg">
<rect x="0.5" y="0.5" width="511" height="251" rx="5.5" fill="white" style="fill:white;fill-opacity:1;"/>
<rect x="0.5" y="0.5" width="511" height="251" rx="5.5" stroke="#E5E5E5" style="stroke:#E5E5E5;stroke:color(display-p3 0.8993 0.8993 0.8993);stroke-opacity:1;"/>
<path d="M30.39 45.324C27.168 45.324 25.26 43.47 25.26 40.194V32.4H27.636V39.834C27.636 42.174 28.59 43.326 30.39 43.326C32.172 43.326 33.144 42.138 33.144 39.834V32.4H35.502V40.194C35.502 43.47 33.594 45.324 30.39 45.324ZM39.9331 48.672H37.7371V36.216H39.9331V36.612C39.9331 36.882 39.9151 37.116 39.8611 37.476C40.4191 36.54 41.3551 35.928 42.7411 35.928C45.0631 35.928 46.5931 37.872 46.5931 40.662C46.5931 43.506 44.8831 45.324 42.6511 45.324C41.1751 45.324 40.4191 44.694 39.8611 43.794C39.9151 44.154 39.9331 44.388 39.9331 44.64V48.672ZM42.1111 43.596C43.4611 43.596 44.3611 42.39 44.3611 40.626C44.3611 38.898 43.5151 37.674 42.1111 37.674C40.7971 37.674 39.8431 38.808 39.8431 40.626C39.8431 42.39 40.7791 43.596 42.1111 43.596ZM51.8471 45.324C49.5251 45.324 47.8331 43.74 47.8331 40.644C47.8331 37.494 49.8311 35.928 51.8831 35.928C53.2511 35.928 54.0971 36.63 54.6011 37.476C54.5291 37.152 54.5291 36.882 54.5291 36.612V32.4H56.7251V45H54.5291V44.64C54.5291 44.334 54.5291 44.1 54.6011 43.794C54.2591 44.442 53.4671 45.324 51.8471 45.324ZM52.3691 43.596C53.6831 43.596 54.6551 42.39 54.6551 40.626C54.6551 38.826 53.6831 37.674 52.3691 37.674C51.0551 37.674 50.0651 38.88 50.0651 40.626C50.0651 42.444 51.0551 43.596 52.3691 43.596ZM61.5279 45.324C59.9979 45.324 58.5039 44.316 58.5039 42.588C58.5039 40.608 60.0339 39.924 61.9239 39.672L63.1839 39.51C63.9039 39.42 64.1559 39.15 64.1559 38.718C64.1559 38.106 63.6519 37.566 62.7159 37.566C61.6899 37.566 61.0419 38.142 60.9519 39.06H58.6839C58.8279 37.224 60.3219 35.928 62.5899 35.928C65.2719 35.928 66.3519 37.368 66.3519 39.834V45H64.3179V44.64C64.3179 44.352 64.3539 44.082 64.4079 43.794C63.9399 44.658 63.0399 45.324 61.5279 45.324ZM62.1219 43.704C63.2919 43.704 64.2279 42.84 64.2279 41.598V40.644C64.0299 40.824 63.7239 40.914 63.1839 41.022L62.4639 41.166C61.4379 41.364 60.7359 41.706 60.7359 42.498C60.7359 43.272 61.3479 43.704 62.1219 43.704ZM72.2638 45.162C70.3918 45.162 69.4018 44.226 69.4018 42.264V37.962H67.4038V36.216H69.4018V33.048H71.5978V36.216H73.7578V37.962H71.5978V41.94C71.5978 42.858 71.9578 43.398 72.8938 43.398C73.1098 43.398 73.3438 43.38 73.5598 43.344V45C73.3438 45.072 72.8218 45.162 72.2638 45.162ZM79.1038 45.324C76.4758 45.324 74.6218 43.632 74.6218 40.59C74.6218 37.818 76.4758 35.928 79.0318 35.928C81.7138 35.928 83.2618 37.8 83.2618 40.662V41.148H76.8718C76.8898 42.534 77.7718 43.596 79.1038 43.596C80.0578 43.596 80.8318 43.056 80.9758 42.138H83.2078C83.0278 43.938 81.4798 45.324 79.1038 45.324ZM76.8538 39.564H81.0118C80.9758 38.376 80.2018 37.566 79.0138 37.566C77.8258 37.566 76.9798 38.412 76.8538 39.564ZM92.3115 45.324C89.8275 45.324 88.2975 44.028 88.1535 41.976H90.3855C90.4395 43.02 91.0875 43.686 92.2575 43.686C93.2475 43.686 93.8775 43.218 93.8775 42.552C93.8775 41.958 93.3735 41.688 92.4375 41.508L91.3755 41.292C89.5395 40.932 88.4955 40.068 88.4955 38.61C88.4955 37.08 89.9355 35.928 92.0955 35.928C94.4535 35.928 95.9295 37.152 95.9835 38.988H93.7875C93.7155 38.124 93.0855 37.566 92.0955 37.566C91.2855 37.566 90.6555 37.89 90.6555 38.52C90.6555 39.042 90.9975 39.312 92.1135 39.528L93.1755 39.744C94.9035 40.086 96.0375 40.878 96.0375 42.426C96.0375 44.1 94.5795 45.324 92.3115 45.324ZM101.531 45.162C99.6593 45.162 98.6693 44.226 98.6693 42.264V37.962H96.6713V36.216H98.6693V33.048H100.865V36.216H103.025V37.962H100.865V41.94C100.865 42.858 101.225 43.398 102.161 43.398C102.377 43.398 102.611 43.38 102.827 43.344V45C102.611 45.072 102.089 45.162 101.531 45.162ZM107.073 45.324C105.543 45.324 104.049 44.316 104.049 42.588C104.049 40.608 105.579 39.924 107.469 39.672L108.729 39.51C109.449 39.42 109.701 39.15 109.701 38.718C109.701 38.106 109.197 37.566 108.261 37.566C107.235 37.566 106.587 38.142 106.497 39.06H104.229C104.373 37.224 105.867 35.928 108.135 35.928C110.817 35.928 111.897 37.368 111.897 39.834V45H109.863V44.64C109.863 44.352 109.899 44.082 109.953 43.794C109.485 44.658 108.585 45.324 107.073 45.324ZM107.667 43.704C108.837 43.704 109.773 42.84 109.773 41.598V40.644C109.575 40.824 109.269 40.914 108.729 41.022L108.009 41.166C106.983 41.364 106.281 41.706 106.281 42.498C106.281 43.272 106.893 43.704 107.667 43.704ZM117.809 45.162C115.937 45.162 114.947 44.226 114.947 42.264V37.962H112.949V36.216H114.947V33.048H117.143V36.216H119.303V37.962H117.143V41.94C117.143 42.858 117.503 43.398 118.439 43.398C118.655 43.398 118.889 43.38 119.105 43.344V45C118.889 45.072 118.367 45.162 117.809 45.162ZM123.836 45.324C122.072 45.324 120.686 44.118 120.686 41.796V36.216H122.9V41.454C122.9 42.678 123.44 43.56 124.502 43.56C125.618 43.56 126.41 42.732 126.41 41.436V36.216H128.606V45H126.428V44.64C126.428 44.37 126.464 44.064 126.518 43.794C126.068 44.64 125.294 45.324 123.836 45.324ZM134.341 45.324C131.857 45.324 130.327 44.028 130.183 41.976H132.415C132.469 43.02 133.117 43.686 134.287 43.686C135.277 43.686 135.907 43.218 135.907 42.552C135.907 41.958 135.403 41.688 134.467 41.508L133.405 41.292C131.569 40.932 130.525 40.068 130.525 38.61C130.525 37.08 131.965 35.928 134.125 35.928C136.483 35.928 137.959 37.152 138.013 38.988H135.817C135.745 38.124 135.115 37.566 134.125 37.566C133.315 37.566 132.685 37.89 132.685 38.52C132.685 39.042 133.027 39.312 134.143 39.528L135.205 39.744C136.933 40.086 138.067 40.878 138.067 42.426C138.067 44.1 136.609 45.324 134.341 45.324ZM146.688 37.962V45H144.492V37.962H142.746V36.216H144.492V35.208C144.492 33.12 145.626 32.076 147.318 32.076C147.876 32.076 148.272 32.166 148.488 32.238V33.966C148.344 33.912 148.128 33.876 147.876 33.876C147.21 33.876 146.688 34.254 146.688 35.028V36.216H148.524V37.962H146.688ZM153.688 45.324C151.042 45.324 149.188 43.56 149.188 40.644C149.188 37.764 151.06 35.928 153.688 35.928C156.334 35.928 158.206 37.764 158.206 40.644C158.206 43.56 156.334 45.324 153.688 45.324ZM153.688 43.596C155.056 43.596 155.974 42.516 155.974 40.644C155.974 38.736 155.038 37.674 153.688 37.674C152.356 37.674 151.42 38.736 151.42 40.644C151.42 42.516 152.32 43.596 153.688 43.596ZM162.136 45H159.94V36.216H162.136V36.882C162.136 37.206 162.118 37.476 162.064 37.8C162.532 36.81 163.324 35.928 164.638 35.928C164.818 35.928 164.962 35.946 165.106 35.982V38.106C164.962 38.07 164.764 38.034 164.476 38.034C163.126 38.034 162.136 38.718 162.136 40.644V45ZM175.237 37.692L181.069 45H177.955L173.671 39.33L172.429 40.626V45H170.107V32.4H172.429V37.728C172.627 37.422 172.897 37.116 173.257 36.738L177.343 32.4H180.349L175.237 37.692ZM183.968 45H181.772V36.216H183.968V36.882C183.968 37.206 183.95 37.476 183.896 37.8C184.364 36.81 185.156 35.928 186.47 35.928C186.65 35.928 186.794 35.946 186.938 35.982V38.106C186.794 38.07 186.596 38.034 186.308 38.034C184.958 38.034 183.968 38.718 183.968 40.644V45ZM188.258 34.884V32.58H190.544V34.884H188.258ZM188.294 36.216H190.49V45H188.294V36.216ZM196.233 45.324C193.749 45.324 192.219 44.028 192.075 41.976H194.307C194.361 43.02 195.009 43.686 196.179 43.686C197.169 43.686 197.799 43.218 197.799 42.552C197.799 41.958 197.295 41.688 196.359 41.508L195.297 41.292C193.461 40.932 192.417 40.068 192.417 38.61C192.417 37.08 193.857 35.928 196.017 35.928C198.375 35.928 199.851 37.152 199.905 38.988H197.709C197.637 38.124 197.007 37.566 196.017 37.566C195.207 37.566 194.577 37.89 194.577 38.52C194.577 39.042 194.919 39.312 196.035 39.528L197.097 39.744C198.825 40.086 199.959 40.878 199.959 42.426C199.959 44.1 198.501 45.324 196.233 45.324Z" fill="#0F172A" style="fill:#0F172A;fill:color(display-p3 0.0588 0.0902 0.1647);fill-opacity:1;"/>
<path d="M27.948 70.652L32.946 76H31.224L27.08 71.534L26.52 72.108V76H25.26V66.2H26.52V70.498C26.702 70.302 26.912 70.106 27.108 69.91L30.706 66.2H32.288L27.948 70.652ZM34.949 76H33.745V69.252H34.949V69.546V70.372C35.285 69.602 36.027 69.028 37.063 69.028C37.147 69.028 37.259 69.028 37.371 69.042V70.232C37.273 70.218 37.161 70.204 36.993 70.204C35.691 70.204 34.949 70.932 34.949 72.43V76ZM38.4865 67.978V66.536H39.8865V67.978H38.4865ZM38.5985 69.252H39.8025V76H38.5985V69.252ZM44.2458 76.21C42.4258 76.21 41.3758 75.216 41.3478 73.774H42.5238C42.5658 74.684 43.1818 75.272 44.2598 75.272C45.1838 75.272 45.8138 74.852 45.8138 74.166C45.8138 73.634 45.4498 73.284 44.6378 73.13L43.6158 72.934C42.3558 72.696 41.5578 72.052 41.5578 71.016C41.5578 69.868 42.6498 69.028 44.1758 69.028C45.7998 69.028 46.7798 69.826 46.8638 71.198H45.6738C45.5758 70.386 45.0018 69.98 44.0918 69.98C43.2798 69.98 42.7618 70.372 42.7618 70.946C42.7618 71.492 43.1538 71.758 43.9098 71.898L44.9597 72.094C46.1778 72.318 47.0038 72.92 47.0038 74.04C47.0038 75.244 45.9678 76.21 44.2458 76.21ZM48.1785 69.826V69.126C48.5425 69 48.8785 68.692 48.8785 67.922V67.74H48.2205V66.2H49.6905V67.866C49.6905 69.168 48.9765 69.756 48.1785 69.826ZM53.3375 76.21C51.5175 76.21 50.4675 75.216 50.4395 73.774H51.6155C51.6575 74.684 52.2735 75.272 53.3515 75.272C54.2755 75.272 54.9055 74.852 54.9055 74.166C54.9055 73.634 54.5415 73.284 53.7295 73.13L52.7075 72.934C51.4475 72.696 50.6495 72.052 50.6495 71.016C50.6495 69.868 51.7415 69.028 53.2675 69.028C54.8915 69.028 55.8715 69.826 55.9555 71.198H54.7655C54.6675 70.386 54.0935 69.98 53.1835 69.98C52.3715 69.98 51.8535 70.372 51.8535 70.946C51.8535 71.492 52.2455 71.758 53.0015 71.898L54.0515 72.094C55.2695 72.318 56.0955 72.92 56.0955 74.04C56.0955 75.244 55.0595 76.21 53.3375 76.21ZM63.9454 76.21C61.9994 76.21 60.6274 74.768 60.6274 72.612C60.6274 70.512 61.9994 69.028 63.9454 69.028C65.8774 69.028 67.2634 70.512 67.2634 72.612C67.2634 74.768 65.8774 76.21 63.9454 76.21ZM63.9454 75.272C65.2334 75.272 66.0174 74.194 66.0174 72.612C66.0174 71.03 65.2054 69.98 63.9454 69.98C62.6854 69.98 61.8734 71.03 61.8734 72.612C61.8734 74.194 62.6574 75.272 63.9454 75.272ZM70.0994 76H68.8954V69.252H70.0994V69.546V70.372C70.4354 69.602 71.1774 69.028 72.2134 69.028C72.2974 69.028 72.4094 69.028 72.5214 69.042V70.232C72.4234 70.218 72.3114 70.204 72.1434 70.204C70.8414 70.204 70.0994 70.932 70.0994 72.43V76ZM76.2725 76.21C74.5085 76.21 73.1645 74.922 73.1645 72.626C73.1645 70.582 74.3825 69.028 76.3005 69.028C77.4205 69.028 78.1625 69.644 78.4705 70.162V69.616V66.2H79.6745V76H78.4705V75.608V75.062C78.1065 75.692 77.2805 76.21 76.2725 76.21ZM76.4825 75.272C77.6865 75.272 78.5545 74.236 78.5545 72.612C78.5545 71.002 77.7005 69.98 76.4825 69.98C75.2645 69.98 74.4105 71.044 74.4105 72.626C74.4105 74.208 75.2505 75.272 76.4825 75.272ZM84.5889 76.21C82.5729 76.21 81.3129 74.936 81.3129 72.598C81.3129 70.526 82.6709 69.028 84.5189 69.028C86.5349 69.028 87.6409 70.442 87.6409 72.612V72.85H82.5169C82.5449 74.39 83.4409 75.272 84.6029 75.272C85.4289 75.272 86.2129 74.95 86.3809 73.914H87.5709C87.4309 75.104 86.5069 76.21 84.5889 76.21ZM82.5589 71.996H86.3529C86.3529 70.792 85.6949 69.98 84.5189 69.98C83.3849 69.98 82.6429 70.862 82.5589 71.996ZM90.4978 76H89.2938V69.252H90.4978V69.546V70.372C90.8338 69.602 91.5758 69.028 92.6118 69.028C92.6958 69.028 92.8078 69.028 92.9198 69.042V70.232C92.8218 70.218 92.7098 70.204 92.5418 70.204C91.2398 70.204 90.4978 70.932 90.4978 72.43V76ZM98.3181 76H97.1141V66.2H98.3181V69.588V70.162C98.6821 69.518 99.4801 69.028 100.39 69.028C101.944 69.028 102.882 70.008 102.882 71.744V76H101.678V71.898C101.678 70.624 101.244 69.98 100.152 69.98C99.0041 69.98 98.3181 70.876 98.3181 71.94V76ZM106.784 76.21C105.496 76.21 104.46 75.426 104.46 74.152C104.46 72.85 105.496 72.234 106.7 72.052L108.142 71.828C108.66 71.744 108.828 71.562 108.828 71.156C108.828 70.414 108.254 69.98 107.47 69.98C106.434 69.98 105.902 70.526 105.874 71.366H104.67C104.712 70.134 105.678 69.028 107.372 69.028C109.052 69.028 110.004 70.022 110.004 71.576V76H108.856V75.664V75.09C108.52 75.79 107.792 76.21 106.784 76.21ZM106.952 75.272C108.03 75.272 108.828 74.544 108.828 73.452V72.458C108.744 72.584 108.492 72.682 108.086 72.752L107.106 72.934C106.308 73.088 105.706 73.438 105.706 74.152C105.706 74.852 106.266 75.272 106.952 75.272ZM114.355 76.21C112.535 76.21 111.485 75.216 111.457 73.774H112.633C112.675 74.684 113.291 75.272 114.369 75.272C115.293 75.272 115.923 74.852 115.923 74.166C115.923 73.634 115.559 73.284 114.747 73.13L113.725 72.934C112.465 72.696 111.667 72.052 111.667 71.016C111.667 69.868 112.759 69.028 114.285 69.028C115.909 69.028 116.889 69.826 116.973 71.198H115.783C115.685 70.386 115.111 69.98 114.201 69.98C113.389 69.98 112.871 70.372 112.871 70.946C112.871 71.492 113.263 71.758 114.019 71.898L115.069 72.094C116.287 72.318 117.113 72.92 117.113 74.04C117.113 75.244 116.077 76.21 114.355 76.21ZM125.481 76.21C124.543 76.21 123.703 75.748 123.283 75.062V75.636V76H122.079V66.2H123.283V69.616V70.162C123.717 69.56 124.487 69.028 125.509 69.028C127.469 69.028 128.617 70.568 128.617 72.626C128.617 74.74 127.385 76.21 125.481 76.21ZM125.285 75.272C126.531 75.272 127.357 74.194 127.357 72.626C127.357 71.072 126.545 69.98 125.285 69.98C124.067 69.98 123.213 70.974 123.213 72.612C123.213 74.194 124.067 75.272 125.285 75.272ZM133.083 76.21C131.067 76.21 129.807 74.936 129.807 72.598C129.807 70.526 131.165 69.028 133.013 69.028C135.029 69.028 136.135 70.442 136.135 72.612V72.85H131.011C131.039 74.39 131.935 75.272 133.097 75.272C133.923 75.272 134.707 74.95 134.875 73.914H136.065C135.925 75.104 135.001 76.21 133.083 76.21ZM131.053 71.996H134.847C134.847 70.792 134.189 69.98 133.013 69.98C131.879 69.98 131.137 70.862 131.053 71.996ZM140.63 76.21C138.614 76.21 137.354 74.936 137.354 72.598C137.354 70.526 138.712 69.028 140.56 69.028C142.576 69.028 143.682 70.442 143.682 72.612V72.85H138.558C138.586 74.39 139.482 75.272 140.644 75.272C141.47 75.272 142.254 74.95 142.422 73.914H143.612C143.472 75.104 142.548 76.21 140.63 76.21ZM138.6 71.996H142.394C142.394 70.792 141.736 69.98 140.56 69.98C139.426 69.98 138.684 70.862 138.6 71.996ZM146.539 76H145.335V69.252H146.525V69.714V70.162C146.889 69.574 147.701 69.028 148.611 69.028C150.165 69.028 151.103 70.008 151.103 71.744V76H149.899V71.898C149.899 70.624 149.479 69.98 148.415 69.98C147.239 69.98 146.539 70.876 146.539 71.94V76ZM157.613 76H156.409V69.252H157.613V69.784V70.162C158.019 69.504 158.705 69.028 159.587 69.028C160.469 69.028 161.225 69.462 161.617 70.358C162.079 69.574 162.849 69.028 163.815 69.028C165.173 69.028 166.181 69.882 166.181 71.73V76H164.977V71.968C164.977 70.694 164.599 69.98 163.563 69.98C162.499 69.98 161.897 70.904 161.897 71.982V76H160.693V72.01C160.693 70.722 160.301 69.98 159.307 69.98C158.257 69.98 157.613 70.918 157.613 72.038V76ZM170.085 76.21C168.797 76.21 167.761 75.426 167.761 74.152C167.761 72.85 168.797 72.234 170.001 72.052L171.443 71.828C171.961 71.744 172.129 71.562 172.129 71.156C172.129 70.414 171.555 69.98 170.771 69.98C169.735 69.98 169.203 70.526 169.175 71.366H167.971C168.013 70.134 168.979 69.028 170.673 69.028C172.353 69.028 173.305 70.022 173.305 71.576V76H172.157V75.664V75.09C171.821 75.79 171.093 76.21 170.085 76.21ZM170.253 75.272C171.331 75.272 172.129 74.544 172.129 73.452V72.458C172.045 72.584 171.793 72.682 171.387 72.752L170.407 72.934C169.609 73.088 169.007 73.438 169.007 74.152C169.007 74.852 169.567 75.272 170.253 75.272ZM176.494 76H175.29V69.252H176.494V69.546V70.372C176.83 69.602 177.572 69.028 178.608 69.028C178.692 69.028 178.804 69.028 178.916 69.042V70.232C178.818 70.218 178.706 70.204 178.538 70.204C177.236 70.204 176.494 70.932 176.494 72.43V76ZM182.747 72.122L186.079 76H184.441L181.921 72.934L181.347 73.494V76H180.143V66.2H181.347V72.122C181.515 71.94 181.697 71.758 181.879 71.59L184.175 69.252H185.687L182.747 72.122ZM189.534 76.21C187.518 76.21 186.258 74.936 186.258 72.598C186.258 70.526 187.616 69.028 189.464 69.028C191.48 69.028 192.586 70.442 192.586 72.612V72.85H187.462C187.49 74.39 188.386 75.272 189.548 75.272C190.374 75.272 191.158 74.95 191.326 73.914H192.516C192.376 75.104 191.452 76.21 189.534 76.21ZM187.504 71.996H191.298C191.298 70.792 190.64 69.98 189.464 69.98C188.33 69.98 187.588 70.862 187.504 71.996ZM196.913 76.21C195.149 76.21 193.805 74.922 193.805 72.626C193.805 70.582 195.023 69.028 196.941 69.028C198.061 69.028 198.803 69.644 199.111 70.162V69.616V66.2H200.315V76H199.111V75.608V75.062C198.747 75.692 197.921 76.21 196.913 76.21ZM197.123 75.272C198.327 75.272 199.195 74.236 199.195 72.612C199.195 71.002 198.341 69.98 197.123 69.98C195.905 69.98 195.051 71.044 195.051 72.626C195.051 74.208 195.891 75.272 197.123 75.272ZM207.628 76.21C206.34 76.21 205.304 75.426 205.304 74.152C205.304 72.85 206.34 72.234 207.544 72.052L208.986 71.828C209.504 71.744 209.672 71.562 209.672 71.156C209.672 70.414 209.098 69.98 208.314 69.98C207.278 69.98 206.746 70.526 206.718 71.366H205.514C205.556 70.134 206.522 69.028 208.216 69.028C209.896 69.028 210.848 70.022 210.848 71.576V76H209.7V75.664V75.09C209.364 75.79 208.636 76.21 207.628 76.21ZM207.796 75.272C208.874 75.272 209.672 74.544 209.672 73.452V72.458C209.588 72.584 209.336 72.682 208.93 72.752L207.95 72.934C207.152 73.088 206.55 73.438 206.55 74.152C206.55 74.852 207.11 75.272 207.796 75.272ZM215.199 76.21C213.379 76.21 212.329 75.216 212.301 73.774H213.477C213.519 74.684 214.135 75.272 215.213 75.272C216.137 75.272 216.767 74.852 216.767 74.166C216.767 73.634 216.403 73.284 215.591 73.13L214.569 72.934C213.309 72.696 212.511 72.052 212.511 71.016C212.511 69.868 213.603 69.028 215.129 69.028C216.753 69.028 217.733 69.826 217.817 71.198H216.627C216.529 70.386 215.955 69.98 215.045 69.98C214.233 69.98 213.715 70.372 213.715 70.946C213.715 71.492 214.107 71.758 214.863 71.898L215.913 72.094C217.131 72.318 217.957 72.92 217.957 74.04C217.957 75.244 216.921 76.21 215.199 76.21ZM225.135 76.252C223.763 76.252 222.685 75.314 222.685 73.508V69.168H224.407V73.242C224.407 74.194 224.827 74.88 225.653 74.88C226.521 74.88 227.137 74.236 227.137 73.228V69.168H228.845V76H227.151V75.72C227.151 75.51 227.179 75.272 227.221 75.062C226.871 75.72 226.269 76.252 225.135 76.252ZM232.283 76H230.575V69.168H232.283V69.476C232.283 69.672 232.269 69.882 232.227 70.148C232.605 69.462 233.249 68.944 234.327 68.944C235.839 68.944 236.735 70.008 236.735 71.688V76H235.027V71.94C235.027 70.932 234.537 70.302 233.739 70.302C232.899 70.302 232.283 71.044 232.283 71.996V76ZM241.139 76.252C239.207 76.252 238.017 75.244 237.905 73.648H239.641C239.683 74.46 240.187 74.978 241.097 74.978C241.867 74.978 242.357 74.614 242.357 74.096C242.357 73.634 241.965 73.424 241.237 73.284L240.411 73.116C238.983 72.836 238.171 72.164 238.171 71.03C238.171 69.84 239.291 68.944 240.971 68.944C242.805 68.944 243.953 69.896 243.995 71.324H242.287C242.231 70.652 241.741 70.218 240.971 70.218C240.341 70.218 239.851 70.47 239.851 70.96C239.851 71.366 240.117 71.576 240.985 71.744L241.811 71.912C243.155 72.178 244.037 72.794 244.037 73.998C244.037 75.3 242.903 76.252 241.139 76.252ZM248.503 76.252C246.459 76.252 245.017 74.936 245.017 72.57C245.017 70.414 246.459 68.944 248.447 68.944C250.533 68.944 251.737 70.4 251.737 72.626V73.004H246.767C246.781 74.082 247.467 74.908 248.503 74.908C249.245 74.908 249.847 74.488 249.959 73.774H251.695C251.555 75.174 250.351 76.252 248.503 76.252ZM246.753 71.772H249.987C249.959 70.848 249.357 70.218 248.433 70.218C247.509 70.218 246.851 70.876 246.753 71.772ZM254.814 76H253.106V69.168H254.814V69.476C254.814 69.672 254.8 69.882 254.758 70.148C255.136 69.462 255.78 68.944 256.858 68.944C258.37 68.944 259.266 70.008 259.266 71.688V76H257.558V71.94C257.558 70.932 257.068 70.302 256.27 70.302C255.43 70.302 254.814 71.044 254.814 71.996V76ZM263.896 76.126C262.44 76.126 261.67 75.398 261.67 73.872V70.526H260.116V69.168H261.67V66.704H263.378V69.168H265.058V70.526H263.378V73.62C263.378 74.334 263.658 74.754 264.386 74.754C264.554 74.754 264.736 74.74 264.904 74.712V76C264.736 76.056 264.33 76.126 263.896 76.126ZM267.828 76H266.232V74.376H267.828V76ZM277.014 76.21C274.214 76.21 272.324 74.25 272.324 71.044C272.324 67.992 274.34 65.976 277.042 65.976C279.408 65.976 281.032 67.446 281.214 69.364H279.814C279.562 67.922 278.582 67.054 276.986 67.054C274.998 67.054 273.668 68.566 273.668 71.044C273.668 73.522 275.04 75.132 276.986 75.132C278.596 75.132 279.632 74.222 279.898 72.836H281.228C280.962 74.922 279.338 76.21 277.014 76.21ZM283.996 76H282.792V66.2H283.996V69.588V70.162C284.36 69.518 285.158 69.028 286.068 69.028C287.622 69.028 288.56 70.008 288.56 71.744V76H287.356V71.898C287.356 70.624 286.922 69.98 285.83 69.98C284.682 69.98 283.996 70.876 283.996 71.94V76ZM292.462 76.21C291.174 76.21 290.138 75.426 290.138 74.152C290.138 72.85 291.174 72.234 292.378 72.052L293.82 71.828C294.338 71.744 294.506 71.562 294.506 71.156C294.506 70.414 293.932 69.98 293.148 69.98C292.112 69.98 291.58 70.526 291.552 71.366H290.348C290.39 70.134 291.356 69.028 293.05 69.028C294.73 69.028 295.682 70.022 295.682 71.576V76H294.534V75.664V75.09C294.198 75.79 293.47 76.21 292.462 76.21ZM292.63 75.272C293.708 75.272 294.506 74.544 294.506 73.452V72.458C294.422 72.584 294.17 72.682 293.764 72.752L292.784 72.934C291.986 73.088 291.384 73.438 291.384 74.152C291.384 74.852 291.944 75.272 292.63 75.272ZM298.871 76H297.667V69.252H298.857V69.714V70.162C299.221 69.574 300.033 69.028 300.943 69.028C302.497 69.028 303.435 70.008 303.435 71.744V76H302.231V71.898C302.231 70.624 301.811 69.98 300.747 69.98C299.571 69.98 298.871 70.876 298.871 71.94V76ZM308.233 79.122C306.455 79.122 305.293 78.128 305.293 76.644H306.483C306.483 77.554 307.155 78.184 308.247 78.184C309.507 78.184 310.277 77.526 310.277 76.084V75.258V74.81C309.927 75.496 309.059 75.93 308.065 75.93C306.203 75.93 304.999 74.586 304.999 72.5C304.999 70.428 306.329 69.028 308.107 69.028C309.227 69.028 309.927 69.602 310.277 70.162V69.616V69.252H311.481V75.664C311.481 77.974 310.389 79.122 308.233 79.122ZM308.303 74.992C309.507 74.992 310.361 73.998 310.361 72.5C310.361 71.03 309.507 69.98 308.303 69.98C307.085 69.98 306.245 71.002 306.245 72.5C306.245 74.012 307.085 74.992 308.303 74.992ZM313.442 67.978V66.536H314.842V67.978H313.442ZM313.554 69.252H314.758V76H313.554V69.252ZM318.039 76H316.835V69.252H318.025V69.714V70.162C318.389 69.574 319.201 69.028 320.111 69.028C321.665 69.028 322.603 70.008 322.603 71.744V76H321.399V71.898C321.399 70.624 320.979 69.98 319.915 69.98C318.739 69.98 318.039 70.876 318.039 71.94V76ZM327.401 79.122C325.623 79.122 324.461 78.128 324.461 76.644H325.651C325.651 77.554 326.323 78.184 327.415 78.184C328.675 78.184 329.445 77.526 329.445 76.084V75.258V74.81C329.095 75.496 328.227 75.93 327.233 75.93C325.371 75.93 324.167 74.586 324.167 72.5C324.167 70.428 325.497 69.028 327.275 69.028C328.395 69.028 329.095 69.602 329.445 70.162V69.616V69.252H330.649V75.664C330.649 77.974 329.557 79.122 327.401 79.122ZM327.471 74.992C328.675 74.992 329.529 73.998 329.529 72.5C329.529 71.03 328.675 69.98 327.471 69.98C326.253 69.98 325.413 71.002 325.413 72.5C325.413 74.012 326.253 74.992 327.471 74.992ZM338.233 76.112C337.225 76.112 336.315 75.622 336.315 74.124V70.246H335.055V69.252H336.315V67.026H337.519V69.252H338.919V70.246H337.519V73.998C337.519 74.782 337.911 75.034 338.513 75.034C338.681 75.034 338.821 75.02 339.017 74.992V76.028C338.765 76.084 338.513 76.112 338.233 76.112ZM341.664 76H340.46V66.2H341.664V69.588V70.162C342.028 69.518 342.826 69.028 343.736 69.028C345.29 69.028 346.228 70.008 346.228 71.744V76H345.024V71.898C345.024 70.624 344.59 69.98 343.498 69.98C342.35 69.98 341.664 70.876 341.664 71.94V76ZM351.054 76.21C349.038 76.21 347.778 74.936 347.778 72.598C347.778 70.526 349.136 69.028 350.984 69.028C353 69.028 354.106 70.442 354.106 72.612V72.85H348.982C349.01 74.39 349.906 75.272 351.068 75.272C351.894 75.272 352.678 74.95 352.846 73.914H354.036C353.896 75.104 352.972 76.21 351.054 76.21ZM349.024 71.996H352.818C352.818 70.792 352.16 69.98 350.984 69.98C349.85 69.98 349.108 70.862 349.024 71.996ZM361.447 76.21C359.627 76.21 358.577 75.216 358.549 73.774H359.725C359.767 74.684 360.383 75.272 361.461 75.272C362.385 75.272 363.015 74.852 363.015 74.166C363.015 73.634 362.651 73.284 361.839 73.13L360.817 72.934C359.557 72.696 358.759 72.052 358.759 71.016C358.759 69.868 359.851 69.028 361.377 69.028C363.001 69.028 363.981 69.826 364.065 71.198H362.875C362.777 70.386 362.203 69.98 361.293 69.98C360.481 69.98 359.963 70.372 359.963 70.946C359.963 71.492 360.355 71.758 361.111 71.898L362.161 72.094C363.379 72.318 364.205 72.92 364.205 74.04C364.205 75.244 363.169 76.21 361.447 76.21ZM368.16 76.112C367.152 76.112 366.242 75.622 366.242 74.124V70.246H364.982V69.252H366.242V67.026H367.446V69.252H368.846V70.246H367.446V73.998C367.446 74.782 367.838 75.034 368.44 75.034C368.608 75.034 368.748 75.02 368.944 74.992V76.028C368.692 76.084 368.44 76.112 368.16 76.112ZM372.306 76.21C371.018 76.21 369.982 75.426 369.982 74.152C369.982 72.85 371.018 72.234 372.222 72.052L373.664 71.828C374.182 71.744 374.35 71.562 374.35 71.156C374.35 70.414 373.776 69.98 372.992 69.98C371.956 69.98 371.424 70.526 371.396 71.366H370.192C370.234 70.134 371.2 69.028 372.894 69.028C374.574 69.028 375.526 70.022 375.526 71.576V76H374.378V75.664V75.09C374.042 75.79 373.314 76.21 372.306 76.21ZM372.474 75.272C373.552 75.272 374.35 74.544 374.35 73.452V72.458C374.266 72.584 374.014 72.682 373.608 72.752L372.628 72.934C371.83 73.088 371.228 73.438 371.228 74.152C371.228 74.852 371.788 75.272 372.474 75.272ZM379.836 76.112C378.828 76.112 377.918 75.622 377.918 74.124V70.246H376.658V69.252H377.918V67.026H379.122V69.252H380.522V70.246H379.122V73.998C379.122 74.782 379.514 75.034 380.116 75.034C380.284 75.034 380.424 75.02 380.62 74.992V76.028C380.368 76.084 380.116 76.112 379.836 76.112ZM384.415 76.21C382.833 76.21 381.979 75.258 381.979 73.55V69.252H383.183V73.298C383.183 74.586 383.617 75.272 384.723 75.272C385.829 75.272 386.445 74.432 386.445 72.976V69.252H387.635V76H386.459V75.594V75.062C386.137 75.79 385.311 76.21 384.415 76.21ZM392.072 76.21C390.252 76.21 389.202 75.216 389.174 73.774H390.35C390.392 74.684 391.008 75.272 392.086 75.272C393.01 75.272 393.64 74.852 393.64 74.166C393.64 73.634 393.276 73.284 392.464 73.13L391.442 72.934C390.182 72.696 389.384 72.052 389.384 71.016C389.384 69.868 390.476 69.028 392.002 69.028C393.626 69.028 394.606 69.826 394.69 71.198H393.5C393.402 70.386 392.828 69.98 391.918 69.98C391.106 69.98 390.588 70.372 390.588 70.946C390.588 71.492 390.98 71.758 391.736 71.898L392.786 72.094C394.004 72.318 394.83 72.92 394.83 74.04C394.83 75.244 393.794 76.21 392.072 76.21ZM402.335 76H400.949L398.751 69.252H400.053L401.523 74.25C401.579 74.418 401.635 74.586 401.663 74.712C401.719 74.558 401.775 74.404 401.817 74.25L403.301 69.252H404.799L406.367 74.25C406.409 74.39 406.451 74.544 406.493 74.656C406.535 74.544 406.577 74.39 406.633 74.222L408.089 69.252H409.307L407.137 76H405.737L404.197 70.904L404.043 70.414C403.987 70.582 403.945 70.736 403.889 70.904L402.335 76ZM410.444 67.978V66.536H411.844V67.978H410.444ZM410.556 69.252H411.76V76H410.556V69.252ZM413.837 66.2H415.041V76H413.837V66.2ZM417.118 66.2H418.322V76H417.118V66.2ZM424.926 76H423.722V69.252H424.926V69.784V70.162C425.332 69.504 426.018 69.028 426.9 69.028C427.782 69.028 428.538 69.462 428.93 70.358C429.392 69.574 430.162 69.028 431.128 69.028C432.486 69.028 433.494 69.882 433.494 71.73V76H432.29V71.968C432.29 70.694 431.912 69.98 430.876 69.98C429.812 69.98 429.21 70.904 429.21 71.982V76H428.006V72.01C428.006 70.722 427.614 69.98 426.62 69.98C425.57 69.98 424.926 70.918 424.926 72.038V76ZM437.397 76.21C436.109 76.21 435.073 75.426 435.073 74.152C435.073 72.85 436.109 72.234 437.313 72.052L438.755 71.828C439.273 71.744 439.441 71.562 439.441 71.156C439.441 70.414 438.867 69.98 438.083 69.98C437.047 69.98 436.515 70.526 436.487 71.366H435.283C435.325 70.134 436.291 69.028 437.985 69.028C439.665 69.028 440.617 70.022 440.617 71.576V76H439.469V75.664V75.09C439.133 75.79 438.405 76.21 437.397 76.21ZM437.565 75.272C438.643 75.272 439.441 74.544 439.441 73.452V72.458C439.357 72.584 439.105 72.682 438.699 72.752L437.719 72.934C436.921 73.088 436.319 73.438 436.319 74.152C436.319 74.852 436.879 75.272 437.565 75.272ZM443.806 76H442.602V69.252H443.806V69.546V70.372C444.142 69.602 444.884 69.028 445.92 69.028C446.004 69.028 446.116 69.028 446.228 69.042V70.232C446.13 70.218 446.018 70.204 445.85 70.204C444.548 70.204 443.806 70.932 443.806 72.43V76ZM450.06 72.122L453.392 76H451.754L449.234 72.934L448.66 73.494V76H447.456V66.2H448.66V72.122C448.828 71.94 449.01 71.758 449.192 71.59L451.488 69.252H453L450.06 72.122ZM459.612 76.112C458.604 76.112 457.694 75.622 457.694 74.124V70.246H456.434V69.252H457.694V67.026H458.898V69.252H460.298V70.246H458.898V73.998C458.898 74.782 459.29 75.034 459.892 75.034C460.06 75.034 460.2 75.02 460.396 74.992V76.028C460.144 76.084 459.892 76.112 459.612 76.112ZM463.043 76H461.839V66.2H463.043V69.588V70.162C463.407 69.518 464.205 69.028 465.115 69.028C466.669 69.028 467.607 70.008 467.607 71.744V76H466.403V71.898C466.403 70.624 465.969 69.98 464.877 69.98C463.729 69.98 463.043 70.876 463.043 71.94V76ZM472.433 76.21C470.417 76.21 469.157 74.936 469.157 72.598C469.157 70.526 470.515 69.028 472.363 69.028C474.379 69.028 475.485 70.442 475.485 72.612V72.85H470.361C470.389 74.39 471.285 75.272 472.447 75.272C473.273 75.272 474.057 74.95 474.225 73.914H475.415C475.275 75.104 474.351 76.21 472.433 76.21ZM470.403 71.996H474.197C474.197 70.792 473.539 69.98 472.363 69.98C471.229 69.98 470.487 70.862 470.403 71.996ZM478.342 76H477.138V69.252H478.342V69.784V70.162C478.748 69.504 479.434 69.028 480.316 69.028C481.198 69.028 481.954 69.462 482.346 70.358C482.808 69.574 483.578 69.028 484.544 69.028C485.902 69.028 486.91 69.882 486.91 71.73V76H485.706V71.968C485.706 70.694 485.328 69.98 484.292 69.98C483.228 69.98 482.626 70.904 482.626 71.982V76H481.422V72.01C481.422 70.722 481.03 69.98 480.036 69.98C478.986 69.98 478.342 70.918 478.342 72.038V76ZM26.954 96.21C25.666 96.21 24.63 95.426 24.63 94.152C24.63 92.85 25.666 92.234 26.87 92.052L28.312 91.828C28.83 91.744 28.998 91.562 28.998 91.156C28.998 90.414 28.424 89.98 27.64 89.98C26.604 89.98 26.072 90.526 26.044 91.366H24.84C24.882 90.134 25.848 89.028 27.542 89.028C29.222 89.028 30.174 90.022 30.174 91.576V96H29.026V95.664V95.09C28.69 95.79 27.962 96.21 26.954 96.21ZM27.122 95.272C28.2 95.272 28.998 94.544 28.998 93.452V92.458C28.914 92.584 28.662 92.682 28.256 92.752L27.276 92.934C26.478 93.088 25.876 93.438 25.876 94.152C25.876 94.852 26.436 95.272 27.122 95.272ZM34.525 96.21C32.705 96.21 31.655 95.216 31.627 93.774H32.803C32.845 94.684 33.461 95.272 34.539 95.272C35.463 95.272 36.093 94.852 36.093 94.166C36.093 93.634 35.729 93.284 34.917 93.13L33.895 92.934C32.635 92.696 31.837 92.052 31.837 91.016C31.837 89.868 32.929 89.028 34.455 89.028C36.079 89.028 37.059 89.826 37.143 91.198H35.953C35.855 90.386 35.281 89.98 34.371 89.98C33.559 89.98 33.041 90.372 33.041 90.946C33.041 91.492 33.433 91.758 34.189 91.898L35.239 92.094C36.457 92.318 37.283 92.92 37.283 94.04C37.283 95.244 36.247 96.21 34.525 96.21ZM43.7889 98.856H42.0809V89.168H43.7889V89.476C43.7889 89.686 43.7749 89.868 43.7329 90.148C44.1669 89.42 44.8949 88.944 45.9729 88.944C47.7789 88.944 48.9689 90.456 48.9689 92.626C48.9689 94.838 47.6389 96.252 45.9029 96.252C44.7549 96.252 44.1669 95.762 43.7329 95.062C43.7749 95.342 43.7889 95.524 43.7889 95.72V98.856ZM45.4829 94.908C46.5329 94.908 47.2329 93.97 47.2329 92.598C47.2329 91.254 46.5749 90.302 45.4829 90.302C44.4609 90.302 43.7189 91.184 43.7189 92.598C43.7189 93.97 44.4469 94.908 45.4829 94.908ZM53.4054 96.252C51.3614 96.252 49.9194 94.936 49.9194 92.57C49.9194 90.414 51.3614 88.944 53.3494 88.944C55.4354 88.944 56.6394 90.4 56.6394 92.626V93.004H51.6694C51.6834 94.082 52.3694 94.908 53.4054 94.908C54.1474 94.908 54.7494 94.488 54.8614 93.774H56.5974C56.4574 95.174 55.2534 96.252 53.4054 96.252ZM51.6554 91.772H54.8894C54.8614 90.848 54.2594 90.218 53.3354 90.218C52.4114 90.218 51.7534 90.876 51.6554 91.772ZM59.7166 96H58.0086V89.168H59.7166V89.476C59.7166 89.672 59.7026 89.882 59.6606 90.148C60.0386 89.462 60.6826 88.944 61.7606 88.944C63.2726 88.944 64.1686 90.008 64.1686 91.688V96H62.4606V91.94C62.4606 90.932 61.9706 90.302 61.1726 90.302C60.3326 90.302 59.7166 91.044 59.7166 91.996V96ZM68.5866 96.252C66.7806 96.252 65.4646 95.02 65.4646 92.612C65.4646 90.162 67.0186 88.944 68.6146 88.944C69.6786 88.944 70.3366 89.49 70.7286 90.148C70.6726 89.896 70.6726 89.686 70.6726 89.476V86.2H72.3806V96H70.6726V95.72C70.6726 95.482 70.6726 95.3 70.7286 95.062C70.4626 95.566 69.8466 96.252 68.5866 96.252ZM68.9926 94.908C70.0146 94.908 70.7706 93.97 70.7706 92.598C70.7706 91.198 70.0146 90.302 68.9926 90.302C67.9706 90.302 67.2006 91.24 67.2006 92.598C67.2006 94.012 67.9706 94.908 68.9926 94.908ZM74.0861 88.132V86.34H75.8641V88.132H74.0861ZM74.1141 89.168H75.8221V96H74.1141V89.168ZM79.2674 96H77.5594V89.168H79.2674V89.476C79.2674 89.672 79.2534 89.882 79.2114 90.148C79.5894 89.462 80.2334 88.944 81.3114 88.944C82.8234 88.944 83.7194 90.008 83.7194 91.688V96H82.0114V91.94C82.0114 90.932 81.5214 90.302 80.7234 90.302C79.8834 90.302 79.2674 91.044 79.2674 91.996V96ZM88.4734 99.108C86.4574 99.108 85.3094 98.03 85.3094 96.476H87.0454C87.0734 97.288 87.5914 97.764 88.5154 97.764C89.4114 97.764 90.1674 97.232 90.1674 96.21V95.468C90.1674 95.16 90.1814 94.88 90.2234 94.614C89.8174 95.23 89.1594 95.748 88.0954 95.748C86.3174 95.748 85.0294 94.502 85.0294 92.346C85.0294 90.218 86.5134 88.944 88.0114 88.944C89.2154 88.944 89.8174 89.434 90.2234 90.148C90.1814 89.91 90.1674 89.728 90.1674 89.476V89.168H91.8754V95.79C91.8754 98.03 90.4894 99.108 88.4734 99.108ZM88.5294 94.39C89.5374 94.39 90.2654 93.536 90.2654 92.346C90.2654 91.156 89.5374 90.302 88.5294 90.302C87.4934 90.302 86.7654 91.156 86.7654 92.346C86.7654 93.536 87.4934 94.39 88.5294 94.39ZM103.064 92.752H96.9605V91.73H103.064V92.752ZM109.529 98.912H108.325V89.252H109.529V89.742V90.176C109.907 89.574 110.747 89.028 111.755 89.028C113.701 89.028 114.863 90.554 114.863 92.612C114.863 94.754 113.589 96.21 111.727 96.21C110.761 96.21 109.963 95.748 109.529 95.062V95.622V98.912ZM111.545 95.272C112.791 95.272 113.603 94.18 113.603 92.612C113.603 91.058 112.791 89.98 111.545 89.98C110.327 89.98 109.459 91.002 109.459 92.612C109.459 94.194 110.313 95.272 111.545 95.272ZM117.705 96H116.501V89.252H117.705V89.546V90.372C118.041 89.602 118.783 89.028 119.819 89.028C119.903 89.028 120.015 89.028 120.127 89.042V90.232C120.029 90.218 119.917 90.204 119.749 90.204C118.447 90.204 117.705 90.932 117.705 92.43V96ZM124.032 96.21C122.016 96.21 120.756 94.936 120.756 92.598C120.756 90.526 122.114 89.028 123.962 89.028C125.978 89.028 127.084 90.442 127.084 92.612V92.85H121.96C121.988 94.39 122.884 95.272 124.046 95.272C124.872 95.272 125.656 94.95 125.824 93.914H127.014C126.874 95.104 125.95 96.21 124.032 96.21ZM122.002 91.996H125.796C125.796 90.792 125.138 89.98 123.962 89.98C122.828 89.98 122.086 90.862 122.002 91.996ZM131.103 96.21C129.283 96.21 128.233 95.216 128.205 93.774H129.381C129.423 94.684 130.039 95.272 131.117 95.272C132.041 95.272 132.671 94.852 132.671 94.166C132.671 93.634 132.307 93.284 131.495 93.13L130.473 92.934C129.213 92.696 128.415 92.052 128.415 91.016C128.415 89.868 129.507 89.028 131.033 89.028C132.657 89.028 133.637 89.826 133.721 91.198H132.531C132.433 90.386 131.859 89.98 130.949 89.98C130.137 89.98 129.619 90.372 129.619 90.946C129.619 91.492 130.011 91.758 130.767 91.898L131.817 92.094C133.035 92.318 133.861 92.92 133.861 94.04C133.861 95.244 132.825 96.21 131.103 96.21ZM137.871 96.21C136.051 96.21 135.001 95.216 134.973 93.774H136.149C136.191 94.684 136.807 95.272 137.885 95.272C138.809 95.272 139.439 94.852 139.439 94.166C139.439 93.634 139.075 93.284 138.263 93.13L137.241 92.934C135.981 92.696 135.183 92.052 135.183 91.016C135.183 89.868 136.275 89.028 137.801 89.028C139.425 89.028 140.405 89.826 140.489 91.198H139.299C139.201 90.386 138.627 89.98 137.717 89.98C136.905 89.98 136.387 90.372 136.387 90.946C136.387 91.492 136.779 91.758 137.535 91.898L138.585 92.094C139.803 92.318 140.629 92.92 140.629 94.04C140.629 95.244 139.593 96.21 137.871 96.21ZM142.16 87.978V86.536H143.56V87.978H142.16ZM142.272 89.252H143.476V96H142.272V89.252ZM146.758 96H145.554V89.252H146.744V89.714V90.162C147.108 89.574 147.92 89.028 148.83 89.028C150.384 89.028 151.322 90.008 151.322 91.744V96H150.118V91.898C150.118 90.624 149.698 89.98 148.634 89.98C147.458 89.98 146.758 90.876 146.758 91.94V96ZM156.12 99.122C154.342 99.122 153.18 98.128 153.18 96.644H154.37C154.37 97.554 155.042 98.184 156.134 98.184C157.394 98.184 158.164 97.526 158.164 96.084V95.258V94.81C157.814 95.496 156.946 95.93 155.952 95.93C154.09 95.93 152.886 94.586 152.886 92.5C152.886 90.428 154.216 89.028 155.994 89.028C157.114 89.028 157.814 89.602 158.164 90.162V89.616V89.252H159.368V95.664C159.368 97.974 158.276 99.122 156.12 99.122ZM156.19 94.992C157.394 94.992 158.248 93.998 158.248 92.5C158.248 91.03 157.394 89.98 156.19 89.98C154.972 89.98 154.132 91.002 154.132 92.5C154.132 94.012 154.972 94.992 156.19 94.992ZM167.675 96.21C165.841 96.21 164.329 95.006 164.329 92.612C164.329 90.484 165.813 89.028 167.731 89.028C169.327 89.028 170.531 89.994 170.671 91.52H169.425C169.313 90.638 168.711 89.98 167.703 89.98C166.415 89.98 165.575 91.114 165.575 92.612C165.575 94.222 166.429 95.272 167.731 95.272C168.725 95.272 169.397 94.698 169.523 93.732H170.713C170.587 95.202 169.523 96.21 167.675 96.21ZM175.139 96.21C173.193 96.21 171.821 94.768 171.821 92.612C171.821 90.512 173.193 89.028 175.139 89.028C177.071 89.028 178.457 90.512 178.457 92.612C178.457 94.768 177.071 96.21 175.139 96.21ZM175.139 95.272C176.427 95.272 177.211 94.194 177.211 92.612C177.211 91.03 176.399 89.98 175.139 89.98C173.879 89.98 173.067 91.03 173.067 92.612C173.067 94.194 173.851 95.272 175.139 95.272ZM181.293 96H180.089V89.252H181.279V89.714V90.162C181.643 89.574 182.455 89.028 183.365 89.028C184.919 89.028 185.857 90.008 185.857 91.744V96H184.653V91.898C184.653 90.624 184.233 89.98 183.169 89.98C181.993 89.98 181.293 90.876 181.293 91.94V96ZM193.344 89.252V96H192.14V90.246H189.494V96H188.29V90.246H187.016V89.252H188.29V88.006C188.29 86.69 189.186 85.976 190.222 85.976C190.516 85.976 190.782 86.046 190.908 86.102V87.124C190.782 87.11 190.628 87.082 190.474 87.082C189.844 87.082 189.494 87.446 189.494 88.09V89.252H193.344ZM192.028 87.978V86.536H193.428V87.978H192.028ZM196.619 96H195.415V89.252H196.619V89.546V90.372C196.955 89.602 197.697 89.028 198.733 89.028C198.817 89.028 198.929 89.028 199.041 89.042V90.232C198.943 90.218 198.831 90.204 198.663 90.204C197.361 90.204 196.619 90.932 196.619 92.43V96ZM201.472 96H200.268V89.252H201.472V89.784V90.162C201.878 89.504 202.564 89.028 203.446 89.028C204.328 89.028 205.084 89.462 205.476 90.358C205.938 89.574 206.708 89.028 207.674 89.028C209.032 89.028 210.04 89.882 210.04 91.73V96H208.836V91.968C208.836 90.694 208.458 89.98 207.422 89.98C206.358 89.98 205.756 90.904 205.756 91.982V96H204.552V92.01C204.552 90.722 204.16 89.98 203.166 89.98C202.116 89.98 201.472 90.918 201.472 92.038V96ZM217.887 96H216.501L214.303 89.252H215.605L217.075 94.25C217.131 94.418 217.187 94.586 217.215 94.712C217.271 94.558 217.327 94.404 217.369 94.25L218.853 89.252H220.351L221.919 94.25C221.961 94.39 222.003 94.544 222.045 94.656C222.087 94.544 222.129 94.39 222.185 94.222L223.641 89.252H224.859L222.689 96H221.289L219.749 90.904L219.595 90.414C219.539 90.582 219.497 90.736 219.441 90.904L217.887 96ZM225.996 87.978V86.536H227.396V87.978H225.996ZM226.108 89.252H227.312V96H226.108V89.252ZM229.39 86.2H230.594V96H229.39V86.2ZM232.671 86.2H233.875V96H232.671V86.2ZM241.64 96.21C239.82 96.21 238.77 95.216 238.742 93.774H239.918C239.96 94.684 240.576 95.272 241.654 95.272C242.578 95.272 243.208 94.852 243.208 94.166C243.208 93.634 242.844 93.284 242.032 93.13L241.01 92.934C239.75 92.696 238.952 92.052 238.952 91.016C238.952 89.868 240.044 89.028 241.57 89.028C243.194 89.028 244.174 89.826 244.258 91.198H243.068C242.97 90.386 242.396 89.98 241.486 89.98C240.674 89.98 240.156 90.372 240.156 90.946C240.156 91.492 240.548 91.758 241.304 91.898L242.354 92.094C243.572 92.318 244.398 92.92 244.398 94.04C244.398 95.244 243.362 96.21 241.64 96.21ZM248.884 96.21C246.868 96.21 245.608 94.936 245.608 92.598C245.608 90.526 246.966 89.028 248.814 89.028C250.83 89.028 251.936 90.442 251.936 92.612V92.85H246.812C246.84 94.39 247.736 95.272 248.898 95.272C249.724 95.272 250.508 94.95 250.676 93.914H251.866C251.726 95.104 250.802 96.21 248.884 96.21ZM246.854 91.996H250.648C250.648 90.792 249.99 89.98 248.814 89.98C247.68 89.98 246.938 90.862 246.854 91.996ZM254.793 96H253.589V89.252H254.779V89.714V90.162C255.143 89.574 255.955 89.028 256.865 89.028C258.419 89.028 259.357 90.008 259.357 91.744V96H258.153V91.898C258.153 90.624 257.733 89.98 256.669 89.98C255.493 89.98 254.793 90.876 254.793 91.94V96ZM264.015 96.21C262.251 96.21 260.907 94.922 260.907 92.626C260.907 90.582 262.125 89.028 264.043 89.028C265.163 89.028 265.905 89.644 266.213 90.162V89.616V86.2H267.417V96H266.213V95.608V95.062C265.849 95.692 265.023 96.21 264.015 96.21ZM264.225 95.272C265.429 95.272 266.297 94.236 266.297 92.612C266.297 91.002 265.443 89.98 264.225 89.98C263.007 89.98 262.153 91.044 262.153 92.626C262.153 94.208 262.993 95.272 264.225 95.272ZM275 96.112C273.992 96.112 273.082 95.622 273.082 94.124V90.246H271.822V89.252H273.082V87.026H274.286V89.252H275.686V90.246H274.286V93.998C274.286 94.782 274.678 95.034 275.28 95.034C275.448 95.034 275.588 95.02 275.784 94.992V96.028C275.532 96.084 275.28 96.112 275 96.112ZM278.431 96H277.227V86.2H278.431V89.588V90.162C278.795 89.518 279.593 89.028 280.503 89.028C282.057 89.028 282.995 90.008 282.995 91.744V96H281.791V91.898C281.791 90.624 281.357 89.98 280.265 89.98C279.117 89.98 278.431 90.876 278.431 91.94V96ZM287.821 96.21C285.805 96.21 284.545 94.936 284.545 92.598C284.545 90.526 285.903 89.028 287.751 89.028C289.767 89.028 290.873 90.442 290.873 92.612V92.85H285.749C285.777 94.39 286.673 95.272 287.835 95.272C288.661 95.272 289.445 94.95 289.613 93.914H290.803C290.663 95.104 289.739 96.21 287.821 96.21ZM285.791 91.996H289.585C289.585 90.792 288.927 89.98 287.751 89.98C286.617 89.98 285.875 90.862 285.791 91.996ZM293.73 96H292.526V89.252H293.73V89.784V90.162C294.136 89.504 294.822 89.028 295.704 89.028C296.586 89.028 297.342 89.462 297.734 90.358C298.196 89.574 298.966 89.028 299.932 89.028C301.29 89.028 302.298 89.882 302.298 91.73V96H301.094V91.968C301.094 90.694 300.716 89.98 299.68 89.98C298.616 89.98 298.014 90.904 298.014 91.982V96H296.81V92.01C296.81 90.722 296.418 89.98 295.424 89.98C294.374 89.98 293.73 90.918 293.73 92.038V96ZM309.524 96.21C308.236 96.21 307.2 95.426 307.2 94.152C307.2 92.85 308.236 92.234 309.44 92.052L310.882 91.828C311.4 91.744 311.568 91.562 311.568 91.156C311.568 90.414 310.994 89.98 310.21 89.98C309.174 89.98 308.642 90.526 308.614 91.366H307.41C307.452 90.134 308.418 89.028 310.112 89.028C311.792 89.028 312.744 90.022 312.744 91.576V96H311.596V95.664V95.09C311.26 95.79 310.532 96.21 309.524 96.21ZM309.692 95.272C310.77 95.272 311.568 94.544 311.568 93.452V92.458C311.484 92.584 311.232 92.682 310.826 92.752L309.846 92.934C309.048 93.088 308.446 93.438 308.446 94.152C308.446 94.852 309.006 95.272 309.692 95.272ZM315.933 96H314.729V89.252H315.919V89.714V90.162C316.283 89.574 317.095 89.028 318.005 89.028C319.559 89.028 320.497 90.008 320.497 91.744V96H319.293V91.898C319.293 90.624 318.873 89.98 317.809 89.98C316.633 89.98 315.933 90.876 315.933 91.94V96ZM327.722 96.21C326.434 96.21 325.398 95.426 325.398 94.152C325.398 92.85 326.434 92.234 327.638 92.052L329.08 91.828C329.598 91.744 329.766 91.562 329.766 91.156C329.766 90.414 329.192 89.98 328.408 89.98C327.372 89.98 326.84 90.526 326.812 91.366H325.608C325.65 90.134 326.616 89.028 328.31 89.028C329.99 89.028 330.942 90.022 330.942 91.576V96H329.794V95.664V95.09C329.458 95.79 328.73 96.21 327.722 96.21ZM327.89 95.272C328.968 95.272 329.766 94.544 329.766 93.452V92.458C329.682 92.584 329.43 92.682 329.024 92.752L328.044 92.934C327.246 93.088 326.644 93.438 326.644 94.152C326.644 94.852 327.204 95.272 327.89 95.272ZM335.279 96.21C333.697 96.21 332.843 95.258 332.843 93.55V89.252H334.047V93.298C334.047 94.586 334.481 95.272 335.587 95.272C336.693 95.272 337.309 94.432 337.309 92.976V89.252H338.499V96H337.323V95.594V95.062C337.001 95.79 336.175 96.21 335.279 96.21ZM342.963 96.112C341.955 96.112 341.045 95.622 341.045 94.124V90.246H339.785V89.252H341.045V87.026H342.249V89.252H343.649V90.246H342.249V93.998C342.249 94.782 342.641 95.034 343.243 95.034C343.411 95.034 343.551 95.02 343.747 94.992V96.028C343.495 96.084 343.243 96.112 342.963 96.112ZM347.992 96.21C346.046 96.21 344.674 94.768 344.674 92.612C344.674 90.512 346.046 89.028 347.992 89.028C349.924 89.028 351.31 90.512 351.31 92.612C351.31 94.768 349.924 96.21 347.992 96.21ZM347.992 95.272C349.28 95.272 350.064 94.194 350.064 92.612C350.064 91.03 349.252 89.98 347.992 89.98C346.732 89.98 345.92 91.03 345.92 92.612C345.92 94.194 346.704 95.272 347.992 95.272ZM354.146 96H352.942V89.252H354.146V89.784V90.162C354.552 89.504 355.238 89.028 356.12 89.028C357.002 89.028 357.758 89.462 358.15 90.358C358.612 89.574 359.382 89.028 360.348 89.028C361.706 89.028 362.714 89.882 362.714 91.73V96H361.51V91.968C361.51 90.694 361.132 89.98 360.096 89.98C359.032 89.98 358.43 90.904 358.43 91.982V96H357.226V92.01C357.226 90.722 356.834 89.98 355.84 89.98C354.79 89.98 354.146 90.918 354.146 92.038V96ZM366.618 96.21C365.33 96.21 364.294 95.426 364.294 94.152C364.294 92.85 365.33 92.234 366.534 92.052L367.976 91.828C368.494 91.744 368.662 91.562 368.662 91.156C368.662 90.414 368.088 89.98 367.304 89.98C366.268 89.98 365.736 90.526 365.708 91.366H364.504C364.546 90.134 365.512 89.028 367.206 89.028C368.886 89.028 369.838 90.022 369.838 91.576V96H368.69V95.664V95.09C368.354 95.79 367.626 96.21 366.618 96.21ZM366.786 95.272C367.864 95.272 368.662 94.544 368.662 93.452V92.458C368.578 92.584 368.326 92.682 367.92 92.752L366.94 92.934C366.142 93.088 365.54 93.438 365.54 94.152C365.54 94.852 366.1 95.272 366.786 95.272ZM374.149 96.112C373.141 96.112 372.231 95.622 372.231 94.124V90.246H370.971V89.252H372.231V87.026H373.435V89.252H374.835V90.246H373.435V93.998C373.435 94.782 373.827 95.034 374.429 95.034C374.597 95.034 374.737 95.02 374.933 94.992V96.028C374.681 96.084 374.429 96.112 374.149 96.112ZM379.136 96.21C377.12 96.21 375.86 94.936 375.86 92.598C375.86 90.526 377.218 89.028 379.066 89.028C381.082 89.028 382.188 90.442 382.188 92.612V92.85H377.064C377.092 94.39 377.988 95.272 379.15 95.272C379.976 95.272 380.76 94.95 380.928 93.914H382.118C381.978 95.104 381.054 96.21 379.136 96.21ZM377.106 91.996H380.9C380.9 90.792 380.242 89.98 379.066 89.98C377.932 89.98 377.19 90.862 377.106 91.996ZM386.515 96.21C384.751 96.21 383.407 94.922 383.407 92.626C383.407 90.582 384.625 89.028 386.543 89.028C387.663 89.028 388.405 89.644 388.713 90.162V89.616V86.2H389.917V96H388.713V95.608V95.062C388.349 95.692 387.523 96.21 386.515 96.21ZM386.725 95.272C387.929 95.272 388.797 94.236 388.797 92.612C388.797 91.002 387.943 89.98 386.725 89.98C385.507 89.98 384.653 91.044 384.653 92.626C384.653 94.208 385.493 95.272 386.725 95.272ZM398.153 96.21C396.137 96.21 394.877 94.936 394.877 92.598C394.877 90.526 396.235 89.028 398.083 89.028C400.099 89.028 401.205 90.442 401.205 92.612V92.85H396.081C396.109 94.39 397.005 95.272 398.167 95.272C398.993 95.272 399.777 94.95 399.945 93.914H401.135C400.995 95.104 400.071 96.21 398.153 96.21ZM396.123 91.996H399.917C399.917 90.792 399.259 89.98 398.083 89.98C396.949 89.98 396.207 90.862 396.123 91.996ZM404.062 96H402.858V89.252H404.062V89.784V90.162C404.468 89.504 405.154 89.028 406.036 89.028C406.918 89.028 407.674 89.462 408.066 90.358C408.528 89.574 409.298 89.028 410.264 89.028C411.622 89.028 412.63 89.882 412.63 91.73V96H411.426V91.968C411.426 90.694 411.048 89.98 410.012 89.98C408.948 89.98 408.346 90.904 408.346 91.982V96H407.142V92.01C407.142 90.722 406.75 89.98 405.756 89.98C404.706 89.98 404.062 90.918 404.062 92.038V96ZM416.534 96.21C415.246 96.21 414.21 95.426 414.21 94.152C414.21 92.85 415.246 92.234 416.45 92.052L417.892 91.828C418.41 91.744 418.578 91.562 418.578 91.156C418.578 90.414 418.004 89.98 417.22 89.98C416.184 89.98 415.652 90.526 415.624 91.366H414.42C414.462 90.134 415.428 89.028 417.122 89.028C418.802 89.028 419.754 90.022 419.754 91.576V96H418.606V95.664V95.09C418.27 95.79 417.542 96.21 416.534 96.21ZM416.702 95.272C417.78 95.272 418.578 94.544 418.578 93.452V92.458C418.494 92.584 418.242 92.682 417.836 92.752L416.856 92.934C416.058 93.088 415.456 93.438 415.456 94.152C415.456 94.852 416.016 95.272 416.702 95.272ZM421.627 87.978V86.536H423.027V87.978H421.627ZM421.739 89.252H422.943V96H421.739V89.252ZM425.02 86.2H426.224V96H425.02V86.2ZM432.828 96H431.624V89.252H432.828V89.784V90.162C433.234 89.504 433.92 89.028 434.802 89.028C435.684 89.028 436.44 89.462 436.832 90.358C437.294 89.574 438.064 89.028 439.03 89.028C440.388 89.028 441.396 89.882 441.396 91.73V96H440.192V91.968C440.192 90.694 439.814 89.98 438.778 89.98C437.714 89.98 437.112 90.904 437.112 91.982V96H435.908V92.01C435.908 90.722 435.516 89.98 434.522 89.98C433.472 89.98 432.828 90.918 432.828 92.038V96ZM446.224 96.21C444.208 96.21 442.948 94.936 442.948 92.598C442.948 90.526 444.306 89.028 446.154 89.028C448.17 89.028 449.276 90.442 449.276 92.612V92.85H444.152C444.18 94.39 445.076 95.272 446.238 95.272C447.064 95.272 447.848 94.95 448.016 93.914H449.206C449.066 95.104 448.142 96.21 446.224 96.21ZM444.194 91.996H447.988C447.988 90.792 447.33 89.98 446.154 89.98C445.02 89.98 444.278 90.862 444.194 91.996ZM453.295 96.21C451.475 96.21 450.425 95.216 450.397 93.774H451.573C451.615 94.684 452.231 95.272 453.309 95.272C454.233 95.272 454.863 94.852 454.863 94.166C454.863 93.634 454.499 93.284 453.687 93.13L452.665 92.934C451.405 92.696 450.607 92.052 450.607 91.016C450.607 89.868 451.699 89.028 453.225 89.028C454.849 89.028 455.829 89.826 455.913 91.198H454.723C454.625 90.386 454.051 89.98 453.141 89.98C452.329 89.98 451.811 90.372 451.811 90.946C451.811 91.492 452.203 91.758 452.959 91.898L454.009 92.094C455.227 92.318 456.053 92.92 456.053 94.04C456.053 95.244 455.017 96.21 453.295 96.21ZM460.062 96.21C458.242 96.21 457.192 95.216 457.164 93.774H458.34C458.382 94.684 458.998 95.272 460.076 95.272C461 95.272 461.63 94.852 461.63 94.166C461.63 93.634 461.266 93.284 460.454 93.13L459.432 92.934C458.172 92.696 457.374 92.052 457.374 91.016C457.374 89.868 458.466 89.028 459.992 89.028C461.616 89.028 462.596 89.826 462.68 91.198H461.49C461.392 90.386 460.818 89.98 459.908 89.98C459.096 89.98 458.578 90.372 458.578 90.946C458.578 91.492 458.97 91.758 459.726 91.898L460.776 92.094C461.994 92.318 462.82 92.92 462.82 94.04C462.82 95.244 461.784 96.21 460.062 96.21ZM466.382 96.21C465.094 96.21 464.058 95.426 464.058 94.152C464.058 92.85 465.094 92.234 466.298 92.052L467.74 91.828C468.258 91.744 468.426 91.562 468.426 91.156C468.426 90.414 467.852 89.98 467.068 89.98C466.032 89.98 465.5 90.526 465.472 91.366H464.268C464.31 90.134 465.276 89.028 466.97 89.028C468.65 89.028 469.602 90.022 469.602 91.576V96H468.454V95.664V95.09C468.118 95.79 467.39 96.21 466.382 96.21ZM466.55 95.272C467.628 95.272 468.426 94.544 468.426 93.452V92.458C468.342 92.584 468.09 92.682 467.684 92.752L466.704 92.934C465.906 93.088 465.304 93.438 465.304 94.152C465.304 94.852 465.864 95.272 466.55 95.272ZM474.401 99.122C472.623 99.122 471.461 98.128 471.461 96.644H472.651C472.651 97.554 473.323 98.184 474.415 98.184C475.675 98.184 476.445 97.526 476.445 96.084V95.258V94.81C476.095 95.496 475.227 95.93 474.233 95.93C472.371 95.93 471.167 94.586 471.167 92.5C471.167 90.428 472.497 89.028 474.275 89.028C475.395 89.028 476.095 89.602 476.445 90.162V89.616V89.252H477.649V95.664C477.649 97.974 476.557 99.122 474.401 99.122ZM474.471 94.992C475.675 94.992 476.529 93.998 476.529 92.5C476.529 91.03 475.675 89.98 474.471 89.98C473.253 89.98 472.413 91.002 472.413 92.5C472.413 94.012 473.253 94.992 474.471 94.992ZM482.564 96.21C480.548 96.21 479.288 94.936 479.288 92.598C479.288 90.526 480.646 89.028 482.494 89.028C484.51 89.028 485.616 90.442 485.616 92.612V92.85H480.492C480.52 94.39 481.416 95.272 482.578 95.272C483.404 95.272 484.188 94.95 484.356 93.914H485.546C485.406 95.104 484.482 96.21 482.564 96.21ZM480.534 91.996H484.328C484.328 90.792 483.67 89.98 482.494 89.98C481.36 89.98 480.618 90.862 480.534 91.996Z" fill="#737373" style="fill:#737373;fill:color(display-p3 0.4510 0.4510 0.4510);fill-opacity:1;"/>
<rect x="23.5" y="123.5" width="465" height="41" rx="6.5" fill="white" style="fill:white;fill-opacity:1;"/>
<rect x="23.5" y="123.5" width="465" height="41" rx="6.5" stroke="#CDCDCD" style="stroke:#CDCDCD;stroke:color(display-p3 0.8057 0.8057 0.8057);stroke-opacity:1;"/>
<path d="M40.788 149H39.514V140.264H36.126V139.2H44.162V140.264H40.788V149ZM46.0357 151.912H44.7617L45.9937 148.762L43.2917 142.252H44.6217L46.3017 146.564L46.6237 147.39C46.7217 147.11 46.8197 146.83 46.9177 146.564L48.4017 142.252H49.6617L46.0357 151.912ZM52.0759 151.912H50.8719V142.252H52.0759V142.742V143.176C52.4539 142.574 53.2939 142.028 54.3019 142.028C56.2479 142.028 57.4099 143.554 57.4099 145.612C57.4099 147.754 56.1359 149.21 54.2739 149.21C53.3079 149.21 52.5099 148.748 52.0759 148.062V148.622V151.912ZM54.0919 148.272C55.3379 148.272 56.1499 147.18 56.1499 145.612C56.1499 144.058 55.3379 142.98 54.0919 142.98C52.8739 142.98 52.0059 144.002 52.0059 145.612C52.0059 147.194 52.8599 148.272 54.0919 148.272ZM61.8897 149.21C59.8737 149.21 58.6137 147.936 58.6137 145.598C58.6137 143.526 59.9717 142.028 61.8197 142.028C63.8357 142.028 64.9417 143.442 64.9417 145.612V145.85H59.8177C59.8457 147.39 60.7417 148.272 61.9037 148.272C62.7297 148.272 63.5137 147.95 63.6817 146.914H64.8717C64.7317 148.104 63.8077 149.21 61.8897 149.21ZM59.8597 144.996H63.6537C63.6537 143.792 62.9957 142.98 61.8197 142.98C60.6857 142.98 59.9437 143.862 59.8597 144.996ZM70.795 139.144V139.844C70.431 139.97 70.095 140.278 70.095 141.048V141.23H70.753V142.77H69.283V141.104C69.283 139.802 69.997 139.214 70.795 139.144ZM73.8826 151.912H72.6786V142.252H73.8826V142.742V143.176C74.2606 142.574 75.1006 142.028 76.1086 142.028C78.0546 142.028 79.2166 143.554 79.2166 145.612C79.2166 147.754 77.9426 149.21 76.0806 149.21C75.1146 149.21 74.3166 148.748 73.8826 148.062V148.622V151.912ZM75.8986 148.272C77.1446 148.272 77.9566 147.18 77.9566 145.612C77.9566 144.058 77.1446 142.98 75.8986 142.98C74.6806 142.98 73.8126 144.002 73.8126 145.612C73.8126 147.194 74.6666 148.272 75.8986 148.272ZM83.2064 149.21C81.6244 149.21 80.7704 148.258 80.7704 146.55V142.252H81.9744V146.298C81.9744 147.586 82.4084 148.272 83.5144 148.272C84.6204 148.272 85.2364 147.432 85.2364 145.976V142.252H86.4264V149H85.2504V148.594V148.062C84.9284 148.79 84.1024 149.21 83.2064 149.21ZM90.8629 149.21C89.0429 149.21 87.9929 148.216 87.9649 146.774H89.1409C89.1829 147.684 89.7989 148.272 90.8769 148.272C91.8009 148.272 92.4309 147.852 92.4309 147.166C92.4309 146.634 92.0669 146.284 91.2549 146.13L90.2329 145.934C88.9729 145.696 88.1749 145.052 88.1749 144.016C88.1749 142.868 89.2669 142.028 90.7929 142.028C92.4169 142.028 93.3969 142.826 93.4809 144.198H92.2909C92.1929 143.386 91.6189 142.98 90.7089 142.98C89.8969 142.98 89.3789 143.372 89.3789 143.946C89.3789 144.492 89.7709 144.758 90.5269 144.898L91.5769 145.094C92.7949 145.318 93.6209 145.92 93.6209 147.04C93.6209 148.244 92.5849 149.21 90.8629 149.21ZM96.4685 149H95.2645V139.2H96.4685V142.588V143.162C96.8325 142.518 97.6305 142.028 98.5405 142.028C100.095 142.028 101.033 143.008 101.033 144.744V149H99.8285V144.898C99.8285 143.624 99.3945 142.98 98.3025 142.98C97.1545 142.98 96.4685 143.876 96.4685 144.94V149ZM107.543 149H106.339V142.252H107.529V142.714V143.162C107.893 142.574 108.705 142.028 109.615 142.028C111.169 142.028 112.107 143.008 112.107 144.744V149H110.903V144.898C110.903 143.624 110.483 142.98 109.419 142.98C108.243 142.98 107.543 143.876 107.543 144.94V149ZM116.933 149.21C114.917 149.21 113.657 147.936 113.657 145.598C113.657 143.526 115.015 142.028 116.863 142.028C118.879 142.028 119.985 143.442 119.985 145.612V145.85H114.861C114.889 147.39 115.785 148.272 116.947 148.272C117.773 148.272 118.557 147.95 118.725 146.914H119.915C119.775 148.104 118.851 149.21 116.933 149.21ZM114.903 144.996H118.697C118.697 143.792 118.039 142.98 116.863 142.98C115.729 142.98 114.987 143.862 114.903 144.996ZM124.313 149H122.927L120.729 142.252H122.031L123.501 147.25C123.557 147.418 123.613 147.586 123.641 147.712C123.697 147.558 123.753 147.404 123.795 147.25L125.279 142.252H126.777L128.345 147.25C128.387 147.39 128.429 147.544 128.471 147.656C128.513 147.544 128.555 147.39 128.611 147.222L130.067 142.252H131.285L129.115 149H127.715L126.175 143.904L126.021 143.414C125.965 143.582 125.923 143.736 125.867 143.904L124.313 149ZM138.017 149.21C136.197 149.21 135.147 148.216 135.119 146.774H136.295C136.337 147.684 136.953 148.272 138.031 148.272C138.955 148.272 139.585 147.852 139.585 147.166C139.585 146.634 139.221 146.284 138.409 146.13L137.387 145.934C136.127 145.696 135.329 145.052 135.329 144.016C135.329 142.868 136.421 142.028 137.947 142.028C139.571 142.028 140.551 142.826 140.635 144.198H139.445C139.347 143.386 138.773 142.98 137.863 142.98C137.051 142.98 136.533 143.372 136.533 143.946C136.533 144.492 136.925 144.758 137.681 144.898L138.731 145.094C139.949 145.318 140.775 145.92 140.775 147.04C140.775 148.244 139.739 149.21 138.017 149.21ZM144.731 149.112C143.723 149.112 142.813 148.622 142.813 147.124V143.246H141.553V142.252H142.813V140.026H144.017V142.252H145.417V143.246H144.017V146.998C144.017 147.782 144.409 148.034 145.011 148.034C145.179 148.034 145.319 148.02 145.515 147.992V149.028C145.263 149.084 145.011 149.112 144.731 149.112ZM148.876 149.21C147.588 149.21 146.552 148.426 146.552 147.152C146.552 145.85 147.588 145.234 148.792 145.052L150.234 144.828C150.752 144.744 150.92 144.562 150.92 144.156C150.92 143.414 150.346 142.98 149.562 142.98C148.526 142.98 147.994 143.526 147.966 144.366H146.762C146.804 143.134 147.77 142.028 149.464 142.028C151.144 142.028 152.096 143.022 152.096 144.576V149H150.948V148.664V148.09C150.612 148.79 149.884 149.21 148.876 149.21ZM149.044 148.272C150.122 148.272 150.92 147.544 150.92 146.452V145.458C150.836 145.584 150.584 145.682 150.178 145.752L149.198 145.934C148.4 146.088 147.798 146.438 147.798 147.152C147.798 147.852 148.358 148.272 149.044 148.272ZM156.407 149.112C155.399 149.112 154.489 148.622 154.489 147.124V143.246H153.229V142.252H154.489V140.026H155.693V142.252H157.093V143.246H155.693V146.998C155.693 147.782 156.085 148.034 156.687 148.034C156.855 148.034 156.995 148.02 157.191 147.992V149.028C156.939 149.084 156.687 149.112 156.407 149.112ZM160.986 149.21C159.404 149.21 158.55 148.258 158.55 146.55V142.252H159.754V146.298C159.754 147.586 160.188 148.272 161.294 148.272C162.4 148.272 163.016 147.432 163.016 145.976V142.252H164.206V149H163.03V148.594V148.062C162.708 148.79 161.882 149.21 160.986 149.21ZM168.642 149.21C166.822 149.21 165.772 148.216 165.744 146.774H166.92C166.962 147.684 167.578 148.272 168.656 148.272C169.58 148.272 170.21 147.852 170.21 147.166C170.21 146.634 169.846 146.284 169.034 146.13L168.012 145.934C166.752 145.696 165.954 145.052 165.954 144.016C165.954 142.868 167.046 142.028 168.572 142.028C170.196 142.028 171.176 142.826 171.26 144.198H170.07C169.972 143.386 169.398 142.98 168.488 142.98C167.676 142.98 167.158 143.372 167.158 143.946C167.158 144.492 167.55 144.758 168.306 144.898L169.356 145.094C170.574 145.318 171.4 145.92 171.4 147.04C171.4 148.244 170.364 149.21 168.642 149.21ZM172.575 142.826V142.126C172.939 142 173.275 141.692 173.275 140.922V140.74H172.617V139.2H174.087V140.866C174.087 142.168 173.373 142.756 172.575 142.826ZM180.92 149.112C179.912 149.112 179.002 148.622 179.002 147.124V143.246H177.742V142.252H179.002V140.026H180.206V142.252H181.606V143.246H180.206V146.998C180.206 147.782 180.598 148.034 181.2 148.034C181.368 148.034 181.508 148.02 181.704 147.992V149.028C181.452 149.084 181.2 149.112 180.92 149.112ZM185.949 149.21C184.003 149.21 182.631 147.768 182.631 145.612C182.631 143.512 184.003 142.028 185.949 142.028C187.881 142.028 189.267 143.512 189.267 145.612C189.267 147.768 187.881 149.21 185.949 149.21ZM185.949 148.272C187.237 148.272 188.021 147.194 188.021 145.612C188.021 144.03 187.209 142.98 185.949 142.98C184.689 142.98 183.877 144.03 183.877 145.612C183.877 147.194 184.661 148.272 185.949 148.272ZM197.134 149.21C195.3 149.21 193.788 148.006 193.788 145.612C193.788 143.484 195.272 142.028 197.19 142.028C198.786 142.028 199.99 142.994 200.13 144.52H198.884C198.772 143.638 198.17 142.98 197.162 142.98C195.874 142.98 195.034 144.114 195.034 145.612C195.034 147.222 195.888 148.272 197.19 148.272C198.184 148.272 198.856 147.698 198.982 146.732H200.172C200.046 148.202 198.982 149.21 197.134 149.21ZM204.598 149.21C202.652 149.21 201.28 147.768 201.28 145.612C201.28 143.512 202.652 142.028 204.598 142.028C206.53 142.028 207.916 143.512 207.916 145.612C207.916 147.768 206.53 149.21 204.598 149.21ZM204.598 148.272C205.886 148.272 206.67 147.194 206.67 145.612C206.67 144.03 205.858 142.98 204.598 142.98C203.338 142.98 202.526 144.03 202.526 145.612C202.526 147.194 203.31 148.272 204.598 148.272ZM210.752 149H209.548V142.252H210.738V142.714V143.162C211.102 142.574 211.914 142.028 212.824 142.028C214.378 142.028 215.316 143.008 215.316 144.744V149H214.112V144.898C214.112 143.624 213.692 142.98 212.628 142.98C211.452 142.98 210.752 143.876 210.752 144.94V149ZM222.803 142.252V149H221.599V143.246H218.953V149H217.749V143.246H216.475V142.252H217.749V141.006C217.749 139.69 218.645 138.976 219.681 138.976C219.975 138.976 220.241 139.046 220.367 139.102V140.124C220.241 140.11 220.087 140.082 219.933 140.082C219.303 140.082 218.953 140.446 218.953 141.09V142.252H222.803ZM221.487 140.978V139.536H222.887V140.978H221.487ZM226.078 149H224.874V142.252H226.078V142.546V143.372C226.414 142.602 227.156 142.028 228.192 142.028C228.276 142.028 228.388 142.028 228.5 142.042V143.232C228.402 143.218 228.29 143.204 228.122 143.204C226.82 143.204 226.078 143.932 226.078 145.43V149ZM230.931 149H229.727V142.252H230.931V142.784V143.162C231.337 142.504 232.023 142.028 232.905 142.028C233.787 142.028 234.543 142.462 234.935 143.358C235.397 142.574 236.167 142.028 237.133 142.028C238.491 142.028 239.499 142.882 239.499 144.73V149H238.295V144.968C238.295 143.694 237.917 142.98 236.881 142.98C235.817 142.98 235.215 143.904 235.215 144.982V149H234.011V145.01C234.011 143.722 233.619 142.98 232.625 142.98C231.575 142.98 230.931 143.918 230.931 145.038V149Z" fill="#737373" style="fill:#737373;fill:color(display-p3 0.4510 0.4510 0.4510);fill-opacity:1;"/>
<rect x="321.5" y="188.5" width="75" height="39" rx="5.5" fill="white" style="fill:white;fill-opacity:1;"/>
<rect x="321.5" y="188.5" width="75" height="39" rx="5.5" stroke="#E5E5E5" style="stroke:#E5E5E5;stroke:color(display-p3 0.8993 0.8993 0.8993);stroke-opacity:1;"/>
<path d="M342.334 214.238C339.478 214.238 337.602 212.306 337.602 209.03C337.602 205.936 339.66 203.962 342.39 203.962C344.77 203.962 346.45 205.376 346.66 207.504H345.008C344.798 206.146 343.888 205.278 342.362 205.278C340.5 205.278 339.212 206.692 339.212 209.03C339.212 211.41 340.514 212.908 342.348 212.908C343.874 212.908 344.882 211.984 345.106 210.64H346.688C346.436 212.824 344.812 214.238 342.334 214.238ZM350.057 214.238C348.825 214.238 347.719 213.44 347.719 212.138C347.719 210.71 348.839 210.136 350.169 209.954L351.387 209.772C351.919 209.702 352.101 209.506 352.101 209.128C352.101 208.526 351.625 208.092 350.869 208.092C349.945 208.092 349.427 208.596 349.385 209.366H347.901C347.971 208.036 349.035 206.986 350.771 206.986C352.647 206.986 353.543 208.036 353.543 209.772V214H352.185V213.692C352.185 213.482 352.199 213.286 352.213 213.076C351.863 213.762 351.149 214.238 350.057 214.238ZM350.379 213.132C351.373 213.132 352.129 212.432 352.129 211.396V210.528C352.017 210.668 351.765 210.752 351.359 210.822L350.589 210.976C349.791 211.13 349.217 211.438 349.217 212.096C349.217 212.754 349.735 213.132 350.379 213.132ZM356.812 214H355.356V207.21H356.812V207.588C356.812 207.77 356.798 207.938 356.784 208.148C357.148 207.518 357.876 206.986 358.87 206.986C360.41 206.986 361.32 208.008 361.32 209.716V214H359.864V209.912C359.864 208.778 359.416 208.134 358.478 208.134C357.47 208.134 356.812 208.96 356.812 209.968V214ZM366.145 214.238C364.143 214.238 362.743 212.922 362.743 210.598C362.743 208.386 364.255 206.986 366.215 206.986C368.007 206.986 369.141 208.064 369.295 209.632H367.811C367.727 208.806 367.181 208.134 366.201 208.134C365.053 208.134 364.227 209.114 364.227 210.598C364.227 212.082 365.011 213.09 366.187 213.09C367.209 213.09 367.783 212.446 367.895 211.564H369.351C369.169 213.16 368.077 214.238 366.145 214.238ZM373.719 214.238C371.689 214.238 370.345 212.936 370.345 210.584C370.345 208.47 371.745 206.986 373.663 206.986C375.707 206.986 376.869 208.414 376.869 210.612V210.92H371.815C371.843 212.236 372.627 213.09 373.733 213.09C374.517 213.09 375.203 212.712 375.343 211.844H376.813C376.673 213.132 375.609 214.238 373.719 214.238ZM371.829 209.884H375.343C375.329 208.82 374.699 208.092 373.649 208.092C372.627 208.092 371.927 208.862 371.829 209.884ZM378.38 204.2H379.836V214H378.38V204.2Z" fill="#0F172A" style="fill:#0F172A;fill:color(display-p3 0.0588 0.0902 0.1647);fill-opacity:1;"/>
<rect x="405" y="188" width="83" height="40" rx="6" fill="#838383" style="fill:#838383;fill:color(display-p3 0.5147 0.5147 0.5147);fill-opacity:1;"/>
<path d="M426.334 214.238C423.478 214.238 421.602 212.306 421.602 209.03C421.602 205.936 423.66 203.962 426.39 203.962C428.77 203.962 430.45 205.376 430.66 207.504H429.008C428.798 206.146 427.888 205.278 426.362 205.278C424.5 205.278 423.212 206.692 423.212 209.03C423.212 211.41 424.514 212.908 426.348 212.908C427.874 212.908 428.882 211.984 429.106 210.64H430.688C430.436 212.824 428.812 214.238 426.334 214.238ZM435.093 214.238C433.091 214.238 431.691 212.824 431.691 210.612C431.691 208.442 433.105 206.986 435.093 206.986C437.095 206.986 438.509 208.442 438.509 210.612C438.509 212.824 437.095 214.238 435.093 214.238ZM435.093 213.09C436.269 213.09 437.025 212.124 437.025 210.612C437.025 209.072 436.255 208.134 435.093 208.134C433.945 208.134 433.175 209.072 433.175 210.612C433.175 212.124 433.917 213.09 435.093 213.09ZM441.469 214H440.013V207.21H441.469V207.588C441.469 207.77 441.455 207.938 441.441 208.148C441.805 207.518 442.533 206.986 443.527 206.986C445.067 206.986 445.977 208.008 445.977 209.716V214H444.521V209.912C444.521 208.778 444.073 208.134 443.135 208.134C442.127 208.134 441.469 208.96 441.469 209.968V214ZM453.827 207.21V214H452.371V208.386H449.809V214H448.353V208.386H447.037V207.21H448.353V206.188C448.353 204.718 449.235 203.962 450.411 203.962C450.775 203.962 451.069 204.032 451.209 204.088V205.264C451.097 205.236 450.929 205.208 450.761 205.208C450.187 205.208 449.809 205.544 449.809 206.16V207.21H453.827ZM452.301 206.048V204.438H453.897V206.048H452.301ZM457.191 214H455.735V207.21H457.191V207.616C457.191 207.882 457.191 208.134 457.163 208.386C457.513 207.616 458.199 206.986 459.221 206.986C459.333 206.986 459.445 206.986 459.557 207.014V208.428C459.459 208.414 459.319 208.386 459.123 208.386C457.947 208.386 457.191 209.016 457.191 210.514V214ZM462.168 214H460.712V207.21H462.168V207.63C462.168 207.798 462.168 207.98 462.14 208.148C462.518 207.518 463.176 206.986 464.114 206.986C464.982 206.986 465.71 207.532 466.032 208.288C466.452 207.56 467.25 206.986 468.23 206.986C469.602 206.986 470.596 207.952 470.596 209.716V214H469.14V209.954C469.14 208.82 468.748 208.134 467.866 208.134C466.956 208.134 466.382 208.946 466.382 209.996V214H464.926V209.982C464.926 208.834 464.548 208.134 463.666 208.134C462.77 208.134 462.168 208.932 462.168 210.024V214Z" fill="white" style="fill:white;fill-opacity:1;"/>
</svg>
