<svg width="246" height="138" viewBox="0 0 246 138" fill="none" xmlns="http://www.w3.org/2000/svg">
<rect x="0.5" y="0.5" width="245" height="137" rx="4.5" fill="white" style="fill:white;fill-opacity:1;"/>
<rect x="0.5" y="0.5" width="245" height="137" rx="4.5" stroke="#E5E5E5" style="stroke:#E5E5E5;stroke:color(display-p3 0.8993 0.8993 0.8993);stroke-opacity:1;"/>
<rect width="236" height="32" transform="translate(5 5)" fill="white" style="fill:white;fill-opacity:1;"/>
<path d="M21.69 27.252C19.058 27.252 17.518 25.824 17.364 23.64H19.268C19.366 24.998 20.472 25.698 21.774 25.698C22.866 25.698 23.734 25.306 23.734 24.354C23.734 23.612 23.202 23.206 22.124 22.996L20.458 22.674C18.918 22.38 17.714 21.47 17.714 19.902C17.714 18.166 19.324 16.948 21.536 16.948C24 16.948 25.358 18.264 25.47 20.168H23.566C23.524 19.258 22.88 18.488 21.452 18.488C20.36 18.488 19.548 18.936 19.548 19.748C19.548 20.504 20.206 20.77 21.2 20.966L22.852 21.288C24.378 21.582 25.582 22.45 25.582 24.088C25.582 25.922 24.21 27.252 21.69 27.252ZM27.0138 19.132V17.34H28.7918V19.132H27.0138ZM27.0418 20.168H28.7498V27H27.0418V20.168ZM32.1951 27H30.4871V20.168H32.1951V20.476C32.1951 20.672 32.1811 20.882 32.1391 21.148C32.5171 20.462 33.1611 19.944 34.2391 19.944C35.7511 19.944 36.6471 21.008 36.6471 22.688V27H34.9391V22.94C34.9391 21.932 34.4491 21.302 33.6511 21.302C32.8111 21.302 32.1951 22.044 32.1951 22.996V27ZM41.4011 30.108C39.3851 30.108 38.2371 29.03 38.2371 27.476H39.9731C40.0011 28.288 40.5191 28.764 41.4431 28.764C42.3391 28.764 43.0951 28.232 43.0951 27.21V26.468C43.0951 26.16 43.1091 25.88 43.1511 25.614C42.7451 26.23 42.0871 26.748 41.0231 26.748C39.2451 26.748 37.9571 25.502 37.9571 23.346C37.9571 21.218 39.4411 19.944 40.9391 19.944C42.1431 19.944 42.7451 20.434 43.1511 21.148C43.1091 20.91 43.0951 20.728 43.0951 20.476V20.168H44.8031V26.79C44.8031 29.03 43.4171 30.108 41.4011 30.108ZM41.4571 25.39C42.4651 25.39 43.1931 24.536 43.1931 23.346C43.1931 22.156 42.4651 21.302 41.4571 21.302C40.4211 21.302 39.6931 22.156 39.6931 23.346C39.6931 24.536 40.4211 25.39 41.4571 25.39ZM46.5379 17.2H48.2459V27H46.5379V17.2ZM53.0772 27.252C51.0332 27.252 49.5912 25.936 49.5912 23.57C49.5912 21.414 51.0332 19.944 53.0212 19.944C55.1072 19.944 56.3112 21.4 56.3112 23.626V24.004H51.3412C51.3552 25.082 52.0412 25.908 53.0772 25.908C53.8192 25.908 54.4212 25.488 54.5332 24.774H56.2692C56.1292 26.174 54.9252 27.252 53.0772 27.252ZM51.3272 22.772H54.5612C54.5332 21.848 53.9312 21.218 53.0072 21.218C52.0832 21.218 51.4252 21.876 51.3272 22.772ZM63 27.252C61.628 27.252 60.55 26.314 60.55 24.508V20.168H62.272V24.242C62.272 25.194 62.692 25.88 63.518 25.88C64.386 25.88 65.002 25.236 65.002 24.228V20.168H66.71V27H65.016V26.72C65.016 26.51 65.044 26.272 65.086 26.062C64.736 26.72 64.134 27.252 63 27.252ZM71.1703 27.252C69.2383 27.252 68.0483 26.244 67.9363 24.648H69.6723C69.7143 25.46 70.2183 25.978 71.1283 25.978C71.8983 25.978 72.3883 25.614 72.3883 25.096C72.3883 24.634 71.9963 24.424 71.2683 24.284L70.4423 24.116C69.0143 23.836 68.2023 23.164 68.2023 22.03C68.2023 20.84 69.3223 19.944 71.0023 19.944C72.8363 19.944 73.9843 20.896 74.0263 22.324H72.3183C72.2623 21.652 71.7723 21.218 71.0023 21.218C70.3723 21.218 69.8823 21.47 69.8823 21.96C69.8823 22.366 70.1483 22.576 71.0163 22.744L71.8423 22.912C73.1863 23.178 74.0683 23.794 74.0683 24.998C74.0683 26.3 72.9343 27.252 71.1703 27.252ZM78.5343 27.252C76.4903 27.252 75.0483 25.936 75.0483 23.57C75.0483 21.414 76.4903 19.944 78.4783 19.944C80.5643 19.944 81.7683 21.4 81.7683 23.626V24.004H76.7983C76.8123 25.082 77.4983 25.908 78.5343 25.908C79.2763 25.908 79.8783 25.488 79.9903 24.774H81.7263C81.5863 26.174 80.3823 27.252 78.5343 27.252ZM76.7843 22.772H80.0183C79.9903 21.848 79.3883 21.218 78.4643 21.218C77.5403 21.218 76.8823 21.876 76.7843 22.772ZM84.8455 27H83.1375V20.168H84.8455V20.686C84.8455 20.938 84.8315 21.148 84.7895 21.4C85.1535 20.63 85.7695 19.944 86.7915 19.944C86.9315 19.944 87.0435 19.958 87.1555 19.986V21.638C87.0435 21.61 86.8895 21.582 86.6655 21.582C85.6155 21.582 84.8455 22.114 84.8455 23.612V27ZM92.8368 27.252C91.6468 27.252 90.4848 26.468 90.4848 25.124C90.4848 23.584 91.6748 23.052 93.1448 22.856L94.1248 22.73C94.6848 22.66 94.8808 22.45 94.8808 22.114C94.8808 21.638 94.4888 21.218 93.7608 21.218C92.9628 21.218 92.4588 21.666 92.3888 22.38H90.6248C90.7368 20.952 91.8988 19.944 93.6628 19.944C95.7488 19.944 96.5888 21.064 96.5888 22.982V27H95.0068V26.72C95.0068 26.496 95.0348 26.286 95.0768 26.062C94.7128 26.734 94.0128 27.252 92.8368 27.252ZM93.2988 25.992C94.2088 25.992 94.9368 25.32 94.9368 24.354V23.612C94.7828 23.752 94.5448 23.822 94.1248 23.906L93.5648 24.018C92.7668 24.172 92.2208 24.438 92.2208 25.054C92.2208 25.656 92.6968 25.992 93.2988 25.992ZM101.311 27.252C99.141 27.252 97.853 25.852 97.853 23.584C97.853 21.302 99.407 19.944 101.395 19.944C103.383 19.944 104.461 21.148 104.629 22.744H102.893C102.837 21.974 102.361 21.302 101.395 21.302C100.401 21.302 99.589 22.114 99.589 23.598C99.589 24.956 100.303 25.908 101.353 25.908C102.389 25.908 102.879 25.208 102.963 24.396H104.699C104.461 26.132 103.341 27.252 101.311 27.252ZM108.857 27.126C107.401 27.126 106.631 26.398 106.631 24.872V21.526H105.077V20.168H106.631V17.704H108.339V20.168H110.019V21.526H108.339V24.62C108.339 25.334 108.619 25.754 109.347 25.754C109.515 25.754 109.697 25.74 109.865 25.712V27C109.697 27.056 109.291 27.126 108.857 27.126ZM111.137 19.132V17.34H112.915V19.132H111.137ZM111.165 20.168H112.873V27H111.165V20.168ZM117.718 27.252C115.66 27.252 114.218 25.88 114.218 23.612C114.218 21.372 115.674 19.944 117.718 19.944C119.776 19.944 121.232 21.372 121.232 23.612C121.232 25.88 119.776 27.252 117.718 27.252ZM117.718 25.908C118.782 25.908 119.496 25.068 119.496 23.612C119.496 22.128 118.768 21.302 117.718 21.302C116.682 21.302 115.954 22.128 115.954 23.612C115.954 25.068 116.654 25.908 117.718 25.908ZM124.289 27H122.581V20.168H124.289V20.476C124.289 20.672 124.275 20.882 124.233 21.148C124.611 20.462 125.255 19.944 126.333 19.944C127.845 19.944 128.741 21.008 128.741 22.688V27H127.033V22.94C127.033 21.932 126.543 21.302 125.745 21.302C124.905 21.302 124.289 22.044 124.289 22.996V27ZM133.145 27.252C131.213 27.252 130.023 26.244 129.911 24.648H131.647C131.689 25.46 132.193 25.978 133.103 25.978C133.873 25.978 134.363 25.614 134.363 25.096C134.363 24.634 133.971 24.424 133.243 24.284L132.417 24.116C130.989 23.836 130.177 23.164 130.177 22.03C130.177 20.84 131.297 19.944 132.977 19.944C134.811 19.944 135.959 20.896 136.001 22.324H134.293C134.237 21.652 133.747 21.218 132.977 21.218C132.347 21.218 131.857 21.47 131.857 21.96C131.857 22.366 132.123 22.576 132.991 22.744L133.817 22.912C135.161 23.178 136.043 23.794 136.043 24.998C136.043 26.3 134.909 27.252 133.145 27.252Z" fill="black" style="fill:black;fill-opacity:1;"/>
<rect width="236" height="32" transform="translate(5 37)" fill="white" style="fill:white;fill-opacity:1;"/>
<path d="M22.292 58H20.822L17.112 48.2H18.512L21.13 55.326C21.298 55.774 21.452 56.194 21.62 56.628C21.774 56.208 21.942 55.76 22.11 55.326L24.728 48.2H26.086L22.292 58ZM29.3409 58.21C27.3249 58.21 26.0649 56.936 26.0649 54.598C26.0649 52.526 27.4229 51.028 29.2709 51.028C31.2869 51.028 32.3929 52.442 32.3929 54.612V54.85H27.2689C27.2969 56.39 28.1929 57.272 29.3549 57.272C30.1809 57.272 30.9649 56.95 31.1329 55.914H32.3229C32.1829 57.104 31.2589 58.21 29.3409 58.21ZM27.3109 53.996H31.1049C31.1049 52.792 30.4469 51.98 29.2709 51.98C28.1369 51.98 27.3949 52.862 27.3109 53.996ZM35.2498 58H34.0458V51.252H35.2498V51.546V52.372C35.5858 51.602 36.3278 51.028 37.3638 51.028C37.4478 51.028 37.5598 51.028 37.6718 51.042V52.232C37.5738 52.218 37.4618 52.204 37.2938 52.204C35.9918 52.204 35.2498 52.932 35.2498 54.43V58ZM38.7873 49.978V48.536H40.1873V49.978H38.7873ZM38.8993 51.252H40.1033V58H38.8993V51.252ZM43.8885 52.246V58H42.6845V52.246H41.4105V51.252H42.6845V50.006C42.6845 48.69 43.5805 47.976 44.6165 47.976C44.9105 47.976 45.1765 48.046 45.3025 48.102V49.124C45.1765 49.11 45.0225 49.082 44.8685 49.082C44.2385 49.082 43.8885 49.446 43.8885 50.09V51.252H45.2885V52.246H43.8885ZM48.4869 60.912H47.2129L48.4449 57.762L45.7429 51.252H47.0729L48.7529 55.564L49.0749 56.39C49.1729 56.11 49.2709 55.83 49.3689 55.564L50.8529 51.252H52.1129L48.4869 60.912ZM53.4707 58H52.3787L56.2567 48.2H57.3487L53.4707 58ZM59.2959 51.252V50.006C59.2959 48.69 60.1919 47.976 61.2279 47.976C61.5219 47.976 61.7879 48.046 61.9139 48.102V49.124C61.7879 49.11 61.6339 49.082 61.4799 49.082C60.8499 49.082 60.4999 49.446 60.4999 50.09V51.252H61.8999V52.246H60.4999V58H59.2959V52.246H58.0219V51.252H59.2959ZM63.1879 48.2H64.3919V58H63.1879V48.2ZM68.3798 58.21C67.0918 58.21 66.0558 57.426 66.0558 56.152C66.0558 54.85 67.0918 54.234 68.2958 54.052L69.7378 53.828C70.2558 53.744 70.4238 53.562 70.4238 53.156C70.4238 52.414 69.8498 51.98 69.0658 51.98C68.0298 51.98 67.4978 52.526 67.4698 53.366H66.2658C66.3078 52.134 67.2738 51.028 68.9678 51.028C70.6478 51.028 71.5998 52.022 71.5998 53.576V58H70.4518V57.664V57.09C70.1158 57.79 69.3878 58.21 68.3798 58.21ZM68.5478 57.272C69.6258 57.272 70.4238 56.544 70.4238 55.452V54.458C70.3398 54.584 70.0878 54.682 69.6818 54.752L68.7018 54.934C67.9038 55.088 67.3018 55.438 67.3018 56.152C67.3018 56.852 67.8618 57.272 68.5478 57.272ZM76.3988 61.122C74.6208 61.122 73.4588 60.128 73.4588 58.644H74.6488C74.6488 59.554 75.3208 60.184 76.4128 60.184C77.6728 60.184 78.4428 59.526 78.4428 58.084V57.258V56.81C78.0928 57.496 77.2248 57.93 76.2308 57.93C74.3688 57.93 73.1648 56.586 73.1648 54.5C73.1648 52.428 74.4948 51.028 76.2728 51.028C77.3928 51.028 78.0928 51.602 78.4428 52.162V51.616V51.252H79.6468V57.664C79.6468 59.974 78.5548 61.122 76.3988 61.122ZM76.4688 56.992C77.6728 56.992 78.5268 55.998 78.5268 54.5C78.5268 53.03 77.6728 51.98 76.4688 51.98C75.2508 51.98 74.4108 53.002 74.4108 54.5C74.4108 56.012 75.2508 56.992 76.4688 56.992ZM86.2459 60.912H85.0419V51.252H86.2459V51.742V52.176C86.6239 51.574 87.4639 51.028 88.4719 51.028C90.4179 51.028 91.5799 52.554 91.5799 54.612C91.5799 56.754 90.3059 58.21 88.4439 58.21C87.4779 58.21 86.6799 57.748 86.2459 57.062V57.622V60.912ZM88.2619 57.272C89.5079 57.272 90.3199 56.18 90.3199 54.612C90.3199 53.058 89.5079 51.98 88.2619 51.98C87.0439 51.98 86.1759 53.002 86.1759 54.612C86.1759 56.194 87.0299 57.272 88.2619 57.272ZM95.1356 58.21C93.8476 58.21 92.8116 57.426 92.8116 56.152C92.8116 54.85 93.8476 54.234 95.0516 54.052L96.4936 53.828C97.0116 53.744 97.1796 53.562 97.1796 53.156C97.1796 52.414 96.6056 51.98 95.8216 51.98C94.7856 51.98 94.2536 52.526 94.2256 53.366H93.0216C93.0636 52.134 94.0296 51.028 95.7236 51.028C97.4036 51.028 98.3556 52.022 98.3556 53.576V58H97.2076V57.664V57.09C96.8716 57.79 96.1436 58.21 95.1356 58.21ZM95.3036 57.272C96.3816 57.272 97.1796 56.544 97.1796 55.452V54.458C97.0956 54.584 96.8436 54.682 96.4376 54.752L95.4576 54.934C94.6596 55.088 94.0576 55.438 94.0576 56.152C94.0576 56.852 94.6176 57.272 95.3036 57.272ZM102.135 60.912H100.861L102.093 57.762L99.3913 51.252H100.721L102.401 55.564L102.723 56.39C102.821 56.11 102.919 55.83 103.017 55.564L104.501 51.252H105.761L102.135 60.912ZM108.176 58H106.972V51.252H108.176V51.784V52.162C108.582 51.504 109.268 51.028 110.15 51.028C111.032 51.028 111.788 51.462 112.18 52.358C112.642 51.574 113.412 51.028 114.378 51.028C115.736 51.028 116.744 51.882 116.744 53.73V58H115.54V53.968C115.54 52.694 115.162 51.98 114.126 51.98C113.062 51.98 112.46 52.904 112.46 53.982V58H111.256V54.01C111.256 52.722 110.864 51.98 109.87 51.98C108.82 51.98 108.176 52.918 108.176 54.038V58ZM121.571 58.21C119.555 58.21 118.295 56.936 118.295 54.598C118.295 52.526 119.653 51.028 121.501 51.028C123.517 51.028 124.623 52.442 124.623 54.612V54.85H119.499C119.527 56.39 120.423 57.272 121.585 57.272C122.411 57.272 123.195 56.95 123.363 55.914H124.553C124.413 57.104 123.489 58.21 121.571 58.21ZM119.541 53.996H123.335C123.335 52.792 122.677 51.98 121.501 51.98C120.367 51.98 119.625 52.862 119.541 53.996ZM127.48 58H126.276V51.252H127.466V51.714V52.162C127.83 51.574 128.642 51.028 129.552 51.028C131.106 51.028 132.044 52.008 132.044 53.744V58H130.84V53.898C130.84 52.624 130.42 51.98 129.356 51.98C128.18 51.98 127.48 52.876 127.48 53.94V58ZM136.354 58.112C135.346 58.112 134.436 57.622 134.436 56.124V52.246H133.176V51.252H134.436V49.026H135.64V51.252H137.04V52.246H135.64V55.998C135.64 56.782 136.032 57.034 136.634 57.034C136.802 57.034 136.942 57.02 137.138 56.992V58.028C136.886 58.084 136.634 58.112 136.354 58.112Z" fill="black" style="fill:black;fill-opacity:1;"/>
<rect width="236" height="32" transform="translate(5 69)" fill="white" style="fill:white;fill-opacity:1;"/>
<path opacity="0.5" d="M22.348 90.21C19.548 90.21 17.658 88.25 17.658 85.044C17.658 81.992 19.674 79.976 22.376 79.976C24.742 79.976 26.366 81.446 26.548 83.364H25.148C24.896 81.922 23.916 81.054 22.32 81.054C20.332 81.054 19.002 82.566 19.002 85.044C19.002 87.522 20.374 89.132 22.32 89.132C23.93 89.132 24.966 88.222 25.232 86.836H26.562C26.296 88.922 24.672 90.21 22.348 90.21ZM29.3298 90H28.1258V80.2H29.3298V83.588V84.162C29.6938 83.518 30.4918 83.028 31.4018 83.028C32.9558 83.028 33.8938 84.008 33.8938 85.744V90H32.6898V85.898C32.6898 84.624 32.2558 83.98 31.1638 83.98C30.0158 83.98 29.3298 84.876 29.3298 85.94V90ZM37.7958 90.21C36.5078 90.21 35.4718 89.426 35.4718 88.152C35.4718 86.85 36.5078 86.234 37.7118 86.052L39.1538 85.828C39.6718 85.744 39.8398 85.562 39.8398 85.156C39.8398 84.414 39.2658 83.98 38.4818 83.98C37.4458 83.98 36.9138 84.526 36.8858 85.366H35.6818C35.7238 84.134 36.6898 83.028 38.3838 83.028C40.0638 83.028 41.0158 84.022 41.0158 85.576V90H39.8678V89.664V89.09C39.5318 89.79 38.8038 90.21 37.7958 90.21ZM37.9638 89.272C39.0418 89.272 39.8398 88.544 39.8398 87.452V86.458C39.7558 86.584 39.5038 86.682 39.0978 86.752L38.1178 86.934C37.3198 87.088 36.7178 87.438 36.7178 88.152C36.7178 88.852 37.2778 89.272 37.9638 89.272ZM44.2048 90H43.0008V83.252H44.1908V83.714V84.162C44.5548 83.574 45.3668 83.028 46.2768 83.028C47.8308 83.028 48.7688 84.008 48.7688 85.744V90H47.5648V85.898C47.5648 84.624 47.1448 83.98 46.0808 83.98C44.9048 83.98 44.2048 84.876 44.2048 85.94V90ZM53.5668 93.122C51.7888 93.122 50.6268 92.128 50.6268 90.644H51.8168C51.8168 91.554 52.4888 92.184 53.5808 92.184C54.8408 92.184 55.6108 91.526 55.6108 90.084V89.258V88.81C55.2608 89.496 54.3928 89.93 53.3988 89.93C51.5368 89.93 50.3328 88.586 50.3328 86.5C50.3328 84.428 51.6628 83.028 53.4408 83.028C54.5608 83.028 55.2608 83.602 55.6108 84.162V83.616V83.252H56.8148V89.664C56.8148 91.974 55.7228 93.122 53.5668 93.122ZM53.6368 88.992C54.8408 88.992 55.6948 87.998 55.6948 86.5C55.6948 85.03 54.8408 83.98 53.6368 83.98C52.4188 83.98 51.5788 85.002 51.5788 86.5C51.5788 88.012 52.4188 88.992 53.6368 88.992ZM61.7296 90.21C59.7136 90.21 58.4536 88.936 58.4536 86.598C58.4536 84.526 59.8116 83.028 61.6596 83.028C63.6756 83.028 64.7816 84.442 64.7816 86.612V86.85H59.6576C59.6856 88.39 60.5816 89.272 61.7436 89.272C62.5696 89.272 63.3536 88.95 63.5216 87.914H64.7116C64.5716 89.104 63.6476 90.21 61.7296 90.21ZM59.6996 85.996H63.4936C63.4936 84.792 62.8356 83.98 61.6596 83.98C60.5256 83.98 59.7836 84.862 59.6996 85.996ZM71.4647 84.246V90H70.2607V84.246H68.9867V83.252H70.2607V82.006C70.2607 80.69 71.1567 79.976 72.1927 79.976C72.4867 79.976 72.7527 80.046 72.8787 80.102V81.124C72.7527 81.11 72.5987 81.082 72.4447 81.082C71.8147 81.082 71.4647 81.446 71.4647 82.09V83.252H72.8647V84.246H71.4647ZM76.511 90.21C74.929 90.21 74.075 89.258 74.075 87.55V83.252H75.279V87.298C75.279 88.586 75.713 89.272 76.819 89.272C77.925 89.272 78.541 88.432 78.541 86.976V83.252H79.731V90H78.555V89.594V89.062C78.233 89.79 77.407 90.21 76.511 90.21ZM81.8016 80.2H83.0056V90H81.8016V80.2ZM90.6409 83.252V90H89.4369V84.246H86.7909V90H85.5869V84.246H84.3129V83.252H85.5869V82.006C85.5869 80.69 86.4829 79.976 87.5189 79.976C87.8129 79.976 88.0789 80.046 88.2049 80.102V81.124C88.0789 81.11 87.9249 81.082 87.7709 81.082C87.1409 81.082 86.7909 81.446 86.7909 82.09V83.252H90.6409ZM89.3249 81.978V80.536H90.7249V81.978H89.3249ZM92.7118 80.2H93.9158V90H92.7118V80.2ZM95.993 80.2H97.197V90H95.993V80.2ZM100.478 90H99.2743V83.252H100.478V83.784V84.162C100.884 83.504 101.57 83.028 102.452 83.028C103.334 83.028 104.09 83.462 104.482 84.358C104.944 83.574 105.714 83.028 106.68 83.028C108.038 83.028 109.046 83.882 109.046 85.73V90H107.842V85.968C107.842 84.694 107.464 83.98 106.428 83.98C105.364 83.98 104.762 84.904 104.762 85.982V90H103.558V86.01C103.558 84.722 103.166 83.98 102.172 83.98C101.122 83.98 100.478 84.918 100.478 86.038V90ZM113.874 90.21C111.858 90.21 110.598 88.936 110.598 86.598C110.598 84.526 111.956 83.028 113.804 83.028C115.82 83.028 116.926 84.442 116.926 86.612V86.85H111.802C111.83 88.39 112.726 89.272 113.888 89.272C114.714 89.272 115.498 88.95 115.666 87.914H116.856C116.716 89.104 115.792 90.21 113.874 90.21ZM111.844 85.996H115.638C115.638 84.792 114.98 83.98 113.804 83.98C112.67 83.98 111.928 84.862 111.844 85.996ZM119.783 90H118.579V83.252H119.769V83.714V84.162C120.133 83.574 120.945 83.028 121.855 83.028C123.409 83.028 124.347 84.008 124.347 85.744V90H123.143V85.898C123.143 84.624 122.723 83.98 121.659 83.98C120.483 83.98 119.783 84.876 119.783 85.94V90ZM128.657 90.112C127.649 90.112 126.739 89.622 126.739 88.124V84.246H125.479V83.252H126.739V81.026H127.943V83.252H129.343V84.246H127.943V87.998C127.943 88.782 128.335 89.034 128.937 89.034C129.105 89.034 129.245 89.02 129.441 88.992V90.028C129.189 90.084 128.937 90.112 128.657 90.112ZM136.572 90.21C134.752 90.21 133.702 89.216 133.674 87.774H134.85C134.892 88.684 135.508 89.272 136.586 89.272C137.51 89.272 138.14 88.852 138.14 88.166C138.14 87.634 137.776 87.284 136.964 87.13L135.942 86.934C134.682 86.696 133.884 86.052 133.884 85.016C133.884 83.868 134.976 83.028 136.502 83.028C138.126 83.028 139.106 83.826 139.19 85.198H138C137.902 84.386 137.328 83.98 136.418 83.98C135.606 83.98 135.088 84.372 135.088 84.946C135.088 85.492 135.48 85.758 136.236 85.898L137.286 86.094C138.504 86.318 139.33 86.92 139.33 88.04C139.33 89.244 138.294 90.21 136.572 90.21ZM143.285 90.112C142.277 90.112 141.367 89.622 141.367 88.124V84.246H140.107V83.252H141.367V81.026H142.571V83.252H143.971V84.246H142.571V87.998C142.571 88.782 142.963 89.034 143.565 89.034C143.733 89.034 143.873 89.02 144.069 88.992V90.028C143.817 90.084 143.565 90.112 143.285 90.112ZM147.431 90.21C146.143 90.21 145.107 89.426 145.107 88.152C145.107 86.85 146.143 86.234 147.347 86.052L148.789 85.828C149.307 85.744 149.475 85.562 149.475 85.156C149.475 84.414 148.901 83.98 148.117 83.98C147.081 83.98 146.549 84.526 146.521 85.366H145.317C145.359 84.134 146.325 83.028 148.019 83.028C149.699 83.028 150.651 84.022 150.651 85.576V90H149.503V89.664V89.09C149.167 89.79 148.439 90.21 147.431 90.21ZM147.599 89.272C148.677 89.272 149.475 88.544 149.475 87.452V86.458C149.391 86.584 149.139 86.682 148.733 86.752L147.753 86.934C146.955 87.088 146.353 87.438 146.353 88.152C146.353 88.852 146.913 89.272 147.599 89.272ZM154.961 90.112C153.953 90.112 153.043 89.622 153.043 88.124V84.246H151.783V83.252H153.043V81.026H154.247V83.252H155.647V84.246H154.247V87.998C154.247 88.782 154.639 89.034 155.241 89.034C155.409 89.034 155.549 89.02 155.745 88.992V90.028C155.493 90.084 155.241 90.112 154.961 90.112ZM159.54 90.21C157.958 90.21 157.104 89.258 157.104 87.55V83.252H158.308V87.298C158.308 88.586 158.742 89.272 159.848 89.272C160.954 89.272 161.57 88.432 161.57 86.976V83.252H162.76V90H161.584V89.594V89.062C161.262 89.79 160.436 90.21 159.54 90.21ZM167.197 90.21C165.377 90.21 164.327 89.216 164.299 87.774H165.475C165.517 88.684 166.133 89.272 167.211 89.272C168.135 89.272 168.765 88.852 168.765 88.166C168.765 87.634 168.401 87.284 167.589 87.13L166.567 86.934C165.307 86.696 164.509 86.052 164.509 85.016C164.509 83.868 165.601 83.028 167.127 83.028C168.751 83.028 169.731 83.826 169.815 85.198H168.625C168.527 84.386 167.953 83.98 167.043 83.98C166.231 83.98 165.713 84.372 165.713 84.946C165.713 85.492 166.105 85.758 166.861 85.898L167.911 86.094C169.129 86.318 169.955 86.92 169.955 88.04C169.955 89.244 168.919 90.21 167.197 90.21Z" fill="black" style="fill:black;fill-opacity:1;"/>
<rect width="236" height="32" transform="translate(5 101)" fill="white" style="fill:white;fill-opacity:1;"/>
<path d="M21.494 122.21C19.114 122.21 17.56 120.922 17.532 118.85H18.834C18.918 120.264 19.954 121.146 21.508 121.146C23.118 121.146 24 120.432 24 119.368C24 118.43 23.216 118.01 22.054 117.744L20.598 117.408C19.1 117.058 17.868 116.204 17.868 114.706C17.868 113.124 19.38 111.976 21.452 111.976C23.566 111.976 24.98 113.124 25.092 114.944H23.79C23.706 113.782 22.796 113.054 21.424 113.054C20.15 113.054 19.212 113.698 19.212 114.594C19.212 115.434 19.772 115.938 20.92 116.204L22.656 116.596C24.21 116.96 25.344 117.8 25.344 119.284C25.344 120.894 23.902 122.21 21.494 122.21ZM29.7921 122.21C27.7761 122.21 26.5161 120.936 26.5161 118.598C26.5161 116.526 27.8741 115.028 29.7221 115.028C31.7381 115.028 32.8441 116.442 32.8441 118.612V118.85H27.7201C27.7481 120.39 28.6441 121.272 29.8061 121.272C30.6321 121.272 31.4161 120.95 31.5841 119.914H32.7741C32.6341 121.104 31.7101 122.21 29.7921 122.21ZM27.7621 117.996H31.5561C31.5561 116.792 30.8981 115.98 29.7221 115.98C28.5881 115.98 27.8461 116.862 27.7621 117.996ZM35.7009 122H34.4969V115.252H35.6869V115.714V116.162C36.0509 115.574 36.8629 115.028 37.7729 115.028C39.3269 115.028 40.2649 116.008 40.2649 117.744V122H39.0609V117.898C39.0609 116.624 38.6409 115.98 37.5769 115.98C36.4009 115.98 35.7009 116.876 35.7009 117.94V122ZM44.9229 122.21C43.1589 122.21 41.8149 120.922 41.8149 118.626C41.8149 116.582 43.0329 115.028 44.9509 115.028C46.0709 115.028 46.8129 115.644 47.1209 116.162V115.616V112.2H48.3249V122H47.1209V121.608V121.062C46.7569 121.692 45.9309 122.21 44.9229 122.21ZM45.1329 121.272C46.3369 121.272 47.2049 120.236 47.2049 118.612C47.2049 117.002 46.3509 115.98 45.1329 115.98C43.9149 115.98 43.0609 117.044 43.0609 118.626C43.0609 120.208 43.9009 121.272 45.1329 121.272ZM56.6316 122.21C54.7976 122.21 53.2856 121.006 53.2856 118.612C53.2856 116.484 54.7696 115.028 56.6876 115.028C58.2836 115.028 59.4876 115.994 59.6276 117.52H58.3816C58.2696 116.638 57.6676 115.98 56.6596 115.98C55.3716 115.98 54.5316 117.114 54.5316 118.612C54.5316 120.222 55.3856 121.272 56.6876 121.272C57.6816 121.272 58.3536 120.698 58.4796 119.732H59.6696C59.5436 121.202 58.4796 122.21 56.6316 122.21ZM63.5638 122.21C61.9818 122.21 61.1278 121.258 61.1278 119.55V115.252H62.3318V119.298C62.3318 120.586 62.7658 121.272 63.8718 121.272C64.9778 121.272 65.5938 120.432 65.5938 118.976V115.252H66.7838V122H65.6078V121.594V121.062C65.2858 121.79 64.4598 122.21 63.5638 122.21ZM71.2204 122.21C69.4004 122.21 68.3504 121.216 68.3224 119.774H69.4984C69.5404 120.684 70.1564 121.272 71.2344 121.272C72.1584 121.272 72.7884 120.852 72.7884 120.166C72.7884 119.634 72.4244 119.284 71.6124 119.13L70.5904 118.934C69.3304 118.696 68.5324 118.052 68.5324 117.016C68.5324 115.868 69.6244 115.028 71.1504 115.028C72.7744 115.028 73.7544 115.826 73.8384 117.198H72.6484C72.5504 116.386 71.9764 115.98 71.0664 115.98C70.2544 115.98 69.7364 116.372 69.7364 116.946C69.7364 117.492 70.1284 117.758 70.8844 117.898L71.9344 118.094C73.1524 118.318 73.9784 118.92 73.9784 120.04C73.9784 121.244 72.9424 122.21 71.2204 122.21ZM77.9339 122.112C76.9259 122.112 76.0159 121.622 76.0159 120.124V116.246H74.7559V115.252H76.0159V113.026H77.2199V115.252H78.6199V116.246H77.2199V119.998C77.2199 120.782 77.6119 121.034 78.2139 121.034C78.3819 121.034 78.5219 121.02 78.7179 120.992V122.028C78.4659 122.084 78.2139 122.112 77.9339 122.112ZM82.963 122.21C81.017 122.21 79.645 120.768 79.645 118.612C79.645 116.512 81.017 115.028 82.963 115.028C84.895 115.028 86.281 116.512 86.281 118.612C86.281 120.768 84.895 122.21 82.963 122.21ZM82.963 121.272C84.251 121.272 85.035 120.194 85.035 118.612C85.035 117.03 84.223 115.98 82.963 115.98C81.703 115.98 80.891 117.03 80.891 118.612C80.891 120.194 81.675 121.272 82.963 121.272ZM89.117 122H87.913V115.252H89.117V115.784V116.162C89.523 115.504 90.209 115.028 91.091 115.028C91.973 115.028 92.729 115.462 93.121 116.358C93.583 115.574 94.353 115.028 95.319 115.028C96.677 115.028 97.685 115.882 97.685 117.73V122H96.481V117.968C96.481 116.694 96.103 115.98 95.067 115.98C94.003 115.98 93.401 116.904 93.401 117.982V122H92.197V118.01C92.197 116.722 91.805 115.98 90.811 115.98C89.761 115.98 89.117 116.918 89.117 118.038V122ZM105.835 122.21C103.819 122.21 102.559 120.936 102.559 118.598C102.559 116.526 103.917 115.028 105.765 115.028C107.781 115.028 108.887 116.442 108.887 118.612V118.85H103.763C103.791 120.39 104.687 121.272 105.849 121.272C106.675 121.272 107.459 120.95 107.627 119.914H108.817C108.677 121.104 107.753 122.21 105.835 122.21ZM103.805 117.996H107.599C107.599 116.792 106.941 115.98 105.765 115.98C104.631 115.98 103.889 116.862 103.805 117.996ZM111.744 122H110.54V115.252H111.744V115.784V116.162C112.15 115.504 112.836 115.028 113.718 115.028C114.6 115.028 115.356 115.462 115.748 116.358C116.21 115.574 116.98 115.028 117.946 115.028C119.304 115.028 120.312 115.882 120.312 117.73V122H119.108V117.968C119.108 116.694 118.73 115.98 117.694 115.98C116.63 115.98 116.028 116.904 116.028 117.982V122H114.824V118.01C114.824 116.722 114.432 115.98 113.438 115.98C112.388 115.98 111.744 116.918 111.744 118.038V122ZM124.216 122.21C122.928 122.21 121.892 121.426 121.892 120.152C121.892 118.85 122.928 118.234 124.132 118.052L125.574 117.828C126.092 117.744 126.26 117.562 126.26 117.156C126.26 116.414 125.686 115.98 124.902 115.98C123.866 115.98 123.334 116.526 123.306 117.366H122.102C122.144 116.134 123.11 115.028 124.804 115.028C126.484 115.028 127.436 116.022 127.436 117.576V122H126.288V121.664V121.09C125.952 121.79 125.224 122.21 124.216 122.21ZM124.384 121.272C125.462 121.272 126.26 120.544 126.26 119.452V118.458C126.176 118.584 125.924 118.682 125.518 118.752L124.538 118.934C123.74 119.088 123.138 119.438 123.138 120.152C123.138 120.852 123.698 121.272 124.384 121.272ZM129.309 113.978V112.536H130.709V113.978H129.309ZM129.421 115.252H130.625V122H129.421V115.252ZM132.702 112.2H133.906V122H132.702V112.2Z" fill="black" style="fill:black;fill-opacity:1;"/>
</svg>
