<svg width="221" height="56" viewBox="0 0 221 56" fill="none" xmlns="http://www.w3.org/2000/svg">
<path d="M6.42 51.3C3.02 51.3 0.8 49.46 0.76 46.5H2.62C2.74 48.52 4.22 49.78 6.44 49.78C8.74 49.78 10 48.76 10 47.24C10 45.9 8.88 45.3 7.22 44.92L5.14 44.44C3 43.94 1.24 42.72 1.24 40.58C1.24 38.32 3.4 36.68 6.36 36.68C9.38 36.68 11.4 38.32 11.56 40.92H9.7C9.58 39.26 8.28 38.22 6.32 38.22C4.5 38.22 3.16 39.14 3.16 40.42C3.16 41.62 3.96 42.34 5.6 42.72L8.08 43.28C10.3 43.8 11.92 45 11.92 47.12C11.92 49.42 9.86 51.3 6.42 51.3ZM17.6744 51.3C14.7944 51.3 12.9944 49.48 12.9944 46.14C12.9944 43.18 14.9344 41.04 17.5744 41.04C20.4544 41.04 22.0344 43.06 22.0344 46.16V46.5H14.7144C14.7544 48.7 16.0344 49.96 17.6944 49.96C18.8744 49.96 19.9944 49.5 20.2344 48.02H21.9344C21.7344 49.72 20.4144 51.3 17.6744 51.3ZM14.7744 45.28H20.1944C20.1944 43.56 19.2544 42.4 17.5744 42.4C15.9544 42.4 14.8944 43.66 14.7744 45.28ZM25.5156 51H23.7956V41.36H25.4956V42.02V42.66C26.0156 41.82 27.1756 41.04 28.4756 41.04C30.6956 41.04 32.0356 42.44 32.0356 44.92V51H30.3156V45.14C30.3156 43.32 29.7156 42.4 28.1956 42.4C26.5156 42.4 25.5156 43.68 25.5156 45.2V51ZM37.5922 51.16C36.1522 51.16 34.8522 50.46 34.8522 48.32V42.78H33.0522V41.36H34.8522V38.18H36.5722V41.36H38.5722V42.78H36.5722V48.14C36.5722 49.26 37.1322 49.62 37.9922 49.62C38.2322 49.62 38.4322 49.6 38.7122 49.56V51.04C38.3522 51.12 37.9922 51.16 37.5922 51.16Z" fill="black" style="fill:black;fill-opacity:1;"/>
<path d="M154.62 51H152.8V37H158.26C160.7 37 163.06 37.9 163.06 40.98C163.06 44.04 160.8 44.94 158.26 44.94H154.62V51ZM154.62 38.52V43.42H158.24C160.38 43.42 161.2 42.46 161.2 40.98C161.2 39.48 160.38 38.52 158.24 38.52H154.62ZM168.088 51.3C165.208 51.3 163.408 49.48 163.408 46.14C163.408 43.18 165.348 41.04 167.988 41.04C170.868 41.04 172.448 43.06 172.448 46.16V46.5H165.128C165.168 48.7 166.448 49.96 168.108 49.96C169.288 49.96 170.408 49.5 170.648 48.02H172.348C172.148 49.72 170.828 51.3 168.088 51.3ZM165.188 45.28H170.608C170.608 43.56 169.668 42.4 167.988 42.4C166.368 42.4 165.308 43.66 165.188 45.28ZM175.93 51H174.21V41.36H175.91V42.02V42.66C176.43 41.82 177.59 41.04 178.89 41.04C181.11 41.04 182.45 42.44 182.45 44.92V51H180.73V45.14C180.73 43.32 180.13 42.4 178.61 42.4C176.93 42.4 175.93 43.68 175.93 45.2V51ZM188.504 51.3C185.984 51.3 184.064 49.46 184.064 46.18C184.064 43.26 185.804 41.04 188.544 41.04C190.144 41.04 191.204 41.92 191.644 42.66V41.88V37H193.364V51H191.644V50.44V49.66C191.124 50.56 189.944 51.3 188.504 51.3ZM188.804 49.96C190.524 49.96 191.764 48.48 191.764 46.16C191.764 43.86 190.544 42.4 188.804 42.4C187.064 42.4 185.844 43.92 185.844 46.18C185.844 48.44 187.044 49.96 188.804 49.96ZM195.565 39.54V37.48H197.565V39.54H195.565ZM195.725 41.36H197.445V51H195.725V41.36ZM201.532 51H199.812V41.36H201.512V42.02V42.66C202.032 41.82 203.192 41.04 204.492 41.04C206.712 41.04 208.052 42.44 208.052 44.92V51H206.332V45.14C206.332 43.32 205.732 42.4 204.212 42.4C202.532 42.4 201.532 43.68 201.532 45.2V51ZM214.306 55.46C211.766 55.46 210.106 54.04 210.106 51.92H211.806C211.806 53.22 212.766 54.12 214.326 54.12C216.126 54.12 217.226 53.18 217.226 51.12V49.94V49.3C216.726 50.28 215.486 50.9 214.066 50.9C211.406 50.9 209.686 48.98 209.686 46C209.686 43.04 211.586 41.04 214.126 41.04C215.726 41.04 216.726 41.86 217.226 42.66V41.88V41.36H218.946V50.52C218.946 53.82 217.386 55.46 214.306 55.46ZM214.406 49.56C216.126 49.56 217.346 48.14 217.346 46C217.346 43.9 216.126 42.4 214.406 42.4C212.666 42.4 211.466 43.86 211.466 46C211.466 48.16 212.666 49.56 214.406 49.56Z" fill="black" style="fill:black;fill-opacity:1;"/>
<path d="M20 12H186" stroke="#E5E5E5" style="stroke:#E5E5E5;stroke:color(display-p3 0.8993 0.8993 0.8993);stroke-opacity:1;" stroke-width="2" stroke-linecap="round"/>
<circle cx="19.5" cy="12.5" r="12.5" fill="#42D32E" style="fill:#42D32E;fill:color(display-p3 0.2578 0.8292 0.1823);fill-opacity:1;"/>
<circle cx="185.5" cy="12.5" r="12.5" fill="#FFF29D" style="fill:#FFF29D;fill:color(display-p3 1.0000 0.9487 0.6156);fill-opacity:1;"/>
<path d="M100 16.64H98L101.62 11.7L98.2 7H100.3L102.18 9.78C102.36 10.04 102.54 10.28 102.7 10.52L103.18 9.8L105.1 7H107.1L103.6 11.7L107.24 16.64H105.16L103.12 13.66C102.96 13.4 102.78 13.14 102.58 12.88C102.4 13.14 102.22 13.4 102.06 13.66L100 16.64Z" fill="black" style="fill:black;fill-opacity:1;"/>
</svg>
