<svg width="216" height="56" viewBox="0 0 216 56" fill="none" xmlns="http://www.w3.org/2000/svg">
<path d="M6.92 51.3C3.64 51.3 1.66 49.42 1.66 45.54V37H3.48V45.3C3.48 48.38 4.66 49.78 6.92 49.78C9.18 49.78 10.38 48.42 10.38 45.3V37H12.2V45.54C12.2 49.42 10.2 51.3 6.92 51.3ZM16.3305 51H14.6105V41.36H16.3105V42.02V42.66C16.8305 41.82 17.9905 41.04 19.2905 41.04C21.5105 41.04 22.8505 42.44 22.8505 44.92V51H21.1305V45.14C21.1305 43.32 20.5305 42.4 19.0105 42.4C17.3305 42.4 16.3305 43.68 16.3305 45.2V51ZM28.4647 51.3C25.8647 51.3 24.3647 49.88 24.3247 47.82H26.0047C26.0647 49.12 26.9447 49.96 28.4847 49.96C29.8047 49.96 30.7047 49.36 30.7047 48.38C30.7047 47.62 30.1847 47.12 29.0247 46.9L27.5647 46.62C25.7647 46.28 24.6247 45.36 24.6247 43.88C24.6247 42.24 26.1847 41.04 28.3647 41.04C30.6847 41.04 32.0847 42.18 32.2047 44.14H30.5047C30.3647 42.98 29.5447 42.4 28.2447 42.4C27.0847 42.4 26.3447 42.96 26.3447 43.78C26.3447 44.56 26.9047 44.94 27.9847 45.14L29.4847 45.42C31.2247 45.74 32.4047 46.6 32.4047 48.2C32.4047 49.92 30.9247 51.3 28.4647 51.3ZM38.2127 51.3C35.3327 51.3 33.5327 49.48 33.5327 46.14C33.5327 43.18 35.4727 41.04 38.1127 41.04C40.9927 41.04 42.5727 43.06 42.5727 46.16V46.5H35.2527C35.2927 48.7 36.5727 49.96 38.2327 49.96C39.4127 49.96 40.5327 49.5 40.7727 48.02H42.4727C42.2727 49.72 40.9527 51.3 38.2127 51.3ZM35.3127 45.28H40.7327C40.7327 43.56 39.7927 42.4 38.1127 42.4C36.4927 42.4 35.4327 43.66 35.3127 45.28ZM46.0539 51H44.3339V41.36H46.0339V42.02V42.66C46.5539 41.82 47.7139 41.04 49.0139 41.04C51.2339 41.04 52.5739 42.44 52.5739 44.92V51H50.8539V45.14C50.8539 43.32 50.2539 42.4 48.7339 42.4C47.0539 42.4 46.0539 43.68 46.0539 45.2V51ZM58.1305 51.16C56.6905 51.16 55.3905 50.46 55.3905 48.32V42.78H53.5905V41.36H55.3905V38.18H57.1105V41.36H59.1105V42.78H57.1105V48.14C57.1105 49.26 57.6705 49.62 58.5305 49.62C58.7705 49.62 58.9705 49.6 59.2505 49.56V51.04C58.8905 51.12 58.5305 51.16 58.1305 51.16Z" fill="black" style="fill:black;fill-opacity:1;"/>
<path d="M182.42 51.3C179.02 51.3 176.8 49.46 176.76 46.5H178.62C178.74 48.52 180.22 49.78 182.44 49.78C184.74 49.78 186 48.76 186 47.24C186 45.9 184.88 45.3 183.22 44.92L181.14 44.44C179 43.94 177.24 42.72 177.24 40.58C177.24 38.32 179.4 36.68 182.36 36.68C185.38 36.68 187.4 38.32 187.56 40.92H185.7C185.58 39.26 184.28 38.22 182.32 38.22C180.5 38.22 179.16 39.14 179.16 40.42C179.16 41.62 179.96 42.34 181.6 42.72L184.08 43.28C186.3 43.8 187.92 45 187.92 47.12C187.92 49.42 185.86 51.3 182.42 51.3ZM193.674 51.3C190.794 51.3 188.994 49.48 188.994 46.14C188.994 43.18 190.934 41.04 193.574 41.04C196.454 41.04 198.034 43.06 198.034 46.16V46.5H190.714C190.754 48.7 192.034 49.96 193.694 49.96C194.874 49.96 195.994 49.5 196.234 48.02H197.934C197.734 49.72 196.414 51.3 193.674 51.3ZM190.774 45.28H196.194C196.194 43.56 195.254 42.4 193.574 42.4C191.954 42.4 190.894 43.66 190.774 45.28ZM201.516 51H199.796V41.36H201.496V42.02V42.66C202.016 41.82 203.176 41.04 204.476 41.04C206.696 41.04 208.036 42.44 208.036 44.92V51H206.316V45.14C206.316 43.32 205.716 42.4 204.196 42.4C202.516 42.4 201.516 43.68 201.516 45.2V51ZM213.592 51.16C212.152 51.16 210.852 50.46 210.852 48.32V42.78H209.052V41.36H210.852V38.18H212.572V41.36H214.572V42.78H212.572V48.14C212.572 49.26 213.132 49.62 213.992 49.62C214.232 49.62 214.432 49.6 214.712 49.56V51.04C214.352 51.12 213.992 51.16 213.592 51.16Z" fill="black" style="fill:black;fill-opacity:1;"/>
<path d="M30 12H196" stroke="#E5E5E5" style="stroke:#E5E5E5;stroke:color(display-p3 0.8993 0.8993 0.8993);stroke-opacity:1;" stroke-width="2" stroke-linecap="round"/>
<circle cx="29.5" cy="12.5" r="12.5" fill="#EDEDED" style="fill:#EDEDED;fill:color(display-p3 0.9294 0.9294 0.9294);fill-opacity:1;"/>
<circle cx="195.5" cy="12.5" r="12.5" fill="#42D32E" style="fill:#42D32E;fill:color(display-p3 0.2578 0.8292 0.1823);fill-opacity:1;"/>
<path d="M110 16.64H108L111.62 11.7L108.2 7H110.3L112.18 9.78C112.36 10.04 112.54 10.28 112.7 10.52L113.18 9.8L115.1 7H117.1L113.6 11.7L117.24 16.64H115.16L113.12 13.66C112.96 13.4 112.78 13.14 112.58 12.88C112.4 13.14 112.22 13.4 112.06 13.66L110 16.64Z" fill="black" style="fill:black;fill-opacity:1;"/>
</svg>
